<?xml version="1.0" encoding="utf-8"?>
<!-- Generator: Adobe Illustrator 26.3.1, SVG Export Plug-In . SVG Version: 6.00 Build 0)  -->
<svg version="1.1" xmlns="http://www.w3.org/2000/svg" xmlns:xlink="http://www.w3.org/1999/xlink" x="0px" y="0px"
	 viewBox="0 0 1205.5 1205.6" style="enable-background:new 0 0 1205.5 1205.6;" xml:space="preserve">
<style type="text/css">
	.st0{display:none;}
	.st1{display:inline;fill:#1B1950;}
	.st2{fill:#EFAE1E;}
	.st3{fill:#1B1950;}
</style>
<g id="Background">
</g>
<g id="Layer_1">
	<g id="XMLID_4807_">
		<g id="XMLID_3517_">
			<g id="XMLID_4627_" class="st0">
				<path id="XMLID_4628_" class="st1" d="M606.9-65.6c-367.3,0-665.1,297.8-665.1,665.1c0,317,221.8,582.2,518.6,648.9
					c129.2-266.1,141.7-506.8,140.9-600.6c0-2.8-2-5.1-4.7-5.6c0,0-0.1,0-0.1,0c-2.8-0.5-5.5,1.1-6.5,3.7l-27,75.5
					c-5.2,14.5-7.5,30-6.2,45.4c0.8,9.4-1.1,21.8-5.7,34.7c-8.8,24.5-24.2,41.5-34.5,37.8c-10.3-3.7-11.6-26.6-2.8-51.1
					c4.6-12.8,11-23.6,17.6-30.4c10.8-11.2,18.8-24.7,24.1-39.4l26.4-73.9c1.2-3.4-0.2-7.2-3.3-9l-0.1-0.1c-3-1.8-6.9-1.2-9.2,1.4
					l-95.3,105.2c-15.2,16.8-26.4,36.7-33.7,58.2c-4.3,12.7-13.5,27.8-26.3,42c-25.2,27.9-55.2,41.9-66.9,31.3
					c-11.7-10.6-0.7-41.8,24.5-69.7c12.8-14.2,26.9-24.8,39.1-30.4c20.6-9.4,39.3-22.5,54.6-39.4L560.4,629c2.4-2.6,2.6-6.5,0.5-9.3
					c0,0,0-0.1-0.1-0.1c-2.1-2.9-6-3.9-9.2-2.4l-71,33.6c-14,6.7-26.7,16-36.8,27.8c-6.1,7.2-16.2,14.6-28.5,20.5
					c-23.6,11.2-46.5,12.2-51.1,2.3c-4.7-9.9,10.6-27,34.2-38.1c12.4-5.9,24.5-8.9,34-9.1c15.4-0.3,30.6-4.1,44.5-10.7l71.2-33.7
					c3.3-1.5,4.9-5.2,4-8.7c0,0,0-0.1,0-0.1c-0.9-3.4-4.1-5.7-7.6-5.5l-141.3,7c-22.4,1.1-44.4,6.6-64.4,16.8
					c-12.1,6.2-29.7,10.6-49.3,11.6c-37.6,1.9-68.6-9.4-69.4-25.2c-0.8-15.8,29-30.1,66.6-31.9c19.6-1,37.5,1.6,50.2,6.6
					c20.9,8.2,43.4,11.4,65.7,10.3l141.3-7c3.5-0.2,6.4-2.8,7-6.2c0,0,0-0.1,0-0.1c0.6-3.6-1.4-7-4.8-8.2l-74.2-26.5
					c-14.8-5.3-30.5-7.2-46.2-6.2c-9.3,0.6-21.4-1.3-33.9-5.7c-24.5-8.8-41.5-24.2-37.8-34.5c3.7-10.3,26.6-11.6,51.1-2.8
					c12.8,4.6,23.6,11,30.4,17.6c11.2,10.8,24.7,18.8,39.4,24.1l73.9,26.4c3.4,1.2,7.2-0.2,9-3.3l0.1-0.1c1.8-3,1.2-6.9-1.4-9.2
					l-105.2-95.3c-16.8-15.2-36.7-26.4-58.2-33.7c-12.7-4.3-27.8-13.5-42-26.3c-27.9-25.2-41.9-55.2-31.3-66.9
					c10.6-11.7,41.8-0.7,69.7,24.5c14.6,13.2,25.4,27.7,30.8,40.2c9,20.5,22.6,38.7,39.2,53.8l104.9,95c2.6,2.4,6.5,2.6,9.3,0.5
					c0,0,0.1,0,0.1-0.1c2.9-2.1,3.9-6,2.4-9.2l-33.6-71c-6.7-14.1-16.2-26.7-28-36.9c-7.1-6.1-14.5-16.1-20.3-28.4
					c-11.2-23.6-12.2-46.5-2.3-51.1c9.9-4.7,27,10.6,38.1,34.2c5.7,12,8.7,23.8,9.1,33.1c0.6,15.7,4,31.2,10.7,45.4l33.7,71.2
					c1.5,3.3,5.2,4.9,8.7,4c0,0,0.1,0,0.1,0c3.4-0.9,5.7-4.1,5.5-7.6l-7-141.3c-1.1-22.4-6.6-44.4-16.8-64.4
					c-6.2-12.1-10.6-29.7-11.6-49.3c-1.9-37.6,9.4-68.6,25.2-69.4c15.8-0.8,30.1,29,31.9,66.6c1,19.6-1.6,37.5-6.6,50.2
					c-8.2,20.9-11.4,43.4-10.3,65.7l7,141.3c0.2,3.5,2.8,6.4,6.2,7c0.4,0.1,0.7,0.2,1.7-0.1c3.4-0.8,6.1-3.3,7.3-6.6l25.8-72.4
					c5.3-14.8,7.2-30.5,6.2-46.2c-0.6-9.3,1.3-21.4,5.7-33.9c8.8-24.5,24.2-41.5,34.5-37.8c10.3,3.7,11.6,26.6,2.8,51.1
					c-4.6,12.8-11,23.6-17.6,30.4c-10.8,11.2-18.8,24.7-24.1,39.4L632,528.4c-1.2,3.4,0.2,7.2,3.3,9c0,0,0.1,0,0.1,0.1
					c3,1.8,6.9,1.2,9.2-1.4l95-104.9c15-16.6,26.8-36.1,33.7-57.4c4.2-13,13.5-28.5,26.7-43c25.2-27.9,55.2-41.9,66.9-31.3
					c11.7,10.6,0.7,41.8-24.5,69.7c-12.8,14.2-26.9,24.8-39.1,30.4c-20.6,9.4-39.3,22.5-54.6,39.3l-95.3,105.2
					c-2.4,2.6-2.6,6.5-0.5,9.3c0,0,0,0.1,0.1,0.1c2.1,2.9,6,3.9,9.2,2.4l71-33.6c14.1-6.7,26.7-16.2,36.9-28
					c6.1-7.1,16.1-14.5,28.4-20.3c23.6-11.2,46.5-12.2,51.1-2.3c4.7,9.9-10.6,27-34.2,38.1c-12,5.7-23.8,8.7-33.1,9.1
					c-15.7,0.6-31.2,4-45.4,10.7l-71.2,33.7c-3.3,1.5-4.9,5.2-4,8.7c0,0,0,0.1,0,0.1c0.9,3.4,4.1,5.7,7.6,5.5l141.3-7
					c22.4-1.1,44.4-6.6,64.4-16.8c12.1-6.2,29.7-10.6,49.3-11.6c37.6-1.9,68.6,9.4,69.4,25.2c0.8,15.8-29,30.1-66.6,31.9
					c-19.6,1-37.5-1.6-50.2-6.6c-20.9-8.2-43.4-11.4-65.7-10.3l-141.3,7c-3.5,0.2-6.4,2.8-7,6.2c0,0,0,0.1,0,0.1
					c-0.6,3.6,1.4,7,4.8,8.2l74.2,26.5c14.5,5.2,30,7.5,45.4,6.2c9.4-0.8,21.8,1.1,34.7,5.7c24.5,8.8,41.5,24.2,37.8,34.5
					c-3.7,10.3-26.6,11.6-51.1,2.8c-12.8-4.6-23.6-11-30.4-17.6c-11.2-10.8-24.7-18.8-39.4-24.1l-73.9-26.4
					c-3.4-1.2-7.1,0.2-8.9,3.3c0,0,0,0.1-0.1,0.1c-1.8,3-1.2,6.9,1.4,9.2l104.9,95c16.6,15,36.1,26.8,57.4,33.7
					c13,4.2,28.5,13.5,43,26.7c27.9,25.2,41.9,55.2,31.3,66.9c-10.6,11.7-41.8,0.7-69.7-24.5c-14.6-13.2-25.4-27.7-30.8-40.2
					c-9-20.5-22.6-38.7-39.2-53.8l-104.9-95c-2.6-2.4-6.5-2.6-9.3-0.5c0,0-0.1,0-0.1,0.1c-2.9,2.1-3.9,6-2.4,9.2l33.6,71
					c6.7,14,16,26.7,27.8,36.8c7.2,6.1,14.6,16.2,20.5,28.5c11.2,23.6,12.2,46.5,2.3,51.1c-9.9,4.7-27-10.6-38.1-34.2
					c-5.9-12.4-8.9-24.5-9.1-34c-0.3-15.4-4.1-30.6-10.7-44.5l-34.3-72.5c-1.2-2.6-4.1-3.9-6.8-3.1c-0.3,0.1-0.6,0.2-0.8,0.2
					c-2.6,0.7-4.3,3.2-4.2,5.9c13.5,210.6-51.3,434.9-120.7,608.6c35.7,5.9,72.4,9,109.8,9c367.3,0,665.1-297.8,665.1-665.1
					C1272,232.1,974.2-65.6,606.9-65.6z"/>
			</g>
		</g>
	</g>
	<path class="st2" d="M1205.5,602.8c0,332.9-269.9,602.8-602.8,602.8c-28.3,0-56.2-1.9-83.5-5.7c-11.2-1.6-22.2-3.4-33.2-5.6
		C209,1139.9,0,895.8,0,602.8C0,269.9,269.9,0,602.8,0S1205.5,269.9,1205.5,602.8z"/>
	<path class="st3" d="M994.5,567.3c0.8,15.8-29,30.1-66.6,31.9c-19.6,1-37.5-1.6-50.2-6.6c-20.9-8.2-43.4-11.4-65.8-10.3l-141.4,7
		c-3.5,0.2-6.4,2.8-7,6.2c0,0,0,0.1,0,0.1c-0.6,3.5,1.4,7,4.8,8.2l74.2,26.5c14.5,5.2,30,7.5,45.4,6.2c9.4-0.8,21.8,1.1,34.7,5.7
		c24.5,8.8,41.5,24.2,37.8,34.5c-3.7,10.3-26.6,11.6-51.1,2.8c-12.8-4.6-23.6-11-30.4-17.6c-11.2-10.8-24.7-18.8-39.4-24.1
		l-73.9-26.4c-3.4-1.2-7.1,0.2-9,3.3c0,0,0,0.1-0.1,0.1c-1.8,3-1.2,6.9,1.4,9.2l104.9,95c16.6,15.1,36.1,26.8,57.4,33.7
		c13,4.2,28.5,13.5,43,26.7c27.9,25.2,41.9,55.2,31.3,66.9c-10.6,11.7-41.8,0.7-69.7-24.5c-14.6-13.2-25.4-27.7-30.8-40.2
		c-9-20.6-22.6-38.8-39.2-53.8l-104.9-95c-2.6-2.4-6.5-2.6-9.3-0.5c0,0-0.1,0-0.1,0.1c-2.9,2.1-3.9,6-2.4,9.2l33.6,71
		c6.7,14,16,26.7,27.8,36.8c7.2,6.1,14.7,16.2,20.5,28.5c11.2,23.6,12.2,46.4,2.3,51.1c-9.9,4.7-26.9-10.6-38.1-34.2
		c-5.9-12.3-8.9-24.5-9.1-34c-0.3-15.4-4.1-30.6-10.7-44.5L630.4,644c-1.2-2.6-4.1-3.9-6.8-3.1c-0.3,0.1-0.6,0.2-0.8,0.2
		c-2.6,0.7-4.3,3.2-4.2,5.9c12.1,188.7-38.7,388.3-99.3,552.8c-11.2-1.6-22.2-3.4-33.2-5.6c105.9-244.1,116.8-459,116-546.4
		c0-2.8-2-5.1-4.7-5.6c0,0-0.1,0-0.1,0c-2.8-0.5-5.6,1.1-6.5,3.7l-27,75.5c-5.2,14.5-7.5,30-6.2,45.4c0.8,9.4-1.1,21.8-5.7,34.7
		c-8.8,24.6-24.2,41.5-34.5,37.8c-10.3-3.7-11.6-26.6-2.8-51.1c4.6-12.8,11-23.6,17.5-30.4c10.8-11.2,18.8-24.7,24.1-39.4l26.4-73.9
		c1.2-3.4-0.2-7.2-3.3-9l-0.1-0.1c-3-1.8-6.9-1.1-9.2,1.4l-95.3,105.2c-15.2,16.8-26.4,36.7-33.7,58.2
		c-4.3,12.7-13.5,27.8-26.3,41.9c-25.2,27.9-55.2,41.9-66.9,31.3c-11.7-10.6-0.7-41.8,24.5-69.7c12.8-14.2,26.9-24.8,39.1-30.4
		c20.6-9.4,39.3-22.5,54.6-39.4L561.3,629c2.4-2.6,2.6-6.5,0.5-9.4c0,0,0-0.1-0.1-0.1c-2.1-2.9-6-3.9-9.2-2.4l-71,33.6
		c-14,6.7-26.7,16-36.8,27.8c-6.1,7.2-16.2,14.6-28.5,20.5c-23.6,11.2-46.5,12.2-51.1,2.3c-4.7-9.9,10.6-27,34.2-38.1
		c12.3-5.9,24.5-8.9,34-9.1c15.4-0.3,30.6-4.1,44.5-10.7l71.2-33.7c3.2-1.5,4.9-5.2,4-8.7c0,0,0-0.1,0-0.1c-0.9-3.4-4-5.7-7.5-5.5
		l-141.4,7c-22.4,1.1-44.4,6.6-64.4,16.8c-12.1,6.2-29.7,10.6-49.3,11.6c-37.6,1.9-68.6-9.4-69.4-25.2c-0.8-15.8,29-30.1,66.6-31.9
		c19.6-1,37.5,1.6,50.2,6.6c20.9,8.2,43.4,11.4,65.7,10.3l141.3-7c3.5-0.2,6.4-2.8,7-6.2c0-0.1,0-0.1,0-0.1c0.6-3.6-1.4-7-4.8-8.2
		l-74.2-26.5c-14.8-5.3-30.5-7.2-46.2-6.2c-9.3,0.6-21.4-1.3-33.9-5.7c-24.6-8.8-41.5-24.2-37.8-34.5c3.7-10.3,26.6-11.6,51.1-2.8
		c12.8,4.6,23.6,11,30.4,17.6c11.2,10.8,24.7,18.8,39.4,24.1l73.9,26.4c3.4,1.2,7.2-0.2,9-3.3l0.1-0.1c1.8-3,1.1-6.9-1.5-9.2
		L452,453.6c-16.8-15.2-36.7-26.4-58.2-33.7c-12.8-4.4-27.8-13.5-42-26.3c-27.9-25.2-41.9-55.2-31.3-66.9
		c10.6-11.7,41.8-0.7,69.7,24.5c14.6,13.2,25.4,27.7,30.8,40.2c9,20.6,22.6,38.7,39.2,53.8l104.9,95c2.6,2.4,6.5,2.6,9.3,0.5
		c0,0,0.1-0.1,0.1-0.1c2.9-2.1,3.9-6,2.4-9.2l-33.6-70.9c-6.7-14.1-16.2-26.8-28-36.9c-7.1-6.1-14.5-16.1-20.3-28.4
		c-11.2-23.6-12.2-46.5-2.3-51.1c9.9-4.7,27,10.6,38.1,34.2c5.7,12,8.7,23.8,9.1,33.1c0.5,15.7,4,31.2,10.7,45.4l33.7,71.2
		c1.5,3.2,5.2,4.9,8.7,4c0.1,0,0.1,0,0.1,0c3.4-0.9,5.7-4.1,5.5-7.6l-7-141.3c-1.1-22.4-6.6-44.4-16.8-64.4
		c-6.2-12.1-10.6-29.7-11.6-49.3c-1.9-37.6,9.4-68.6,25.2-69.4c15.8-0.8,30.1,29,31.9,66.6c1,19.6-1.6,37.5-6.6,50.2
		c-8.2,20.9-11.4,43.4-10.3,65.8l7,141.4c0.2,3.5,2.8,6.4,6.2,7c0.4,0.1,0.7,0.2,1.7-0.1c3.4-0.8,6.1-3.3,7.3-6.6l25.8-72.4
		c5.3-14.8,7.2-30.5,6.2-46.2c-0.6-9.3,1.3-21.4,5.7-33.9c8.8-24.5,24.2-41.5,34.5-37.8c10.3,3.7,11.6,26.6,2.8,51.1
		c-4.6,12.8-11,23.6-17.5,30.4c-10.8,11.2-18.8,24.7-24.1,39.4l-26.4,73.9c-1.2,3.4,0.2,7.2,3.3,9c0,0,0.1,0,0.1,0
		c3,1.8,6.9,1.2,9.2-1.4l95-104.9c15-16.6,26.8-36.1,33.7-57.4c4.2-13,13.5-28.4,26.7-43c25.2-27.9,55.2-41.9,66.9-31.3
		c11.7,10.6,0.7,41.8-24.5,69.7c-12.8,14.2-26.9,24.8-39.1,30.4c-20.6,9.4-39.4,22.5-54.6,39.3L654.2,544c-2.4,2.6-2.6,6.5-0.5,9.3
		c0,0,0.1,0.1,0.1,0.1c2.1,2.9,6,3.9,9.2,2.4l70.9-33.6c14.1-6.7,26.8-16.2,36.9-28c6.1-7.1,16.1-14.5,28.4-20.3
		c23.6-11.2,46.5-12.2,51.1-2.3c4.7,9.9-10.6,26.9-34.2,38.1c-12,5.7-23.8,8.7-33.1,9.1c-15.7,0.6-31.2,4-45.4,10.7l-71.2,33.7
		c-3.2,1.5-4.9,5.2-4,8.7c0,0,0,0.1,0,0.1c0.9,3.4,4,5.7,7.5,5.5l141.3-7c22.4-1.1,44.4-6.6,64.4-16.8c12.1-6.2,29.7-10.6,49.3-11.6
		C962.7,540.2,993.8,551.5,994.5,567.3z"/>
</g>
</svg>
