<?xml version="1.0" encoding="utf-8"?>
<!-- Generator: Adobe Illustrator 26.3.1, SVG Export Plug-In . SVG Version: 6.00 Build 0)  -->
<svg version="1.1" id="Layer_1" xmlns="http://www.w3.org/2000/svg" xmlns:xlink="http://www.w3.org/1999/xlink" x="0px" y="0px"
	 viewBox="0 0 572 146" style="enable-background:new 0 0 572 146;" xml:space="preserve">
<style type="text/css">
	.st0{fill:#22225C;}
	.st1{fill:#1B1950;}
	.st2{fill:#EEAE1E;}
</style>
<g>
	<path class="st0" d="M197.6,61.9c-4.9,0-8.7,1.5-11.3,4.5c-2.6,3-3.9,7.3-3.9,12.8c0,5.6,1.5,9.9,4.4,12.9c2.9,3,6.8,4.5,11.8,4.5
		c2.6,0,4.8-0.4,6.7-1.1c1.8-0.7,3.6-1.5,5.2-2.4c1.1,0.9,1.9,2,2.5,3.2s0.9,2.7,0.9,4.4c0,2.6-1.5,4.8-4.4,6.7
		c-2.9,1.8-7.3,2.7-13.3,2.7c-4.3,0-8.3-0.6-12.1-1.8c-3.8-1.2-7.1-3.1-9.9-5.6s-5-5.7-6.7-9.6c-1.6-3.9-2.4-8.5-2.4-13.9
		c0-5,0.8-9.4,2.4-13.2c1.6-3.8,3.7-7,6.4-9.6c2.7-2.6,5.9-4.6,9.6-6c3.6-1.3,7.5-2,11.7-2c5.9,0,10.4,1,13.7,2.9
		c3.2,1.9,4.8,4.4,4.8,7.4c0,1.7-0.4,3.1-1.2,4.3s-1.8,2.2-2.9,2.9c-1.7-1.1-3.4-2-5.3-2.8C202.3,62.3,200.1,61.9,197.6,61.9z"/>
	<path class="st0" d="M274.3,86.9c0,3.5-0.6,6.6-1.8,9.5c-1.2,2.8-2.9,5.3-5.1,7.3c-2.2,2-5,3.6-8.2,4.7c-3.2,1.1-6.8,1.6-10.8,1.6
		s-7.6-0.5-10.8-1.6s-5.9-2.6-8.2-4.7c-2.2-2-4-4.4-5.1-7.3c-1.2-2.8-1.8-6-1.8-9.5V50.2c0.7-0.1,1.8-0.3,3.4-0.5
		c1.5-0.2,3-0.3,4.4-0.3c1.5,0,2.8,0.1,3.9,0.3c1.1,0.2,2.1,0.6,2.8,1.2c0.7,0.6,1.3,1.4,1.7,2.4s0.6,2.4,0.6,4v29.3
		c0,3.1,0.8,5.5,2.5,7.2s3.9,2.6,6.6,2.6c2.8,0,5-0.9,6.6-2.6c1.7-1.7,2.5-4.1,2.5-7.2V50.2c0.7-0.1,1.8-0.3,3.4-0.5
		c1.5-0.2,3-0.3,4.4-0.3c1.5,0,2.8,0.1,3.9,0.3s2.1,0.6,2.8,1.2c0.8,0.6,1.3,1.4,1.7,2.4s0.6,2.4,0.6,4L274.3,86.9L274.3,86.9z"/>
	<path class="st0" d="M327.4,50.2c0.4,0.7,0.8,1.6,1.2,2.8s0.5,2.4,0.5,3.7c0,2.5-0.5,4.3-1.6,5.3c-1.1,1.1-2.5,1.6-4.3,1.6H303
		v10.8h21c0.5,0.7,0.9,1.6,1.3,2.8c0.4,1.2,0.5,2.4,0.5,3.6c0,2.4-0.5,4.2-1.6,5.2s-2.5,1.6-4.3,1.6h-16.8v20.3
		c-0.7,0.2-1.8,0.4-3.3,0.6s-3,0.3-4.5,0.3s-2.8-0.1-3.9-0.3c-1.1-0.2-2.1-0.6-2.8-1.2c-0.8-0.6-1.3-1.4-1.7-2.4s-0.6-2.4-0.6-4
		V59.1c0-2.8,0.8-4.9,2.4-6.5c1.6-1.6,3.8-2.4,6.5-2.4H327.4z"/>
	<path class="st0" d="M335.1,48.8c0-2.4,0.8-4.5,2.4-6.1c1.6-1.7,3.8-2.5,6.5-2.5s4.8,0.8,6.5,2.5c1.6,1.7,2.4,3.7,2.4,6.1
		c0,2.4-0.8,4.5-2.4,6.1c-1.6,1.7-3.8,2.5-6.5,2.5s-4.8-0.8-6.5-2.5C335.9,53.2,335.1,51.2,335.1,48.8z M352.2,108.3
		c-0.7,0.1-1.7,0.3-3.1,0.5s-2.8,0.3-4.2,0.3c-1.4,0-2.7-0.1-3.8-0.3c-1.1-0.2-2.1-0.6-2.8-1.2c-0.8-0.6-1.4-1.4-1.8-2.4
		c-0.4-1-0.6-2.3-0.6-3.9V62.4c0.7-0.1,1.7-0.3,3.1-0.5s2.8-0.3,4.2-0.3c1.4,0,2.7,0.1,3.8,0.3c1.1,0.2,2.1,0.6,2.8,1.2
		c0.8,0.6,1.4,1.4,1.8,2.4s0.6,2.3,0.6,3.9L352.2,108.3L352.2,108.3z"/>
	<path class="st0" d="M392.1,78.8c0-2-0.6-3.4-1.7-4.4c-1.1-0.9-2.6-1.4-4.6-1.4c-1.3,0-2.5,0.2-3.8,0.5c-1.2,0.3-2.3,0.8-3.2,1.4
		v33.3c-0.6,0.2-1.6,0.4-3,0.6s-2.8,0.3-4.3,0.3c-1.4,0-2.7-0.1-3.8-0.3c-1.1-0.2-2.1-0.6-2.8-1.2c-0.8-0.6-1.4-1.4-1.8-2.4
		s-0.6-2.3-0.6-3.9V72.7c0-1.7,0.4-3.1,1.1-4.2c0.7-1.1,1.7-2.1,3-3c2.2-1.5,4.9-2.8,8.2-3.7c3.3-1,7-1.4,11-1.4
		c7.2,0,12.8,1.6,16.7,4.8c3.9,3.2,5.9,7.6,5.9,13.2v30c-0.6,0.2-1.6,0.4-3,0.6s-2.8,0.3-4.3,0.3c-1.4,0-2.7-0.1-3.8-0.3
		c-1.1-0.2-2.1-0.6-2.8-1.2s-1.4-1.4-1.8-2.4s-0.6-2.3-0.6-3.9L392.1,78.8L392.1,78.8z"/>
	<path class="st0" d="M416.5,85c0-4.2,0.6-7.9,1.9-11s3.1-5.7,5.3-7.7c2.3-2,4.9-3.6,8-4.6c3-1,6.3-1.5,9.8-1.5
		c1.3,0,2.5,0.1,3.7,0.3s2.2,0.5,3,0.8V45.9c0.6-0.2,1.7-0.4,3.1-0.6s2.8-0.3,4.3-0.3c1.4,0,2.7,0.1,3.8,0.3
		c1.1,0.2,2.1,0.6,2.8,1.2c0.7,0.6,1.3,1.4,1.7,2.4c0.4,1,0.6,2.3,0.6,3.9v45.5c0,3-1.4,5.4-4.2,7.2c-1.9,1.2-4.3,2.3-7.2,3.2
		c-2.9,0.9-6.3,1.4-10.2,1.4c-4.2,0-7.9-0.6-11.2-1.7c-3.3-1.2-6.1-2.8-8.4-5s-4-4.8-5.2-7.8C417.1,92.3,416.5,88.9,416.5,85z
		 M443.7,73c-3.5,0-6.1,1-8,3s-2.8,5-2.8,9s0.9,7,2.6,9s4.2,3,7.5,3c1.2,0,2.2-0.2,3.1-0.5c0.9-0.4,1.6-0.8,2.2-1.2V74.2
		C447.1,73.4,445.5,73,443.7,73z"/>
	<path class="st0" d="M499.4,109.9c-3.8,0-7.3-0.5-10.5-1.6s-6-2.6-8.4-4.8c-2.4-2.1-4.3-4.8-5.7-8c-1.4-3.2-2.1-6.9-2.1-11.2
		c0-4.2,0.7-7.9,2.1-10.9c1.4-3,3.2-5.5,5.4-7.5c2.2-2,4.8-3.4,7.7-4.3c2.9-0.9,5.8-1.4,8.8-1.4c3.4,0,6.5,0.5,9.3,1.5
		s5.2,2.4,7.2,4.2c2,1.8,3.6,3.9,4.7,6.4c1.1,2.5,1.7,5.2,1.7,8.2c0,2.2-0.6,3.8-1.8,5c-1.2,1.2-2.9,1.9-5.1,2.2L489,91.3
		c0.7,2.1,2.1,3.7,4.3,4.8c2.2,1.1,4.7,1.6,7.5,1.6c2.6,0,5.1-0.3,7.4-1s4.2-1.5,5.7-2.4c1,0.6,1.9,1.5,2.6,2.7s1.1,2.4,1.1,3.6
		c0,2.9-1.3,5-4,6.4c-2,1.1-4.4,1.8-6.9,2.2C504,109.7,501.6,109.9,499.4,109.9z M496.7,72.2c-1.5,0-2.9,0.3-4,0.8s-2,1.2-2.7,2
		c-0.7,0.8-1.2,1.7-1.6,2.7s-0.6,2-0.6,3l16.4-2.7c-0.2-1.3-0.9-2.6-2.1-3.8C500.9,72.8,499.1,72.2,496.7,72.2z"/>
	<path class="st0" d="M543.8,108.3c-0.6,0.2-1.6,0.4-3,0.6c-1.4,0.2-2.8,0.3-4.3,0.3c-1.4,0-2.7-0.1-3.8-0.3
		c-1.1-0.2-2.1-0.6-2.8-1.2c-0.8-0.6-1.4-1.4-1.8-2.4c-0.4-1-0.6-2.3-0.6-3.9V72.7c0-1.5,0.3-2.7,0.8-3.8s1.3-2,2.4-2.8
		c1-0.8,2.3-1.6,3.8-2.3c1.5-0.7,3.1-1.3,4.8-1.8c1.7-0.5,3.5-0.9,5.4-1.2c1.9-0.3,3.7-0.4,5.6-0.4c3.1,0,5.5,0.6,7.3,1.8
		s2.7,3.1,2.7,5.8c0,0.9-0.1,1.8-0.4,2.6c-0.3,0.9-0.6,1.6-1,2.4c-1.3,0-2.7,0.1-4.1,0.2c-1.4,0.1-2.8,0.3-4.1,0.6
		c-1.3,0.3-2.6,0.5-3.8,0.8c-1.2,0.3-2.2,0.6-3,1v32.7H543.8z"/>
	<path class="st0" d="M408.4,108c0.8,0.4,1.8,0.7,3,1s2.4,0.6,3.8,0.8c1.3,0.3,2.7,0.4,4.1,0.6c1.4,0.1,2.8,0.2,4.1,0.2
		c0.4,0.7,0.7,1.5,1,2.4s0.4,1.7,0.4,2.6c0,2.7-0.9,4.6-2.7,5.8c-1.8,1.2-4.2,1.8-7.3,1.8c-1.9,0-3.7-0.1-5.6-0.4s-3.6-0.7-5.4-1.2
		c-1.7-0.5-3.3-1.1-4.8-1.8c-1.5-0.7-2.8-1.4-3.8-2.3c-1-0.8-1.8-1.8-2.4-2.8c-0.5-1.1-0.8-2.3-0.8-3.8V82.1c0-1.6,0.2-2.9,0.6-3.9
		s1-1.8,1.8-2.4c0.8-0.6,1.7-1,2.8-1.2c1.1-0.2,2.4-0.3,3.8-0.3c1.5,0,2.9,0.1,4.3,0.3c1.4,0.2,2.4,0.4,3,0.6V108H408.4z"/>
</g>
<g>
	<path class="st1" d="M155,73c0,40.3-32.7,73-73,73c-3.4,0-6.8-0.2-10.1-0.7c-1.4-0.2-2.7-0.4-4-0.7C34.3,138,9,108.4,9,73
		C9,32.7,41.7,0,82,0S155,32.7,155,73z"/>
	<path class="st2" d="M129.4,68.7c0.1,1.9-3.5,3.6-8.1,3.9c-2.4,0.1-4.5-0.2-6.1-0.8c-2.5-1-5.2-1.4-8-1.3l-17.1,0.9
		c-0.4,0-0.8,0.3-0.8,0.8c0,0,0,0,0,0c-0.1,0.4,0.2,0.8,0.6,1l9,3.2c1.8,0.6,3.6,0.9,5.5,0.8c1.1-0.1,2.6,0.1,4.2,0.7
		c3,1.1,5,2.9,4.6,4.2c-0.4,1.2-3.2,1.4-6.2,0.3c-1.6-0.6-2.9-1.3-3.7-2.1c-1.4-1.3-3-2.3-4.8-2.9L89.6,74c-0.4-0.1-0.9,0-1.1,0.4
		c0,0,0,0,0,0c-0.2,0.4-0.1,0.8,0.2,1.1l12.7,11.5c2,1.8,4.4,3.2,7,4.1c1.6,0.5,3.4,1.6,5.2,3.2c3.4,3.1,5.1,6.7,3.8,8.1
		c-1.3,1.4-5.1,0.1-8.4-3c-1.8-1.6-3.1-3.4-3.7-4.9c-1.1-2.5-2.7-4.7-4.7-6.5L87.7,76.6c-0.3-0.3-0.8-0.3-1.1-0.1c0,0,0,0,0,0
		c-0.4,0.3-0.5,0.7-0.3,1.1l4.1,8.6c0.8,1.7,1.9,3.2,3.4,4.5c0.9,0.7,1.8,2,2.5,3.5c1.4,2.9,1.5,5.6,0.3,6.2
		c-1.2,0.6-3.3-1.3-4.6-4.1c-0.7-1.5-1.1-3-1.1-4.1c0-1.9-0.5-3.7-1.3-5.4L85.3,78c-0.1-0.3-0.5-0.5-0.8-0.4c0,0-0.1,0-0.1,0
		c-0.3,0.1-0.5,0.4-0.5,0.7c1.5,22.8-4.7,47-12,66.9c-1.4-0.2-2.7-0.4-4-0.7C80.7,115,82,89,81.9,78.4c0-0.3-0.2-0.6-0.6-0.7
		c0,0,0,0,0,0c-0.3-0.1-0.7,0.1-0.8,0.5l-3.3,9.1c-0.6,1.8-0.9,3.6-0.8,5.5c0.1,1.1-0.1,2.6-0.7,4.2c-1.1,3-2.9,5-4.2,4.6
		c-1.2-0.4-1.4-3.2-0.3-6.2c0.6-1.6,1.3-2.9,2.1-3.7c1.3-1.4,2.3-3,2.9-4.8l3.2-8.9c0.1-0.4,0-0.9-0.4-1.1l0,0
		c-0.4-0.2-0.8-0.1-1.1,0.2L66.5,89.8c-1.8,2-3.2,4.4-4.1,7c-0.5,1.5-1.6,3.4-3.2,5.1c-3.1,3.4-6.7,5.1-8.1,3.8
		c-1.4-1.3-0.1-5.1,3-8.4c1.6-1.7,3.3-3,4.7-3.7c2.5-1.1,4.8-2.7,6.6-4.8L77,76.1c0.3-0.3,0.3-0.8,0.1-1.1c0,0,0,0,0,0
		c-0.3-0.4-0.7-0.5-1.1-0.3l-8.6,4.1c-1.7,0.8-3.2,1.9-4.5,3.4c-0.7,0.9-2,1.8-3.5,2.5c-2.9,1.4-5.6,1.5-6.2,0.3
		c-0.6-1.2,1.3-3.3,4.1-4.6c1.5-0.7,3-1.1,4.1-1.1c1.9,0,3.7-0.5,5.4-1.3l8.6-4.1c0.4-0.2,0.6-0.6,0.5-1c0,0,0,0,0,0
		c-0.1-0.4-0.5-0.7-0.9-0.7l-17.1,0.9c-2.7,0.1-5.4,0.8-7.8,2c-1.5,0.8-3.6,1.3-6,1.4c-4.5,0.2-8.3-1.1-8.4-3
		c-0.1-1.9,3.5-3.6,8.1-3.9c2.4-0.1,4.5,0.2,6.1,0.8c2.5,1,5.2,1.4,8,1.2L75,70.7c0.4,0,0.8-0.3,0.8-0.8c0,0,0,0,0,0
		c0.1-0.4-0.2-0.8-0.6-1l-9-3.2c-1.8-0.6-3.7-0.9-5.6-0.7c-1.1,0.1-2.6-0.2-4.1-0.7c-3-1.1-5-2.9-4.6-4.2c0.4-1.2,3.2-1.4,6.2-0.3
		c1.6,0.6,2.9,1.3,3.7,2.1c1.4,1.3,3,2.3,4.8,2.9l8.9,3.2c0.4,0.1,0.9,0,1.1-0.4l0,0c0.2-0.4,0.1-0.8-0.2-1.1L63.8,54.9
		c-2-1.8-4.4-3.2-7-4.1c-1.5-0.5-3.4-1.6-5.1-3.2c-3.4-3.1-5.1-6.7-3.8-8.1c1.3-1.4,5.1-0.1,8.4,3c1.8,1.6,3.1,3.4,3.7,4.9
		c1.1,2.5,2.7,4.7,4.7,6.5l12.7,11.5c0.3,0.3,0.8,0.3,1.1,0.1c0,0,0,0,0,0c0.4-0.3,0.5-0.7,0.3-1.1l-4.1-8.6c-0.8-1.7-2-3.2-3.4-4.5
		c-0.9-0.7-1.8-2-2.5-3.4c-1.4-2.9-1.5-5.6-0.3-6.2c1.2-0.6,3.3,1.3,4.6,4.1c0.7,1.5,1.1,2.9,1.1,4c0.1,1.9,0.5,3.8,1.3,5.5l4.1,8.6
		c0.2,0.4,0.6,0.6,1,0.5c0,0,0,0,0,0c0.4-0.1,0.7-0.5,0.7-0.9l-0.9-17.1c-0.1-2.7-0.8-5.4-2-7.8c-0.8-1.5-1.3-3.6-1.4-6
		c-0.2-4.5,1.1-8.3,3-8.4c1.9-0.1,3.6,3.5,3.9,8.1c0.1,2.4-0.2,4.5-0.8,6.1c-1,2.5-1.4,5.2-1.2,8l0.9,17.1c0,0.4,0.3,0.8,0.8,0.8
		c0,0,0.1,0,0.2,0c0.4-0.1,0.7-0.4,0.9-0.8l3.1-8.8c0.6-1.8,0.9-3.7,0.7-5.6c-0.1-1.1,0.2-2.6,0.7-4.1c1.1-3,2.9-5,4.2-4.6
		c1.2,0.4,1.4,3.2,0.3,6.2c-0.6,1.6-1.3,2.9-2.1,3.7c-1.3,1.4-2.3,3-2.9,4.8l-3.2,9c-0.1,0.4,0,0.9,0.4,1.1c0,0,0,0,0,0
		c0.4,0.2,0.8,0.1,1.1-0.2l11.5-12.7c1.8-2,3.2-4.4,4.1-7c0.5-1.6,1.6-3.4,3.2-5.2c3.1-3.4,6.7-5.1,8.1-3.8c1.4,1.3,0.1,5.1-3,8.4
		c-1.6,1.7-3.3,3-4.7,3.7c-2.5,1.1-4.8,2.7-6.6,4.8L88.2,65.9c-0.3,0.3-0.3,0.8-0.1,1.1c0,0,0,0,0,0c0.3,0.4,0.7,0.5,1.1,0.3
		l8.6-4.1c1.7-0.8,3.2-2,4.5-3.4c0.7-0.9,2-1.8,3.4-2.5c2.9-1.4,5.6-1.5,6.2-0.3c0.6,1.2-1.3,3.3-4.1,4.6c-1.5,0.7-2.9,1.1-4,1.1
		c-1.9,0.1-3.8,0.5-5.5,1.3l-8.6,4.1c-0.4,0.2-0.6,0.6-0.5,1c0,0,0,0,0,0c0.1,0.4,0.5,0.7,0.9,0.7l17.1-0.9c2.7-0.1,5.4-0.8,7.8-2
		c1.5-0.8,3.6-1.3,6-1.4C125.6,65.4,129.3,66.8,129.4,68.7z"/>
</g>
</svg>
