<svg xmlns="http://www.w3.org/2000/svg" viewBox="0 0 2500 2500"><defs><style>.cls-1,.cls-4,.cls-8{fill:#fff;}.cls-1{stroke:#fff;}.cls-1,.cls-2,.cls-3,.cls-4,.cls-5,.cls-6,.cls-7,.cls-8{stroke-miterlimit:10;}.cls-2,.cls-6{fill:#f0ae00;}.cls-2,.cls-3,.cls-8{stroke:#000;}.cls-4,.cls-5,.cls-6,.cls-7{stroke:#1e84fe;}.cls-7{fill:#1e84fe;}</style></defs><g id="Background"><rect class="cls-1" width="2500" height="2500"/></g><g id="Illustration"><g id="Workplace_culture" data-name="Workplace culture"><path class="cls-2" d="M950.41,527.53l6.52,23,26.1-1.4a99.58,99.58,0,0,0,8.51,14.34L977.9,585.76l17.15,16.7L1017,588.19a100.79,100.79,0,0,0,14.53,8.12l-.68,26.14,23.2,5.88,11.82-23.28a98,98,0,0,0,16.68-.26l12.47,23,23-6.51-1.4-26.11a98.67,98.67,0,0,0,14.34-8.51l22.26,13.65,16.69-17.16-14.27-21.91a100,100,0,0,0,8.13-14.54l26.14.69,5.88-23.21-23.28-11.82a97.88,97.88,0,0,0-.26-16.67l23-12.48-6.51-23-26.11,1.4a98.67,98.67,0,0,0-8.51-14.34L1167.74,425l-17.15-16.69-21.91,14.27a100,100,0,0,0-14.54-8.13l.69-26.14-23.21-5.88-11.82,23.28a100,100,0,0,0-16.67.26l-12.48-23-23,6.51,1.4,26.1a99.58,99.58,0,0,0-14.34,8.51l-22.26-13.64-16.69,17.15L990,449.51A99.9,99.9,0,0,0,981.87,464l-26.14-.68-5.88,23.2,23.28,11.82a100.1,100.1,0,0,0,.26,16.68Zm105.65-81.46a61.61,61.61,0,1,1-42.53,76.06A61.6,61.6,0,0,1,1056.06,446.07Z"/><path class="cls-3" d="M1054,630.56a2.13,2.13,0,0,1-.55-.07l-23.2-5.88a2.21,2.21,0,0,1-1.68-2.21l.65-24.68a102.45,102.45,0,0,1-12.28-6.87l-20.69,13.47a2.22,2.22,0,0,1-2.77-.27l-17.15-16.69a2.23,2.23,0,0,1-.35-2.76l12.88-21a101.64,101.64,0,0,1-7.19-12.13l-24.64,1.33a2.26,2.26,0,0,1-2.27-1.62l-6.51-23a2.24,2.24,0,0,1,1.08-2.57L971,513.8a100.66,100.66,0,0,1-.22-14.09l-22-11.16a2.26,2.26,0,0,1-1.15-2.54l5.88-23.2a2.3,2.3,0,0,1,2.22-1.68l24.67.65a104.78,104.78,0,0,1,6.87-12.29l-13.47-20.68a2.24,2.24,0,0,1,.27-2.77l16.69-17.15a2.23,2.23,0,0,1,2.76-.35l21,12.88a102.05,102.05,0,0,1,12.12-7.19l-1.32-24.64a2.23,2.23,0,0,1,1.61-2.27l23-6.51a2.24,2.24,0,0,1,2.56,1.08l11.77,21.69a102.38,102.38,0,0,1,14.1-.22l11.16-22a2.24,2.24,0,0,1,2.53-1.15l23.2,5.88a2.23,2.23,0,0,1,1.68,2.22l-.64,24.67a105.47,105.47,0,0,1,12.28,6.87l20.68-13.47a2.23,2.23,0,0,1,2.77.27l17.16,16.69a2.23,2.23,0,0,1,.34,2.76l-12.87,21a102.05,102.05,0,0,1,7.19,12.12l24.64-1.32a2.23,2.23,0,0,1,2.26,1.61l6.51,23a2.22,2.22,0,0,1-1.08,2.56l-21.69,11.77a102.39,102.39,0,0,1,.23,14.1l22,11.16a2.22,2.22,0,0,1,1.15,2.53l-5.88,23.2a2.27,2.27,0,0,1-2.22,1.68l-24.67-.64a104,104,0,0,1-6.87,12.28l13.47,20.68a2.22,2.22,0,0,1-.27,2.77l-16.69,17.16a2.23,2.23,0,0,1-2.76.34l-21-12.87a103,103,0,0,1-12.13,7.19l1.33,24.64a2.23,2.23,0,0,1-1.62,2.26l-23,6.51a2.22,2.22,0,0,1-2.57-1.08l-11.77-21.68a102.21,102.21,0,0,1-14.09.22l-11.16,22A2.24,2.24,0,0,1,1054,630.56Zm-20.93-9.83,19.75,5,11-21.7a2.25,2.25,0,0,1,2.14-1.21,97.75,97.75,0,0,0,16.3-.25,2.21,2.21,0,0,1,2.17,1.15l11.63,21.41,19.6-5.54-1.3-24.33a2.22,2.22,0,0,1,1.25-2.12,98.82,98.82,0,0,0,14-8.32,2.24,2.24,0,0,1,2.46-.09l20.74,12.72,14.21-14.61-13.3-20.42a2.22,2.22,0,0,1,0-2.46,99.39,99.39,0,0,0,8-14.21,2.24,2.24,0,0,1,2.08-1.3l24.36.63,5-19.75-21.7-11a2.23,2.23,0,0,1-1.21-2.14,97.75,97.75,0,0,0-.25-16.3,2.22,2.22,0,0,1,1.15-2.18l21.41-11.62-5.54-19.61-24.33,1.31a2.24,2.24,0,0,1-2.12-1.25,97.17,97.17,0,0,0-8.32-14,2.24,2.24,0,0,1-.09-2.46l12.72-20.75-14.61-14.2-20.42,13.3a2.24,2.24,0,0,1-2.46,0,97.9,97.9,0,0,0-14.21-7.95,2.23,2.23,0,0,1-1.31-2.09l.64-24.36-19.75-5-11,21.69a2.22,2.22,0,0,1-2.15,1.21,97.8,97.8,0,0,0-16.3.26,2.23,2.23,0,0,1-2.17-1.16l-11.63-21.41-19.6,5.55,1.31,24.32a2.24,2.24,0,0,1-1.25,2.12,97.54,97.54,0,0,0-14,8.32,2.23,2.23,0,0,1-2.46.09l-20.75-12.71-14.2,14.6,13.29,20.42a2.22,2.22,0,0,1,0,2.46,98.43,98.43,0,0,0-8,14.21,2.23,2.23,0,0,1-2.09,1.31l-24.36-.64-5,19.75,21.69,11a2.2,2.2,0,0,1,1.21,2.14,96.7,96.7,0,0,0,.26,16.3,2.25,2.25,0,0,1-1.16,2.18L953,528.64l5.54,19.6,24.33-1.3a2.21,2.21,0,0,1,2.12,1.25,97.72,97.72,0,0,0,8.32,14,2.22,2.22,0,0,1,.09,2.46l-12.71,20.74,14.6,14.21,20.42-13.3a2.22,2.22,0,0,1,2.46,0,98.42,98.42,0,0,0,14.22,7.95,2.23,2.23,0,0,1,1.3,2.08Zm39.64-51.5a64,64,0,1,1,17.46-2.43A63.6,63.6,0,0,1,1072.73,569.23Zm-16.07-121a59.4,59.4,0,1,0,45.15,5.32A59,59,0,0,0,1056.66,448.21Zm-.6-2.14h0Z"/><path class="cls-2" d="M569.65,769.81l11.15,39.41,44.67-2.4A168.86,168.86,0,0,0,640,831.37l-23.35,38.09L646,898l37.5-24.42a171.57,171.57,0,0,0,24.87,13.91l-1.17,44.73,39.7,10.06,20.23-39.84a169.29,169.29,0,0,0,28.54-.44l21.34,39.32,39.41-11.15-2.39-44.67A168.65,168.65,0,0,0,878.6,871l38.1,23.35L945.26,865l-24.42-37.49a172.21,172.21,0,0,0,13.91-24.88l44.73,1.17,10.06-39.7L949.7,743.82a169.29,169.29,0,0,0-.44-28.54l39.32-21.34-11.15-39.41-44.67,2.4a168.76,168.76,0,0,0-14.56-24.54l23.35-38.1-29.36-28.56L874.7,590.15a172.21,172.21,0,0,0-24.88-13.91L851,531.51l-39.7-10.06-20.23,39.84a169.15,169.15,0,0,0-28.53.44l-21.35-39.31-39.41,11.14,2.4,44.67a169.66,169.66,0,0,0-24.54,14.56l-38.1-23.34L613,598.8l24.42,37.49a172.21,172.21,0,0,0-13.91,24.88L578.75,660l-10.06,39.7,39.84,20.24a169.19,169.19,0,0,0,.44,28.53ZM750.43,630.42a105.44,105.44,0,1,1-72.77,130.14A105.44,105.44,0,0,1,750.43,630.42Z"/><path class="cls-3" d="M746.94,944.53a2.13,2.13,0,0,1-.55-.07l-39.7-10.06a2.22,2.22,0,0,1-1.68-2.22l1.14-43.26a174.59,174.59,0,0,1-22.63-12.65l-36.26,23.62a2.23,2.23,0,0,1-2.77-.27l-29.36-28.56a2.23,2.23,0,0,1-.34-2.76l22.57-36.85a171.94,171.94,0,0,1-13.24-22.32l-43.2,2.32a2.24,2.24,0,0,1-2.27-1.62l-11.14-39.41a2.25,2.25,0,0,1,1.08-2.57l38-20.64a173.4,173.4,0,0,1-.4-26l-38.53-19.57a2.25,2.25,0,0,1-1.15-2.53l10.06-39.71a2.19,2.19,0,0,1,2.22-1.68l43.26,1.14a174.59,174.59,0,0,1,12.65-22.63L611.11,600a2.22,2.22,0,0,1,.27-2.77l28.56-29.36a2.23,2.23,0,0,1,2.76-.34l36.84,22.58a170.88,170.88,0,0,1,22.32-13.25l-2.32-43.2a2.25,2.25,0,0,1,1.62-2.27l39.41-11.14a2.25,2.25,0,0,1,2.57,1.08l20.64,38a173.51,173.51,0,0,1,26-.4l19.56-38.53a2.25,2.25,0,0,1,2.54-1.15l39.7,10.06a2.23,2.23,0,0,1,1.68,2.22l-1.13,43.26a175.14,175.14,0,0,1,22.62,12.65L911,563.87a2.21,2.21,0,0,1,2.76.27L943.1,592.7a2.23,2.23,0,0,1,.35,2.76L920.87,632.3a171.4,171.4,0,0,1,13.24,22.33l43.2-2.33a2.26,2.26,0,0,1,2.27,1.62l11.14,39.42a2.22,2.22,0,0,1-1.08,2.56l-38,20.64a172.18,172.18,0,0,1,.4,26l38.53,19.56a2.25,2.25,0,0,1,1.15,2.54l-10.06,39.7a2.24,2.24,0,0,1-2.22,1.68l-43.26-1.13a174,174,0,0,1-12.65,22.62l23.62,36.27a2.23,2.23,0,0,1-.27,2.76L918.3,895.86a2.23,2.23,0,0,1-2.76.35l-36.85-22.58a173.29,173.29,0,0,1-22.32,13.24l2.32,43.21a2.25,2.25,0,0,1-1.62,2.26l-39.41,11.14a2.24,2.24,0,0,1-2.57-1.08l-20.64-38a172.17,172.17,0,0,1-26,.4l-19.56,38.53A2.24,2.24,0,0,1,746.94,944.53Zm-37.43-14,36.25,9.18,19.43-38.24a2.23,2.23,0,0,1,2.14-1.22,168,168,0,0,0,28.16-.43,2.19,2.19,0,0,1,2.17,1.15l20.5,37.75,36-10.17-2.3-42.9a2.23,2.23,0,0,1,1.25-2.12,167.25,167.25,0,0,0,24.22-14.37,2.24,2.24,0,0,1,2.46-.09l36.57,22.42,26.08-26.81-23.44-36a2.24,2.24,0,0,1,0-2.46,170.17,170.17,0,0,0,13.74-24.55,2.24,2.24,0,0,1,2.08-1.31l43,1.13,9.18-36.25L948.7,745.8a2.22,2.22,0,0,1-1.22-2.14,168.06,168.06,0,0,0-.43-28.16,2.2,2.2,0,0,1,1.15-2.17L986,692.83l-10.17-36-42.9,2.3a2.22,2.22,0,0,1-2.12-1.25,168,168,0,0,0-14.37-24.22,2.22,2.22,0,0,1-.09-2.46l22.42-36.57-26.81-26.08-36,23.45a2.24,2.24,0,0,1-2.46,0,168.64,168.64,0,0,0-24.55-13.73,2.21,2.21,0,0,1-1.3-2.09l1.12-42.95-36.25-9.18L793,562.3a2.21,2.21,0,0,1-2.14,1.21,167,167,0,0,0-28.16.44,2.25,2.25,0,0,1-2.17-1.16L740.07,525l-36,10.18,2.3,42.89a2.22,2.22,0,0,1-1.25,2.12,168.53,168.53,0,0,0-24.22,14.37,2.22,2.22,0,0,1-2.46.09l-36.57-22.42-26.08,26.81,23.45,36a2.24,2.24,0,0,1,0,2.46,170,170,0,0,0-13.73,24.55,2.2,2.2,0,0,1-2.09,1.31l-42.95-1.13-9.18,36.25L609.54,718a2.24,2.24,0,0,1,1.21,2.14,168,168,0,0,0,.43,28.16,2.23,2.23,0,0,1-1.15,2.18l-37.75,20.49,10.18,36,42.89-2.31a2.21,2.21,0,0,1,2.12,1.25,168.16,168.16,0,0,0,14.37,24.22,2.23,2.23,0,0,1,.09,2.46l-22.42,36.58,26.81,26.07,36-23.44a2.22,2.22,0,0,1,2.46,0,171.07,171.07,0,0,0,24.55,13.73,2.22,2.22,0,0,1,1.31,2.08Zm69.64-91a107.67,107.67,0,0,1-29.32-211.28l.6,2.15-.6-2.15a107.66,107.66,0,1,1,29.32,211.28Zm.12-210.93a103.33,103.33,0,1,0,50.22,13.17A103.47,103.47,0,0,0,779.27,628.62Z"/><rect class="cls-4" x="1569.36" y="337.23" width="525.82" height="573.43" rx="32.55"/><path class="cls-5" d="M2062.63,912.88H1601.91a34.82,34.82,0,0,1-34.78-34.78V369.78A34.82,34.82,0,0,1,1601.91,335h460.72a34.82,34.82,0,0,1,34.78,34.78V878.1A34.82,34.82,0,0,1,2062.63,912.88ZM1601.91,339.45a30.36,30.36,0,0,0-30.32,30.33V878.1a30.36,30.36,0,0,0,30.32,30.33h460.72A30.37,30.37,0,0,0,2093,878.1V369.78a30.37,30.37,0,0,0-30.33-30.33Z"/><path class="cls-5" d="M2069.73,392.87h-474.5a2.23,2.23,0,0,1,0-4.45h474.5a2.23,2.23,0,0,1,0,4.45Z"/><circle class="cls-5" cx="1603.58" cy="362.27" r="8.35"/><circle class="cls-5" cx="1636.97" cy="362.27" r="8.35"/><circle class="cls-5" cx="1670.35" cy="362.27" r="8.35"/><path class="cls-5" d="M2069.73,364.49h-47a2.23,2.23,0,1,1,0-4.45h47a2.23,2.23,0,0,1,0,4.45Z"/><path class="cls-5" d="M2001.56,364.49H1806.82a2.23,2.23,0,1,1,0-4.45h194.74a2.23,2.23,0,1,1,0,4.45Z"/><path class="cls-5" d="M1755.62,364.49h-41.45a2.23,2.23,0,1,1,0-4.45h41.45a2.23,2.23,0,1,1,0,4.45Z"/><path class="cls-4" d="M1752.5,609.21c15.17-26.54,43.4-45.29,76.2-48.68L1831,430.77c-94.22.32-177.38,53.4-215.25,131.86Z"/><path class="cls-5" d="M1752.5,611.44a2.22,2.22,0,0,1-.72-.12L1615,564.74a2.21,2.21,0,0,1-1.34-1.25,2.18,2.18,0,0,1,0-1.82c38.88-80.56,124.15-132.81,217.24-133.12a2.19,2.19,0,0,1,1.59.66,2.23,2.23,0,0,1,.64,1.6l-2.28,129.76a2.22,2.22,0,0,1-2,2.17c-31.49,3.26-59.34,21-74.5,47.57A2.23,2.23,0,0,1,1752.5,611.44Zm-133.65-50.1,132.64,45.17c15.74-26.34,43.55-44.12,75-48L1828.71,433C1739.08,434.15,1657.17,484.25,1618.85,561.34Z"/><path class="cls-5" d="M1746.06,468.27a2.23,2.23,0,0,1-.84-4.29,230.11,230.11,0,0,1,66.61-16,2.22,2.22,0,1,1,.39,4.43,226.09,226.09,0,0,0-65.33,15.66A2.22,2.22,0,0,1,1746.06,468.27Z"/><path class="cls-5" d="M1671,518.31a2.19,2.19,0,0,1-1.56-.64,2.22,2.22,0,0,1,0-3.15,221.11,221.11,0,0,1,55.36-41.06,2.23,2.23,0,1,1,2.07,3.94,216.61,216.61,0,0,0-54.25,40.24A2.26,2.26,0,0,1,1671,518.31Z"/><path class="cls-4" d="M1934.26,666.71c-7.73,42.64-46.57,76.15-94.15,77.63a101.49,101.49,0,0,1-40-6.8l-74.26,115a243.25,243.25,0,0,0,114.3,20.87c118.63-6.81,211.9-96.11,222.26-203.62Z"/><path class="cls-5" d="M1825.88,876a246.11,246.11,0,0,1-101-21.48,2.22,2.22,0,0,1-1-3.24l74.26-115a2.22,2.22,0,0,1,2.68-.86,98.93,98.93,0,0,0,39.17,6.65c45.61-1.42,84.31-33.3,92-75.8a2.27,2.27,0,0,1,2.25-1.83l128.11,3.07a2.2,2.2,0,0,1,1.61.74,2.25,2.25,0,0,1,.55,1.7c-10.64,110.49-107.09,198.89-224.34,205.63Q1833.06,876,1825.88,876Zm-96.79-24.49A242.75,242.75,0,0,0,1840,871.18c114.23-6.56,208.33-92,219.92-199.23l-123.82-3c-8.86,43.62-48.87,76.13-95.9,77.59a103.25,103.25,0,0,1-39.22-6.31Z"/><path class="cls-5" d="M1825.65,857.44A226.39,226.39,0,0,1,1753,845.66a2.23,2.23,0,0,1,1.42-4.22A222.08,222.08,0,0,0,1825.65,853c4.41,0,8.87-.13,13.27-.39a2.23,2.23,0,0,1,.26,4.45C1834.69,857.31,1830.14,857.44,1825.65,857.44Z"/><path class="cls-5" d="M1886,849.41a2.23,2.23,0,0,1-.59-4.38c77.93-21.25,138.11-83.11,153.32-157.6a2.23,2.23,0,0,1,4.37.89c-15.55,76.12-77,139.32-156.52,161A2.32,2.32,0,0,1,1886,849.41Z"/><path class="cls-4" d="M1702.56,840.43l75-115.33c-22.42-16.59-36.83-42.43-36.83-71.72a88,88,0,0,1,2.45-20.63l-137.28-46a211.39,211.39,0,0,0-11.36,68.44C1594.49,734.06,1637.78,802,1702.56,840.43Z"/><path class="cls-5" d="M1702.56,842.66a2.25,2.25,0,0,1-1.14-.31c-68.35-40.57-109.16-110.54-109.16-187.18A213.88,213.88,0,0,1,1603.74,586a2.22,2.22,0,0,1,2.81-1.39l137.29,46a2.23,2.23,0,0,1,1.45,2.63,86.26,86.26,0,0,0-2.38,20.11c0,27.54,13.09,53,35.92,69.93a2.23,2.23,0,0,1,.55,3l-75,115.33A2.24,2.24,0,0,1,1702.56,842.66Zm-95.31-253.11a209.3,209.3,0,0,0-10.53,65.62c0,74.36,39.26,142.34,105.14,182.25l72.65-111.79c-22.94-17.75-36.06-44-36.06-72.25a90.14,90.14,0,0,1,2.06-19.16Z"/><path class="cls-6" d="M1871.26,555.62c43.33,6.45,76.64,40,80.6,81.52l209.49,6.07V643c0-153.69-122.45-285.21-286.34-302.14Z"/><path class="cls-5" d="M2161.33,645.44h0l-209.5-6.07a2.24,2.24,0,0,1-2.15-2c-3.86-40.5-36.23-73.21-78.71-79.53a2.22,2.22,0,0,1-1.9-2.24l3.75-214.81a2.23,2.23,0,0,1,2.46-2.18c79.52,8.22,152.69,43.9,206,100.48,53.09,56.31,82.32,128.72,82.32,203.88a2.55,2.55,0,0,1-.67,1.73A2.42,2.42,0,0,1,2161.33,645.44ZM1953.87,635l205.25,5.95C2158.06,488.34,2037.39,361,1877.2,343.28l-3.68,210.44C1916.4,560.93,1949,594,1953.87,635Z"/><rect class="cls-4" x="1337.72" y="587.61" width="323.12" height="413.25" rx="24.47"/><path class="cls-5" d="M1636.38,1003.09H1362.19a26.72,26.72,0,0,1-26.7-26.69V612.08a26.72,26.72,0,0,1,26.7-26.69h274.19a26.72,26.72,0,0,1,26.69,26.69V976.4A26.72,26.72,0,0,1,1636.38,1003.09ZM1362.19,589.84A22.26,22.26,0,0,0,1340,612.08V976.4a22.26,22.26,0,0,0,22.24,22.24h274.19a22.27,22.27,0,0,0,22.24-22.24V612.08a22.27,22.27,0,0,0-22.24-22.24Z"/><rect class="cls-6" x="1376.13" y="705.71" width="70.39" height="231.31"/><path class="cls-5" d="M1446.52,939.25h-70.39a2.22,2.22,0,0,1-2.22-2.23V705.71a2.22,2.22,0,0,1,2.22-2.23h70.39a2.23,2.23,0,0,1,2.23,2.23V937A2.23,2.23,0,0,1,1446.52,939.25Zm-68.16-4.46h65.93V707.94h-65.93Z"/><rect class="cls-6" x="1464.09" y="641.88" width="70.39" height="295.14"/><path class="cls-5" d="M1534.47,939.25h-70.38a2.23,2.23,0,0,1-2.23-2.23V641.88a2.23,2.23,0,0,1,2.23-2.23h70.38a2.23,2.23,0,0,1,2.23,2.23V937A2.23,2.23,0,0,1,1534.47,939.25Zm-68.15-4.46h65.93V644.11h-65.93Z"/><rect class="cls-6" x="1552.04" y="799.12" width="70.39" height="137.9"/><path class="cls-5" d="M1622.43,939.25H1552a2.22,2.22,0,0,1-2.22-2.23V799.12a2.22,2.22,0,0,1,2.22-2.23h70.39a2.23,2.23,0,0,1,2.23,2.23V937A2.23,2.23,0,0,1,1622.43,939.25Zm-68.16-4.46h65.93V801.35h-65.93Z"/><polygon class="cls-4" points="1089.4 1831.54 1095.55 1890.14 1135.17 1894.78 1135.17 1825.31 1089.4 1831.54"/><path class="cls-5" d="M1135.17,1897h-.26l-39.62-4.65a2.22,2.22,0,0,1-2-2l-6.15-58.59a2.22,2.22,0,0,1,1.91-2.44l45.77-6.24a2.19,2.19,0,0,1,1.77.53,2.23,2.23,0,0,1,.76,1.68v69.47a2.23,2.23,0,0,1-2.23,2.23Zm-37.59-8.88,35.36,4.15v-64.42l-41.1,5.6Z"/><path class="cls-4" d="M1141.41,1996.79a276.84,276.84,0,0,1-75.37,0,17.71,17.71,0,0,1-14.81-21.76c7-28.45,19.06-82.41,39.75-107.41l5.15,13.56,7.1-12.77a6.27,6.27,0,0,1,4.7-3.18l15.56-2a6.29,6.29,0,0,1,6.94,5l2.48,11.77,5.42-15.45L1156.42,1977A17.66,17.66,0,0,1,1141.41,1996.79Z"/><path class="cls-5" d="M1104,2001.58a278.29,278.29,0,0,1-38.22-2.62,19.92,19.92,0,0,1-16.66-24.49l1.5-6.14c7.14-29.35,19.08-78.46,38.7-102.16a2.23,2.23,0,0,1,3.8.63l3.44,9.08,4.77-8.58a8.54,8.54,0,0,1,6.37-4.31l15.56-2a8.58,8.58,0,0,1,9.4,6.7l.83,4,2.79-7.93a2.23,2.23,0,0,1,4.3.38l18.09,112.47a20,20,0,0,1-16.9,22.39l-.31-2.2.31,2.2A272,272,0,0,1,1104,2001.58Zm-13.64-129.5c-17.57,24-28.67,69.57-35.41,97.3l-1.51,6.15a15.29,15.29,0,0,0,2.22,12.36,15.56,15.56,0,0,0,10.74,6.66,273.34,273.34,0,0,0,74.75,0,15.47,15.47,0,0,0,13.11-17.33l-16.69-103.74-2.51,7.16a2.22,2.22,0,0,1-4.28-.28l-2.48-11.76a4.08,4.08,0,0,0-4.48-3.2l-15.56,2a4.12,4.12,0,0,0-3,2.06l-7.1,12.77a2.23,2.23,0,0,1-4-.29Z"/><path class="cls-5" d="M1095.52,1982.73a151.3,151.3,0,0,1-33.38-3.53,2.23,2.23,0,1,1,1-4.34c38.82,8.84,79.48-2.53,79.89-2.65a2.23,2.23,0,1,1,1.22,4.28A194,194,0,0,1,1095.52,1982.73Z"/><path class="cls-5" d="M1086.06,1939.16a2.23,2.23,0,0,1-.08-4.46l37.14-1.22a2.25,2.25,0,0,1,2.3,2.15,2.22,2.22,0,0,1-2.15,2.3l-37.14,1.23Z"/><polygon class="cls-4" points="1274.97 1800.34 1280.91 1885.85 1328.59 1885.85 1330.8 1800.34 1274.97 1800.34"/><path class="cls-5" d="M1328.59,1888.08h-47.68a2.23,2.23,0,0,1-2.22-2.07l-5.94-85.51a2.24,2.24,0,0,1,2.22-2.38h55.83a2.24,2.24,0,0,1,1.6.67,2.2,2.2,0,0,1,.63,1.61l-2.22,85.51A2.22,2.22,0,0,1,1328.59,1888.08Zm-45.6-4.45h43.43l2.1-81.06h-51.16Z"/><path class="cls-4" d="M1268.46,1934.13a17.2,17.2,0,0,0,13.28,17c27.41,6.38,89.15,20.58,106.76,23.2,22.86,3.41,51-3.6,63-17s-27-45.29-45.61-56.9c-27.58-17.25-54.08-51.36-65.19-52.89s-31.85,30.7-31.85,30.7L1275,1864.05S1269.07,1893.1,1268.46,1934.13Z"/><path class="cls-5" d="M1400.46,1977.44a84.67,84.67,0,0,1-12.29-.88c-17.79-2.65-80.71-17.14-106.93-23.24a19.55,19.55,0,0,1-15-19.23c.61-40.76,6.5-70.19,6.56-70.49a2.21,2.21,0,0,1,1.14-1.52,2.24,2.24,0,0,1,1.91-.08l32.19,13.52c5.25-7.94,22-31.66,33-30.14,6.28.87,15.28,9.41,27.74,21.23,11.61,11,24.76,23.49,38.33,32,14.91,9.33,46.45,34,48.78,50.74a11.27,11.27,0,0,1-2.7,9.55C1443,1970.16,1421.41,1977.44,1400.46,1977.44Zm-123.8-110.27a439.6,439.6,0,0,0-6,67,15.06,15.06,0,0,0,11.57,14.82c26.17,6.09,89,20.55,106.58,23.17,22.92,3.41,49.73-3.73,61-16.26a6.9,6.9,0,0,0,1.6-5.94c-2-14.21-31.42-38-46.73-47.58-14-8.73-27.28-21.37-39-32.53-10.5-10-20.42-19.37-25.28-20-7-1-21.94,17.69-29.67,29.69a2.22,2.22,0,0,1-2.73.85Zm-8.2,67h0Z"/><path class="cls-5" d="M1400,1961.77c-49.54,0-116.15-26.91-119.91-28.45a2.22,2.22,0,0,1,1.68-4.12c1.22.5,122,49.29,157.5,17.19a2.23,2.23,0,1,1,3,3.31C1432.51,1958.49,1417.28,1961.77,1400,1961.77Z"/><path class="cls-5" d="M1347.14,1910a2.23,2.23,0,0,1-1.49-3.88l24.25-21.87a2.23,2.23,0,0,1,3,3.31l-24.25,21.87A2.21,2.21,0,0,1,1347.14,1910Z"/><path class="cls-7" d="M1075.88,1242.9s-14.77,267.31-22.5,359.59,18.08,240.61,18.08,240.61l73.59-3.87s5-180.35,10.51-230.43c0,0,31.08-67.9,40.29-128.45s40.6-156.2,40.6-156.2,25.48,477.39,27.94,514.89c0,0,57.7,2.57,78.39-10.44,0,0,36.66-174.08,31.39-268.78s.52-330,.52-330Z"/><path class="cls-4" d="M1142,1611h-22.5a2.23,2.23,0,0,1,0-4.46H1142a2.23,2.23,0,0,1,0,4.46Z"/><path class="cls-4" d="M1302.24,1749.85h0a2.23,2.23,0,0,1-2.18-2.27c.81-44.11,49.24-123.23,51.3-126.57a2.22,2.22,0,1,1,3.79,2.33c-.5.81-49.85,81.43-50.64,124.32A2.22,2.22,0,0,1,1302.24,1749.85Z"/><path class="cls-4" d="M1398,815.38c5.36-.42,31.66,53.43,113.94,51.18s148.31-94.34,148.31-94.34,28.42-47.92,50-65.25,25-19.61,25-19.61a17.57,17.57,0,0,1,0,19.61c-6.76,10.61-25.43,30.44-25.43,30.44s20.57,11.29,11.29,34.81c-10.67,27-40.73,24.87-40.73,24.87s-61,270.13-313.16,141.77Z"/><path class="cls-5" d="M1492.18,975.69c-38.29,0-80.44-11.63-126-34.85a2.22,2.22,0,0,1-1.15-2.52l30.84-123.48a2.23,2.23,0,0,1,2-1.68c2.21-.17,4,1.77,8.15,6.46,12.47,13.91,41.66,46.49,105.9,44.71,80.26-2.2,145.91-92.5,146.56-93.41,1.07-1.81,28.77-48.31,50.41-65.68,21.39-17.19,25-19.63,25.09-19.72a2.22,2.22,0,0,1,3,.51,19.64,19.64,0,0,1,.1,22.14c-5.63,8.83-19,23.59-23.91,28.85,5.43,4.06,17.86,16,10,36-9.54,24.2-34,26.24-41.06,26.31-3.84,15-33.7,121-118.71,160.9Q1530.44,975.7,1492.18,975.69Zm-122.45-38c74,37.29,138.46,43.53,191.69,18.56,89.14-41.83,116.44-158.45,116.71-159.63a2.24,2.24,0,0,1,2.33-1.73c1.16.09,28.58,1.7,38.5-23.47,8.42-21.35-9.53-31.62-10.3-32a2.23,2.23,0,0,1-.54-3.48c.18-.19,18.6-19.8,25.17-30.1a15.33,15.33,0,0,0,1.19-15.14c-2.74,2.08-9,7-22.86,18.07-21,16.88-49.19,64.17-49.47,64.64-.77,1.1-67.72,93.17-150.16,95.43-1.74.05-3.45.07-5.14.07-62.73,0-91.66-32.26-104.2-46.25-1.16-1.29-2.34-2.6-3.28-3.57Z"/><path class="cls-4" d="M990.14,938.86s24.69-159.39,111.94-198.61,205.27-33.76,237.82-14.18S1457.28,834.2,1457.28,834.2l-75,104.66s17.14,281.71,3.59,356.09c0,0-83.39,9.72-118.76-4.21s-151.67-33.44-207.26-7.9L1070,926.17Z"/><path class="cls-5" d="M1327.05,1300.52c-22.15,0-45.58-1.74-60.73-7.71-34.82-13.71-150-33.48-205.51-8a2.23,2.23,0,0,1-3.16-2.09l10-354-77.19,12.27a2.24,2.24,0,0,1-2.55-2.54c1-6.56,25.88-161,113.22-200.3,86-38.65,204.8-35.17,239.89-14.05,32.42,19.51,114.36,104.87,117.84,108.49a2.24,2.24,0,0,1,.2,2.84l-74.51,104c1,16.62,16.6,284,3.51,355.84a2.22,2.22,0,0,1-1.93,1.81A568,568,0,0,1,1327.05,1300.52Zm-191.6-32.37c52.73,0,109.67,11.53,132.5,20.52,31.75,12.5,104.2,5.5,116,4.24,12.81-75.67-3.74-351.12-3.91-353.92a2.28,2.28,0,0,1,.41-1.43l73.89-103.15c-10.75-11.14-85.89-88.52-115.64-106.43-30.63-18.43-148.47-24.93-235.76,14.3C1024.42,777.6,996.85,914,992.86,936.17l76.77-12.2a2.17,2.17,0,0,1,1.82.52,2.23,2.23,0,0,1,.76,1.74l-10,353.16C1081.93,1271.25,1108.13,1268.15,1135.45,1268.15Z"/><path class="cls-5" d="M1136.51,1211.56a2.23,2.23,0,0,1-.38-4.42c132.6-23.44,171.31-115.25,171.68-116.17a2.23,2.23,0,0,1,4.13,1.67c-.38.95-39.9,95-175,118.88A1.72,1.72,0,0,1,1136.51,1211.56Z"/><polygon class="cls-7" points="1376 1050.26 1206.23 1050.26 1259.4 860.63 1429.17 860.63 1376 1050.26"/><path class="cls-4" d="M1005.11,939.47,1091,901.06s-12.1,145.58,161.73,78.36a123.85,123.85,0,0,1-5.5-40.56c.9-21.86,14-.71,15.81,17s42.64,10.55,67.17,3.55,56.72-2.41,0,28.87-69.15,17.33-69.15,17.33-72.44,101.36-162.56,79.83C987.68,1059,1005.11,939.47,1005.11,939.47Z"/><path class="cls-5" d="M1123.68,1090.68a109.94,109.94,0,0,1-25.67-3c-58.3-13.93-81.07-53.63-89.9-84.49a167.86,167.86,0,0,1-5.21-64,2.21,2.21,0,0,1,1.3-1.71L1090.12,899a2.22,2.22,0,0,1,3.13,2.22c0,.53-4,53.39,30.67,79.28,26.79,20,69.21,19.21,126.09-2.44a126.37,126.37,0,0,1-5-39.33c.12-2.79.47-11.28,5.64-11.44h.12c6.72,0,13.31,16.87,14.49,28.36a7.55,7.55,0,0,0,3.52,5.72c10.19,6.89,39.13,2.11,60.83-4.08,11.37-3.25,30.66-5.41,34,2.63,2.83,6.86-7.73,16.79-32.29,30.33-46.47,25.64-64.14,21.61-69.76,18.47C1252.22,1020.94,1195.62,1090.68,1123.68,1090.68ZM1007.16,941a168,168,0,0,0,5.27,61.09c12.4,43.14,41.54,70.47,86.62,81.24a106,106,0,0,0,24.68,2.91c76.08,0,134.9-81,135.55-81.86a2.22,2.22,0,0,1,1.69-.93,2.19,2.19,0,0,1,1.78.74c.08.07,12.82,11.76,66.41-17.8,32.08-17.7,30.59-24.07,30.32-24.74-1.37-3.32-14.45-4.08-28.63,0-11.5,3.28-50.14,13.24-64.54,3.49a11.9,11.9,0,0,1-5.46-9c-1.33-12.91-7.87-24-10-24.37,0,.09-1.07,1.27-1.32,7.18a123.06,123.06,0,0,0,5.39,39.75,2.22,2.22,0,0,1-1.31,2.79c-59.4,23-103.92,23.85-132.33,2.59-31.53-23.59-32.94-66.58-32.6-79.51Z"/><path class="cls-7" d="M1234.45,667.61c-7.42,6.8-21.93,15.09-33.29,9.37-8.45-4.25-13.17-15.28-12.88-27.92-3.92.32-9,0-12.71-3.19-5.64-5-4.58-14.16-4.36-20.18,1-27.81-15.14-32.08-11.19-51,3.11-14.84,14.76-23.67,16.94-25.33,11-8.34,18.45-5.65,36.94-10.49,31.12-8.15,32.11-21.57,52.61-21.63,1.19,0,29.09.31,38.56,19.58,7.7,15.68-1.29,34.74-10.59,44.75-12,13-20.7,6.56-32.78,17.43C1240.48,618.13,1256.5,647.43,1234.45,667.61Z"/><path class="cls-4" d="M1296.55,618l-1.22-1.06c-6.16-5.31-12.57-11.47-14.2-19.43-7-33.86-38-46.15-39.39-15.06-.37,7.84-29,7.44-25.61,15.67,8.86,21.47,9,15.69-3.45,23.6a10.79,10.79,0,0,0-4.15,1c-6.42,3-8.69,11.7-5.08,19.45a16.64,16.64,0,0,0,10.19,9.12v33.92a31.3,31.3,0,0,1-19.46,29l-11.45,4.68s53.4,34.86,107.6-3.41l-7.24-3.25A36.48,36.48,0,0,1,1261.55,680l-.06-6.63a28.2,28.2,0,0,0,10.44-.87c15.16-4.41,20.19-21.88,17.61-43.59l6.18-3.32A4.65,4.65,0,0,0,1296.55,618Z"/><path class="cls-5" d="M1235.53,735.48a109.08,109.08,0,0,1-54-14.77,2.23,2.23,0,0,1,.37-3.93l11.46-4.68a29,29,0,0,0,18.07-26.91V652.86a19,19,0,0,1-10-9.77c-4.13-8.85-1.37-18.91,6.15-22.41a13.13,13.13,0,0,1,4.38-1.16c2.07-1.28,3.77-2.19,5.15-2.93,1.58-.84,3.07-1.64,3.11-2,.1-1-1.14-3.86-2.85-7.81-.91-2.1-2-4.65-3.31-7.78a5.14,5.14,0,0,1,.06-4.34c1.72-3.53,7.25-5.09,13.66-6.88,4.63-1.3,11.62-3.26,11.72-5.4.79-17.12,9.74-19.67,13.55-20,11-.85,25.62,12.16,30.25,34.68,1.51,7.37,7.75,13.25,13.47,18.19l1.23,1.06a6.88,6.88,0,0,1-1.24,11.28l-4.85,2.61c2.49,24-4.53,40.16-19.37,44.48a29.53,29.53,0,0,1-8.81,1.09l0,4.25A34.46,34.46,0,0,0,1284,710.15l7.24,3.25a2.23,2.23,0,0,1,.37,3.85C1272.09,731,1252.58,735.48,1235.53,735.48Zm-47.71-16.31c12.74,6.67,55,24.64,98-3.34l-3.6-1.61a39,39,0,0,1-22.85-34.12l-.06-6.68a2.19,2.19,0,0,1,.71-1.65,2.24,2.24,0,0,1,1.71-.59,25.92,25.92,0,0,0,9.62-.79c12.85-3.74,18.69-18.75,16-41.19a2.23,2.23,0,0,1,1.16-2.22l6.17-3.32a2.44,2.44,0,0,0,.44-4h0l-1.23-1.06c-6.28-5.41-13.13-11.92-14.93-20.67-4-19.5-16.44-31.84-25.53-31.13-5.57.44-9,6.17-9.45,15.73-.25,5.36-7.4,7.37-15,9.49-4.22,1.18-10,2.8-10.86,4.54-.05.1-.12.26,0,.69,1.28,3.1,2.38,5.63,3.29,7.71,4.18,9.64,5,11.65-2.25,15.55-1.42.76-3.2,1.71-5.35,3.07a2.27,2.27,0,0,1-1.1.35,8.55,8.55,0,0,0-3.3.78c-5.29,2.46-7.09,9.86-4,16.49a14.5,14.5,0,0,0,8.78,7.92,2.23,2.23,0,0,1,1.61,2.14v33.92a33.4,33.4,0,0,1-20.84,31Z"/><path class="cls-5" d="M1261.5,675.63a1.87,1.87,0,0,1-.34,0,46.42,46.42,0,0,1-32.08-20.73,2.23,2.23,0,1,1,3.86-2.22,42.7,42.7,0,0,0,28.89,18.55,2.23,2.23,0,0,1-.33,4.43Z"/><path class="cls-5" d="M537.44,969.2a21.15,21.15,0,1,1,7.9-1.55A21.1,21.1,0,0,1,537.44,969.2Zm0-37.79a16.66,16.66,0,1,0,15.48,10.43A16.61,16.61,0,0,0,537.41,931.41Z"/><path class="cls-5" d="M2093.79,1016.05a2.23,2.23,0,0,1-1.61-3.77l10.44-10.91a2.22,2.22,0,1,1,3.21,3.08l-10.43,10.91A2.23,2.23,0,0,1,2093.79,1016.05Z"/><path class="cls-5" d="M2057.26,1054.23a2.18,2.18,0,0,1-1.54-.62,2.23,2.23,0,0,1-.07-3.15l10.43-10.9a2.23,2.23,0,1,1,3.22,3.08l-10.44,10.9A2.19,2.19,0,0,1,2057.26,1054.23Z"/><path class="cls-5" d="M2067.5,1016.63a2.23,2.23,0,0,1-1.57-.64l-10.59-10.44a2.22,2.22,0,1,1,3.12-3.17l10.6,10.44a2.23,2.23,0,0,1-1.56,3.81Z"/><path class="cls-5" d="M2104.58,1053.18a2.19,2.19,0,0,1-1.56-.64l-10.6-10.44a2.23,2.23,0,0,1,3.13-3.18l10.59,10.45a2.23,2.23,0,0,1,0,3.15A2.25,2.25,0,0,1,2104.58,1053.18Z"/><path class="cls-5" d="M1337.54,379.21a2.23,2.23,0,0,1-1.61-3.77l10.44-10.91a2.23,2.23,0,0,1,3.22,3.08l-10.44,10.91A2.23,2.23,0,0,1,1337.54,379.21Z"/><path class="cls-5" d="M1301,417.39a2.18,2.18,0,0,1-1.54-.62,2.23,2.23,0,0,1-.07-3.15l10.43-10.91a2.23,2.23,0,0,1,3.22,3.08l-10.43,10.91A2.23,2.23,0,0,1,1301,417.39Z"/><path class="cls-5" d="M1311.25,379.79a2.23,2.23,0,0,1-1.57-.64l-10.59-10.44a2.23,2.23,0,1,1,3.13-3.17L1312.81,376a2.23,2.23,0,0,1-1.56,3.81Z"/><path class="cls-5" d="M1348.33,416.34a2.25,2.25,0,0,1-1.56-.64l-10.6-10.44a2.23,2.23,0,0,1,3.13-3.18l10.59,10.44a2.23,2.23,0,0,1,0,3.15A2.2,2.2,0,0,1,1348.33,416.34Z"/><polygon class="cls-4" points="1016.44 1778.46 982.62 2124.76 958.49 2123.75 970.48 1759.7 1016.44 1778.46"/><path class="cls-5" d="M982.62,2127h-.09l-24.13-1a2.22,2.22,0,0,1-2.14-2.29l12-364.06a2.26,2.26,0,0,1,1-1.79,2.2,2.2,0,0,1,2.05-.19l46,18.76a2.23,2.23,0,0,1,1.38,2.28L984.84,2125A2.23,2.23,0,0,1,982.62,2127Zm-21.83-5.37,19.82.83,33.45-342.55L972.6,1763Z"/><polygon class="cls-4" points="562.8 1766 595.81 2125.63 620.76 2123.75 608.77 1746.56 562.8 1766"/><path class="cls-5" d="M595.81,2127.85a2.23,2.23,0,0,1-2.22-2l-33-359.62a2.22,2.22,0,0,1,1.35-2.26l46-19.44a2.23,2.23,0,0,1,3.09,2l12,377.19a2.22,2.22,0,0,1-2.05,2.29l-25,1.88Zm-30.64-360.43,32.66,355.82,20.64-1.55-11.83-371.81Z"/><polygon class="cls-4" points="447.92 1681.38 457.63 2059.01 477.11 2054.79 494.98 1663.42 447.92 1681.38"/><path class="cls-5" d="M457.63,2061.24a2.23,2.23,0,0,1-2.23-2.17l-9.71-377.63a2.23,2.23,0,0,1,1.44-2.14l47.06-18a2.23,2.23,0,0,1,3,2.19l-17.86,391.36a2.23,2.23,0,0,1-1.76,2.07l-19.48,4.23A2.5,2.5,0,0,1,457.63,2061.24Zm-7.44-378.34,9.6,373.36L475,2053l17.63-386.25Z"/><polygon class="cls-4" points="828.62 1672.94 838.32 2050.56 858.57 2050.67 875.67 1654.98 828.62 1672.94"/><path class="cls-6" d="M730.8,1378v87.87c0,85.93,67.78,155.6,151.38,155.6s151.38,69.66,151.38,155.59a13.85,13.85,0,0,1-13.84,13.87H619c-125.33,0-226.94-104.44-226.94-233.26V1370.19c0-51.23,40.41-92.77,90.26-92.77h150.6C687,1277.42,730.8,1322.46,730.8,1378Z"/><path class="cls-5" d="M1019.72,1793.16H619c-126.36,0-229.16-105.64-229.16-235.48V1370.19c0-52.38,41.49-95,92.48-95h150.6c55.2,0,100.1,46.13,100.1,102.82v87.87c0,84.57,66.91,153.37,149.15,153.37,84.7,0,153.61,70.8,153.61,157.82A16.1,16.1,0,0,1,1019.72,1793.16ZM482.33,1279.65c-48.54,0-88,40.62-88,90.54v187.49c0,127.39,100.8,231,224.71,231h400.71a11.64,11.64,0,0,0,11.61-11.64c0-84.57-66.91-153.37-149.15-153.37-84.7,0-153.61-70.8-153.61-157.82V1378c0-54.24-42.9-98.36-95.64-98.36Z"/><path class="cls-7" d="M353.26,1214.07a30.24,30.24,0,0,1-14.95-13c-5-9-7.74-23.38,3.59-43.94,25.57-46.44,68.28-24.48,84.62-29.86,36.61-12.06,28-31.85,42.82-51.08,11.13-14.39,49.56-41.54,107.93,9,0,0,26.21,35.78,55.92,22.16,36.5-16.72,109.85,21.12,86.67,77.36a66.52,66.52,0,0,1-33.39,35.46,93.23,93.23,0,0,1-8.73,3.51c-9.15,3.15-16.21,11.3-18.51,21.83-7.46,34.25-35.71,100.38-140.54,33.84a26.31,26.31,0,0,0-25.47-1.86c-10,4.67-21,22.75-69.41,15.12-31.13-4.91-41-41.14-49.24-57.62C368,1221.85,358.63,1216.29,353.26,1214.07Z"/><path class="cls-4" d="M892.35,1466.9C851.12,1479.79,772.14,1444,758.67,1384c-10.68-47.58-27.37-71.72-33.83-79.68a60.59,60.59,0,0,0-12.52-14.94c-38.4-33.75-104.91-22.82-133.69-18.09-32.65,5.36-59.7,9.81-78.09,30.52a56.84,56.84,0,0,0-10.73,17.39v0c-35.15,66.17-6.66,134.49,10.9,166,2.9,126.55-38.94,106.66-27.62,162.85,16,79.15,143.43,49.56,189.8,39.45,16.27-3.54,101.45,21.75,122.28-44,12.15-38.35-10.95-56.06-31.34-121.31,104.45,64.92,182-45.78,182-45.78l8-38.81S922.84,1457.36,892.35,1466.9Z"/><path class="cls-5" d="M563.5,1703.69c-24.71,0-48.55-3.89-66.18-15.39-14.06-9.18-22.94-22.56-26.41-39.76-5.08-25.2.22-35.57,7.54-49.91,9.12-17.84,21.6-42.26,20.05-112.78-19.13-34.56-45.61-101.85-10.68-167.66a59.15,59.15,0,0,1,11.05-17.84c18.92-21.3,47-25.91,79.4-31.24,28.83-4.74,96.33-15.83,135.52,18.62a62.17,62.17,0,0,1,12.88,15.34c6.8,8.42,23.49,32.87,34.17,80.46,5.8,25.84,25.32,50,53.55,66.3,26.7,15.41,57,21.27,77.29,14.94,29.62-9.26,50.51-28.52,50.71-28.72a2.23,2.23,0,0,1,3.7,2.08l-8,38.81a2.16,2.16,0,0,1-.36.82c-.2.29-20,28.29-52.52,47.87-29.21,17.61-74.67,31.76-127.42,1.57A511.2,511.2,0,0,0,776.48,1575c11.44,26.16,19,43.45,10.81,69.3-16.94,53.46-75,48.62-106.17,46-7.85-.66-14.62-1.22-17.76-.54l-2.9.63C637.39,1695.41,599.53,1703.69,563.5,1703.69Zm-71.85-383.21c-33.94,64.19-7.68,130.1,11,163.69a2.18,2.18,0,0,1,.28,1c1.65,72.07-11.16,97.15-20.52,115.46-7.18,14-11.92,23.32-7.14,47,3.22,16,11.46,28.41,24.48,36.91,41.76,27.26,121.45,9.82,159.75,1.44l2.91-.63c3.78-.83,10.19-.29,19.07.45,32,2.67,85.69,7.15,101.55-42.92,7.69-24.26.79-40-10.64-66.18-6.06-13.83-13.59-31-20.69-53.79a2.23,2.23,0,0,1,3.3-2.56c42.51,26.42,85.48,26.93,127.74,1.51,29.72-17.88,48.62-43,51-46.32l6.64-32c-8,6.41-25.17,18.51-47.41,25.46-21.38,6.69-53.12.67-80.84-15.33-29.31-16.92-49.6-42.13-55.68-69.19-10.53-46.92-26.85-70.71-33.38-78.76a1.73,1.73,0,0,1-.19-.28,58,58,0,0,0-12.07-14.38C673.24,1258,607.2,1268.87,579,1273.5c-32.93,5.41-58.92,9.69-76.8,29.81A54.48,54.48,0,0,0,491.89,1320,2.42,2.42,0,0,1,491.65,1320.48Zm400.7,146.42h0Z"/><path class="cls-4" d="M710.09,1456.55s75.22-27.41,98.7-77.54l48.41-45.11s-.69,21.81-15.06,30.91c0,0,12.34,24.85-5.87,42,0,0-13.66,10.86-21.8,11.06,0,0-23.84,78.31-88.21,101.63C726.26,1519.5,708.19,1492,710.09,1456.55Z"/><path class="cls-5" d="M726.26,1521.72a2.23,2.23,0,0,1-1.86-1c-.75-1.15-18.46-28.5-16.53-64.29a2.23,2.23,0,0,1,1.46-2c.74-.27,74.63-27.69,97.44-76.39a2.26,2.26,0,0,1,.5-.69l48.41-45.11a2.23,2.23,0,0,1,3.75,1.7c0,.91-.84,21.54-14.52,31.64,2.48,6.25,9.17,27.49-7.11,42.82-.68.55-12.91,10.2-21.67,11.52-3.68,10.85-29.28,80-89.11,101.64A2.21,2.21,0,0,1,726.26,1521.72Zm-14-63.6c-1.11,29,11.42,52.6,15,58.65,61.32-23.44,84.9-98.79,85.13-99.55a2.23,2.23,0,0,1,2.08-1.58c6.06-.15,16.83-7.68,20.47-10.57,16.62-15.67,5.73-38.31,5.25-39.27a2.24,2.24,0,0,1,.81-2.87c8.78-5.56,12.08-16.48,13.31-23.25l-43.64,40.67C788.33,1427.31,723,1454,712.25,1458.12Z"/><path class="cls-5" d="M642.3,1544.38c-62.67,0-98.64-31.05-99.13-31.48a2.23,2.23,0,0,1,3-3.33c.63.56,64.65,55.61,171.19,16.08a2.23,2.23,0,0,1,1.54,4.18C690.24,1540.45,664.57,1544.38,642.3,1544.38Z"/><path class="cls-5" d="M680.76,1459.58c-54.59,0-86.38-31.09-103.79-58.5-20.48-32.24-25.93-66.5-26-66.84a2.23,2.23,0,1,1,4.4-.68c.05.34,5.39,33.79,25.41,65.24,26.67,41.9,65.39,60.59,115.08,55.54a2.23,2.23,0,0,1,.45,4.43A153.06,153.06,0,0,1,680.76,1459.58Z"/><path class="cls-5" d="M723.11,1420.09a1.83,1.83,0,0,1-.33,0,2.23,2.23,0,0,1-1.88-2.53c9.82-67.13-20.9-105.12-21.21-105.5a2.23,2.23,0,0,1,3.43-2.84c1.32,1.59,32.32,39.77,22.19,109A2.22,2.22,0,0,1,723.11,1420.09Z"/><path class="cls-4" d="M709.23,1231.42c-2.09-14,1.26-51.09.65-50.19-6,8.79-25.71-1.61-43.46-2.31s-11.78,26-11.78,26-5.2-18.09-16.29-6.77c-6.43,6.58.66,15.06,7.27,20.61-1.82,2.07-33.8,36.54-53.39,57l43.45,33,21.75-20.32-4.43-7.07a17,17,0,0,1-.75-16.67l10.64-18a48.36,48.36,0,0,0,8.37,8.32,13.66,13.66,0,0,0,17.71-1.43c6.86-6.54,11.65-13.89,13.82-21Z"/><path class="cls-5" d="M635.68,1311a2.26,2.26,0,0,1-1.35-.45l-43.45-33a2.23,2.23,0,0,1-.26-3.31c17.89-18.73,45-47.94,51.82-55.32-4.21-3.85-8.57-9.09-8.83-14.45a10.28,10.28,0,0,1,3.15-7.89c3.54-3.62,7-5,10.46-4.16a9.55,9.55,0,0,1,4.23,2.45c.08-4.73,1-10.07,4-13.73,2.61-3.13,6.3-4.62,11-4.43,6.71.26,13.73,1.87,19.92,3.3,10,2.3,18.68,4.29,21.62,0a2.26,2.26,0,0,1,2.58-.87c1.75.59,1.75.59,1.2,10.37-.63,11.23-1.8,32.14-.39,41.61a2.23,2.23,0,0,1-1.82,2.53l-5.11.87c-2.47,7.15-7.28,14.27-14,20.67a15.91,15.91,0,0,1-20.52,1.65,41.57,41.57,0,0,1-6.76-6.33l-9.06,15.35a14.73,14.73,0,0,0,.72,14.35l4.43,7.06a2.24,2.24,0,0,1-.37,2.82l-21.75,20.31A2.22,2.22,0,0,1,635.68,1311Zm-40.12-35.47,40,30.34,19-17.78-3.46-5.51a19.26,19.26,0,0,1-.84-18.87l10.7-18.15a2.25,2.25,0,0,1,1.74-1.09,2.29,2.29,0,0,1,1.9.8,44.34,44.34,0,0,0,7.93,7.92,11.42,11.42,0,0,0,14.9-1.22c6.56-6.27,11.13-13.21,13.22-20.07a2.24,2.24,0,0,1,1.76-1.54l4.34-.74c-1-10.59,0-29.74.61-40.36.07-1.15.13-2.28.18-3.31-5.33,2.28-13.27.46-22.13-1.58-6.29-1.45-12.8-2.94-19.09-3.19-3.28-.13-5.73.79-7.43,2.83-4.31,5.17-3,16.5-2.09,20.42a2.23,2.23,0,0,1-4.31,1.11c-.59-2-3-7.94-6.38-8.78-1.75-.44-3.83.55-6.18,3a5.89,5.89,0,0,0-1.88,4.56c.17,3.52,3.36,8.06,9,12.79a2.22,2.22,0,0,1,.24,3.17C645.61,1222.11,615.65,1254.43,595.56,1275.5Z"/><path class="cls-4" d="M659.49,1241.92l3.4,4.74Z"/><path class="cls-5" d="M662.89,1248.89a2.22,2.22,0,0,1-1.81-.93l-3.4-4.74a2.23,2.23,0,1,1,3.62-2.59l3.4,4.74a2.21,2.21,0,0,1-.51,3.1A2.17,2.17,0,0,1,662.89,1248.89Z"/><path class="cls-4" d="M1037.29,1946.42c-.43,1.77,20.39,97,20.39,97l-47.84-8-14.42-80.53Z"/><path class="cls-5" d="M1057.68,2045.67a2.31,2.31,0,0,1-.37,0l-47.84-8a2.24,2.24,0,0,1-1.83-1.81l-14.41-80.53a2.22,2.22,0,0,1,1.75-2.57l41.87-8.48a2.18,2.18,0,0,1,2,.63,2.21,2.21,0,0,1,.63,1.66c.32,4,12.31,59.7,20.33,96.44a2.22,2.22,0,0,1-2.17,2.7Zm-45.93-12.18,43,7.21c-14.21-65.11-18.24-85.22-19.32-91.64L998,1956.65Z"/><path class="cls-6" d="M1032.27,2012.2a20.64,20.64,0,0,1,12.44-5.09c8-.35,15.33,4.67,18.65,12.05,8.29,18.44,30.17,69.81,36.35,111.79,2.19,14.84-9,26.9-26.45,17.18-28.59-15.93-68.26-52.51-89-106.53a19.6,19.6,0,0,1,2.38-18.57,93.71,93.71,0,0,1,12.57-14.17,13.07,13.07,0,0,1,17-.28l4.5,3.7A9,9,0,0,0,1032.27,2012.2Z"/><path class="cls-5" d="M1085,2153.87c-3.5,0-7.8-1-12.87-3.79-29.91-16.67-69.27-53.72-90-107.68a21.7,21.7,0,0,1,2.66-20.68,93.8,93.8,0,0,1,12.88-14.52,15.22,15.22,0,0,1,19.94-.34l4.5,3.7a6.81,6.81,0,0,0,8.7-.07,22.93,22.93,0,0,1,13.77-5.61c8.64-.37,17,5,20.78,13.36,8.93,19.85,30.36,70.52,36.53,112.38,1.26,8.56-1.58,16.38-7.42,20.41A16.46,16.46,0,0,1,1085,2153.87Zm-77.21-146.1a10.68,10.68,0,0,0-7.15,2.74,89.37,89.37,0,0,0-12.26,13.84,17.25,17.25,0,0,0-2.1,16.45c20.32,52.85,58.79,89.1,88,105.39,6.9,3.84,13.17,4.26,17.63,1.18s6.55-9.23,5.54-16.1c-6.08-41.31-27.33-91.53-36.18-111.2-3-6.72-9.65-11-16.53-10.74a18.25,18.25,0,0,0-11.09,4.57,11.26,11.26,0,0,1-14.4.1l-4.49-3.7A11,11,0,0,0,1007.83,2007.77Z"/><path class="cls-5" d="M1088.83,2137.15c-3.77,0-44.11-2.36-93-99a2.22,2.22,0,1,1,4-2c49,96.9,88.71,96.6,89.13,96.59a2.23,2.23,0,1,1,.16,4.45Z"/><path class="cls-5" d="M1058.21,2083.93a2.23,2.23,0,0,1-.82-4.3l22.68-9a2.23,2.23,0,1,1,1.64,4.14l-22.68,8.95A2.17,2.17,0,0,1,1058.21,2083.93Z"/><path class="cls-5" d="M1050.26,2066.55a2.23,2.23,0,0,1-.81-4.3l26.61-10.35a2.23,2.23,0,1,1,1.61,4.15l-26.6,10.35A2.28,2.28,0,0,1,1050.26,2066.55Z"/><path class="cls-4" d="M831.41,1955.07c-1.13,1.43-22.28,96.6-22.28,96.6l-40-27.37,20.77-79.13Z"/><path class="cls-5" d="M809.13,2053.9a2.17,2.17,0,0,1-1.25-.39l-40-27.38a2.22,2.22,0,0,1-.9-2.4l20.77-79.13a2.24,2.24,0,0,1,2.68-1.6l41.55,9.9a2.23,2.23,0,0,1,1.46,3.2c-1.37,3.73-13.93,59.35-22.08,96.06a2.25,2.25,0,0,1-1.36,1.59A2.29,2.29,0,0,1,809.13,2053.9Zm-37.49-30.56,36,24.64c14.47-65,19.27-85,21-91.28l-37.2-8.86Z"/><path class="cls-6" d="M799.21,2012.65a20.65,20.65,0,0,1,13.43.6c7.42,3.06,11.94,10.69,11.85,18.78-.22,20.22-2,76-14,116.72-4.25,14.38-19.48,20.62-31.22,4.47-19.25-26.48-39.86-76.34-36-134.09a19.58,19.58,0,0,1,10-15.84,92.56,92.56,0,0,1,17.36-7.58,13.07,13.07,0,0,1,15.57,6.91l2.53,5.25A9,9,0,0,0,799.21,2012.65Z"/><path class="cls-6" d="M794.68,2165c-4.42,0-10.94-1.84-17.22-10.47-20.13-27.7-40.27-77.86-36.41-135.55a21.68,21.68,0,0,1,11.11-17.64,94.17,94.17,0,0,1,17.79-7.76,15.21,15.21,0,0,1,18.23,8.08l2.53,5.24a6.79,6.79,0,0,0,7.92,3.6,22.94,22.94,0,0,1,14.85.69c8,3.31,13.34,11.69,13.24,20.86-.24,21.76-2.09,76.75-14.09,117.33-2.46,8.29-8.32,14.19-15.31,15.4A15.52,15.52,0,0,1,794.68,2165ZM774.4,1997.36a10.81,10.81,0,0,0-3.15.48,89,89,0,0,0-16.93,7.4,17.23,17.23,0,0,0-8.83,14c-3.78,56.5,15.9,105.56,35.58,132.63,4.64,6.39,10.14,9.4,15.5,8.48s9.82-5.62,11.79-12.28c11.84-40,13.67-94.53,13.91-116.11.08-7.36-4.13-14.07-10.48-16.69a18.24,18.24,0,0,0-12-.51,11.27,11.27,0,0,1-13.11-6l-2.52-5.24A10.86,10.86,0,0,0,774.4,1997.36Z"/><path class="cls-5" d="M799.08,2150.06a2.2,2.2,0,0,1-.86-.17c-1.6-.67-39.14-17.72-43-129.06a2.23,2.23,0,1,1,4.45-.16c3.76,108.52,39.9,125,40.27,125.11a2.23,2.23,0,0,1-.87,4.28Z"/><path class="cls-5" d="M817.88,2090.25h-.13l-24.35-1.42a2.22,2.22,0,0,1,.26-4.44L818,2085.8a2.23,2.23,0,0,1-.12,4.45Z"/><path class="cls-5" d="M822.12,2071.52H822l-28.49-1.79a2.23,2.23,0,1,1,.28-4.45l28.48,1.79a2.23,2.23,0,0,1-.13,4.45Z"/><path class="cls-7" d="M607.63,1579.92s291.34-12.64,323.19,16.94C974,1637,1048.24,1971,1048.24,1971l-71.66,20.09S868.61,1717,841.85,1717s-279-9-279-9Z"/><path class="cls-7" d="M588.37,1572.63a47.92,47.92,0,0,0-49,36.62c-8.4,34.72-15.67,82.2,3.12,94.85,30.58,20.57,251,18.82,243.34,16.25s-19.71,184.7-19.71,256.71l69.39,2.67s110.59-289.61,98.67-322c-21.33-57.85-185.49-71.1-238-78.84C689.08,1577.9,629.17,1574.72,588.37,1572.63Z"/><path class="cls-4" d="M897.51,1817.13a2.29,2.29,0,0,1-.68-.1,2.23,2.23,0,0,1-1.44-2.8q3.74-11.68,7.4-23c19.42-60,36.19-111.83,29.25-132.78-14.74-44.5-125-61.55-161.22-67.16a2.23,2.23,0,1,1,.69-4.4c64,9.91,150.78,28,164.76,70.15,7.4,22.34-8.77,72.31-29.24,135.56q-3.64,11.25-7.4,22.95A2.23,2.23,0,0,1,897.51,1817.13Z"/><polygon class="cls-4" points="1535.67 1727.07 1569.49 2073.37 1593.63 2072.36 1581.64 1708.3 1535.67 1727.07"/><path class="cls-5" d="M1569.49,2075.6a2.23,2.23,0,0,1-2.21-2l-33.82-346.3a2.21,2.21,0,0,1,1.37-2.27l46-18.77a2.26,2.26,0,0,1,2,.19,2.23,2.23,0,0,1,1,1.8l12,364.05a2.23,2.23,0,0,1-2.13,2.3l-24.13,1Zm-31.44-347.1,33.45,342.56,19.83-.84-11.81-358.65Z"/><polygon class="cls-4" points="1989.31 1714.61 1956.31 2074.23 1931.36 2072.36 1943.35 1695.17 1989.31 1714.61"/><path class="cls-5" d="M1956.31,2076.46h-.17l-25-1.87a2.23,2.23,0,0,1-2.06-2.3l12-377.18a2.25,2.25,0,0,1,1-1.81,2.2,2.2,0,0,1,2.07-.17l46,19.44a2.23,2.23,0,0,1,1.35,2.25l-33,359.62A2.24,2.24,0,0,1,1956.31,2076.46Zm-22.66-6.17,20.64,1.56L1987,1716l-41.48-17.55Z"/><polygon class="cls-4" points="2104.2 1629.99 2094.49 2007.61 2075 2003.39 2057.14 1612.03 2104.2 1629.99"/><path class="cls-5" d="M2094.49,2009.84a2.42,2.42,0,0,1-.47,0l-19.49-4.22a2.25,2.25,0,0,1-1.75-2.08l-17.87-391.36a2.25,2.25,0,0,1,.92-1.9,2.22,2.22,0,0,1,2.1-.28l47.06,18a2.21,2.21,0,0,1,1.43,2.13l-9.71,377.63a2.21,2.21,0,0,1-2.22,2.17Zm-17.34-8.26,15.18,3.29,9.6-373.37-42.41-16.18Z"/><polygon class="cls-4" points="1723.5 1621.54 1713.79 1999.17 1693.55 1999.28 1676.44 1603.59 1723.5 1621.54"/><path class="cls-5" d="M1693.55,2001.51a2.24,2.24,0,0,1-2.23-2.13l-17.1-395.7a2.22,2.22,0,0,1,3-2.17l47.07,18a2.23,2.23,0,0,1,1.43,2.14L1716,1999.23a2.23,2.23,0,0,1-2.22,2.17l-20.24.11Zm-14.74-394.64L1695.68,1997l15.94-.09,9.61-373.89Z"/><path class="cls-6" d="M1821.32,1326.62v87.87c0,85.93-67.78,155.59-151.38,155.59s-151.38,69.66-151.38,155.6a13.85,13.85,0,0,0,13.83,13.86h400.72c125.33,0,226.93-104.43,226.93-233.26V1318.8c0-51.24-40.41-92.78-90.26-92.78h-150.6C1865.13,1226,1821.32,1271.06,1821.32,1326.62Z"/><path class="cls-5" d="M1933.11,1741.77H1532.39a16.1,16.1,0,0,1-16.06-16.09c0-87,68.91-157.83,153.6-157.83,82.25,0,149.16-68.8,149.16-153.37v-87.86c0-56.7,44.9-102.82,100.09-102.82h150.6c51,0,92.49,42.62,92.49,95v187.48C2162.27,1636.13,2059.47,1741.77,1933.11,1741.77Zm-13.93-513.52c-52.73,0-95.64,44.13-95.64,98.37v87.86c0,87-68.91,157.83-153.6,157.83-82.25,0-149.16,68.8-149.16,153.37a11.64,11.64,0,0,0,11.61,11.63h400.72c123.9,0,224.71-103.64,224.71-231V1318.8c0-49.93-39.49-90.55-88-90.55Z"/><path class="cls-4" d="M1792.71,1330.76s-21.84,198.56-168.51,211.55l168.51,2.4s62.4-126.58,64.93-175.87S1792.71,1330.76,1792.71,1330.76Z"/><path class="cls-5" d="M1792.71,1546.94h0l-168.51-2.4a2.22,2.22,0,0,1-.17-4.44c74.67-6.62,115.93-63.08,137.39-109.27,23.39-50.36,29-99.82,29.11-100.32a2.22,2.22,0,0,1,1.85-2c1.53-.25,37.7-6,56.59,10.84,7.9,7,11.57,17,10.93,29.56-2.53,49.18-62.6,171.55-65.16,176.74A2.22,2.22,0,0,1,1792.71,1546.94Zm-144-6.5,142.57,2c6.5-13.34,61.74-128.08,64.09-173.73.57-11.15-2.61-19.9-9.45-26-15.17-13.55-44.1-10.9-51.26-10-1.23,9.25-8,54.19-29.23,99.87C1738.32,1491.12,1698.28,1528,1648.76,1540.44Z"/><path class="cls-7" d="M2001.46,1204.56c-28.45-6.69-40.32-6.78-143.75-3-25.28.91-55.35,32.68-58.32,57.83,8,24.12,45.11,143.22-19.62,236.28a200.94,200.94,0,0,1-38.82,41.57,130.09,130.09,0,0,0,44.7,23.92c33.37,9.92,50.15-.8,77,0,71.14,2.12,97.22,81.44,143.17,71.48,12.27-2.66,28.53-12.24,43.77-44.38a495,495,0,0,0,20.61-93.3c11.61-95.86-7.38-175.68-24.35-225.77C2040.86,1253.35,2035,1212.46,2001.46,1204.56Z"/><path class="cls-7" d="M1773.44,1353s16.72-134.27,64.92-145.73L1827.3,1383.9Z"/><path class="cls-4" d="M2018.42,1317.17c22,9.33,47.88,20.32,70.65,30.11,0,.29,0,.57,0,.85l-70.65-30.49Z"/><path class="cls-5" d="M2089.09,1350.36a2.23,2.23,0,0,1-.88-.18l-70.65-30.49a2.23,2.23,0,0,1-1.34-1.94l0-.47a2.22,2.22,0,0,1,3.09-2.16c26.9,11.39,51.33,21.81,70.66,30.12a2.22,2.22,0,0,1,1.35,2l0,.87a2.24,2.24,0,0,1-2.23,2.27Z"/><path class="cls-7" d="M2101.43,1377.62s-4.71-79.76-11.6-110.58c-14.48-64.83-98.41-65.51-98.41-65.51l14.66,165Z"/><path class="cls-8" d="M1919.16,1190.53l-2.84-40.34c-1.93-.14-3.26-.22-3.65-.22-11.24-.13-14.9-3.78-15.86-13a69.06,69.06,0,0,1,2-25.12,5.31,5.31,0,0,0-.23-3.45l-1.92-4.51a3.91,3.91,0,0,1,1.3-4l1-.84a40.92,40.92,0,0,0,9.16-10.82c2.25-3.78,6.07-10.86,8.69-12.12,7.39-3.53,37.36-19.22,54.11,8.2,13.06,21.38-8.28,50.82-16,60.47-1.87,2.33,12.67,48,12.67,48l18.79,4.54s-14.5,25.79-58.55,15.12c-31.37-7.59-26.39-19.27-26.39-19.27Z"/><path class="cls-3" d="M1948.11,1217.27a88.79,88.79,0,0,1-20.84-2.68c-14.88-3.6-24-8.65-27.22-15a9,9,0,0,1-.69-7.33,2.26,2.26,0,0,1,1.73-1.33l15.7-2.32-2.56-36.34-1.59-.09c-12-.14-16.92-4.21-18.05-15a71.31,71.31,0,0,1,2.06-25.91,3.16,3.16,0,0,0-.13-2l-1.92-4.51a2.47,2.47,0,0,1-.1-.29,6.14,6.14,0,0,1,2-6.34l1-.84a39,39,0,0,0,8.66-10.24l1-1.71c3.27-5.61,6-10,8.64-11.28l.79-.38c25.83-12.49,44.73-9.32,56.18,9.43,13.28,21.75-6.41,50.75-15.89,62.63,0,3.85,6.11,25.44,12.36,45.17l17.58,4.25a2.22,2.22,0,0,1,1.41,3.25C1987.77,1199.32,1977.27,1217.27,1948.11,1217.27Zm-44.76-22.16a6.13,6.13,0,0,0,.79,2.69c1.52,2.84,6.69,8.23,24.18,12.46,33.63,8.14,49.32-5.67,54.27-11.57l-15.56-3.77a2.25,2.25,0,0,1-1.6-1.49c-14.9-46.85-13.12-49-12.27-50.11,8.75-10.89,27.83-38.33,15.87-57.91-15.15-24.81-41.71-12-50.44-7.74l-.8.39c-1.65.79-5.07,6.67-6.72,9.5l-1,1.75a43.28,43.28,0,0,1-9.66,11.4l-1,.84a1.73,1.73,0,0,0-.59,1.62l1.85,4.34a7.58,7.58,0,0,1,.34,4.89,66.78,66.78,0,0,0-1.94,24.31c.79,7.53,3,10.9,13.67,11,.41,0,1.79.09,3.78.22a2.23,2.23,0,0,1,2.07,2.07l2.84,40.34a2.23,2.23,0,0,1-1.9,2.36Z"/><path class="cls-7" d="M1961.7,1049.38c-8.13-1.75-17.46-.5-21.4-2-6.36-2.33-6.54-10-15.33-12.1-10.65-2.59-15.09,2-19.25,8.3a17.64,17.64,0,0,0-1.81,3.58c-6.69,18,1.76,26.74,5.52,29.59,0,0,24,12.39,28.06,15.93,3.83,3.31,8.26,11.15,5.47,22.42a3.41,3.41,0,0,0,1.51,3.71,3.19,3.19,0,0,0,4.29-1c3.11-4.53,9.92-13.27,14.76-11.2,6.08,2.6,4.19,20.86-9.23,23a8.79,8.79,0,0,0-7.07,9.19c.27,2.82,2.92,6.24,6.87,7.14,2.4.56,4.78-.42,6.9-1.77,8.76-5.6,33.46-29.33,36.53-50.61C2001.21,1067.94,1972.5,1051.71,1961.7,1049.38Z"/><path class="cls-3" d="M1913.29,1152a2.23,2.23,0,0,1-.09-4.46c.09,0,8.68-.4,14.53-5.38a2.23,2.23,0,0,1,2.89,3.4c-7.06,6-16.83,6.42-17.25,6.44Z"/><path class="cls-4" d="M1721.21,1961.46c-4.1-4.16-27.79-77.92-27.79-77.92l-46.8,33.43,51.31,69Z"/><path class="cls-5" d="M1697.93,1988.24h-.13a2.21,2.21,0,0,1-1.65-.9l-51.32-69a2.26,2.26,0,0,1-.41-1.67,2.22,2.22,0,0,1,.91-1.47l46.8-33.43a2.18,2.18,0,0,1,2-.3,2.22,2.22,0,0,1,1.43,1.43c9,28,24.32,73.63,27.26,77.05a2.34,2.34,0,0,1,0,3.08l-23.27,24.55A2.22,2.22,0,0,1,1697.93,1988.24Zm-48.17-70.78,48.38,65.1,20.29-21.41c-5.55-10.6-21.12-58.3-26.19-74Z"/><path class="cls-7" d="M1636.87,2054.73l31.12-.19a61.23,61.23,0,0,0,51-27.88l30.77-48.78a27.42,27.42,0,0,0-10.31-38.83c-12.85-6.83-26.31-13.49-29.46-13.19-6.4.61-9,30.94-9,30.94l-27.73,1.07s-13.7,57-25.75,63.51a53,53,0,0,0-19,18A10,10,0,0,0,1636.87,2054.73Z"/><path class="cls-4" d="M1640,2044.79a2.23,2.23,0,0,1-.32-4.43l42.57-6.42a30,30,0,0,0,21.33-14.32l37.62-62.92A2.23,2.23,0,0,1,1745,1959l-37.62,62.93a34.43,34.43,0,0,1-24.5,16.43l-42.57,6.42A2,2,0,0,1,1640,2044.79Z"/><path class="cls-4" d="M1692.55,1997.47a2.39,2.39,0,0,1-.59-.08l-23.72-6.47a2.23,2.23,0,0,1,1.17-4.3l23.72,6.47a2.23,2.23,0,0,1-.58,4.38Z"/><path class="cls-4" d="M1680.19,2009.66a2.46,2.46,0,0,1-.53-.06l-15.9-3.9a2.22,2.22,0,0,1,1.06-4.32l15.9,3.89a2.23,2.23,0,0,1-.53,4.39Z"/><polygon class="cls-4" points="1561.51 1947.38 1507.17 2002.04 1478.37 1991.45 1528.46 1921.52 1561.51 1947.38"/><path class="cls-5" d="M1507.17,2004.27a2.28,2.28,0,0,1-.77-.14l-28.8-10.59a2.23,2.23,0,0,1-1-3.39l50.09-69.93a2.23,2.23,0,0,1,3.18-.45l33.05,25.86a2.23,2.23,0,0,1,.21,3.32l-54.34,54.66A2.2,2.2,0,0,1,1507.17,2004.27Zm-25.29-13.9,24.72,9.09,51.56-51.87-29.25-22.89Z"/><path class="cls-4" d="M1849.14,1543.86s-248.34-30.47-322.19,36.92S1643.52,1938,1643.52,1938l60.22-47.08-57.12-204.83,229.57-68.73Z"/><path class="cls-5" d="M1643.52,1940.2l-.36,0a2.22,2.22,0,0,1-1.5-1c-7.82-11.9-190.6-292.17-116.21-360.07,73.76-67.3,313.78-38.73,324-37.48a2.23,2.23,0,0,1,1.82,1.44l27,73.47a2.23,2.23,0,0,1-1.46,2.91l-227.47,68.1,56.54,202.72a2.25,2.25,0,0,1-.78,2.36l-60.21,47.08A2.24,2.24,0,0,1,1643.52,1940.2Zm83.18-400.86c-73.54,0-160.09,8.26-198.25,43.08-68.42,62.44,98.9,326.36,115.62,352.3l57.13-44.66-56.72-203.4a2.22,2.22,0,0,1,1.5-2.73l227.3-68-25.76-70A1151.33,1151.33,0,0,0,1726.7,1539.34Z"/><path class="cls-4" d="M1985.81,1677.25c-36.07,12.07-100.62,27.67-190.83,26.37-25.63-.36-49.3,14.57-60.94,38.64-26.72,55.25-84.56,154.72-178.77,219.2l-45-25.56,114.84-272.54c10.48-24.88,30.09-44.22,54.34-53.59l227.6-88s70.57-20.8,105.17,45.62c6.18,11.86,17.66-9.34,20.39.23C2042,1600.44,2016.8,1666.88,1985.81,1677.25Z"/><path class="cls-5" d="M1555.27,1963.68a2.16,2.16,0,0,1-1.1-.29l-45-25.56a2.22,2.22,0,0,1-1-2.8l114.84-272.53c10.65-25.3,30.92-45.28,55.59-54.81l227.6-88c.89-.27,72.91-20.59,108,46.67.73,1.41,1.53,2.23,2.38,2.45,1.8.46,4.5-1.36,6.89-3,2.85-1.91,5.54-3.72,8.15-2.76,1.49.55,2.54,1.86,3.13,3.92,9.53,33.36-15.88,101.51-48.24,112.34l-.71-2.11.71,2.11c-38.23,12.79-102.5,27.78-191.57,26.49H1794c-24.64,0-46.8,14.25-58,37.38-26.24,54.27-84.47,155-179.51,220.06A2.23,2.23,0,0,1,1555.27,1963.68Zm-42.17-28.74,42.06,23.89c93.51-64.48,150.92-163.89,176.87-217.54,11.91-24.61,36.62-40.26,63-39.89,88.44,1.28,152.19-13.58,190.1-26.26,29.9-10,54.23-75.84,45.37-106.9a2.46,2.46,0,0,0-.45-1c-.62-.07-2.77,1.44-4.07,2.32-3.16,2.12-6.75,4.52-10.47,3.57-2.13-.54-3.89-2.12-5.23-4.7-33.33-64-99.76-45.34-102.57-44.51l-227.43,87.92c-23.55,9.11-42.9,28.2-53.09,52.39Z"/><path class="cls-7" d="M1524.34,1993.49s2.63,23.25-1.83,43.8a23.89,23.89,0,0,1-23.42,18.65H1365.73a10.21,10.21,0,0,1-6.55-18c23.71-19.89,67.33-50.26,121-59.17l14.95,21Z"/><path class="cls-4" d="M1510.28,2039.81H1372.07a2.23,2.23,0,1,1,0-4.45h138.21a2.23,2.23,0,1,1,0,4.45Z"/><path class="cls-4" d="M1449.19,2015.23a2.22,2.22,0,0,1-2.06-1.38l-7.32-17.76a2.23,2.23,0,0,1,4.12-1.7l7.32,17.77a2.23,2.23,0,0,1-1.22,2.9A2.07,2.07,0,0,1,1449.19,2015.23Z"/><path class="cls-4" d="M1425.13,2019.9a2.23,2.23,0,0,1-2.11-1.52l-5.3-16a2.23,2.23,0,0,1,4.23-1.4l5.3,16a2.23,2.23,0,0,1-1.42,2.81A2.13,2.13,0,0,1,1425.13,2019.9Z"/><path class="cls-4" d="M2030.8,1362.17c-24.2,88.22-96.15,144.51-200.46,174.14l15.91,29.73c145-5.1,221-68.1,251.37-189Z"/><path class="cls-5" d="M1846.25,1568.27a2.22,2.22,0,0,1-2-1.18l-15.91-29.73a2.22,2.22,0,0,1,1.35-3.19c109.08-31,176-89.06,198.92-172.59a2.24,2.24,0,0,1,2.64-1.59l66.82,14.87a2.22,2.22,0,0,1,1.67,2.72c-31.45,125.12-112,185.71-253.45,190.69Zm-12.64-30.58,14,26.08c137.49-5.21,216.16-64.06,247.34-185.06l-62.52-13.91C2008.69,1448.17,1941.84,1506.32,1833.61,1537.69Z"/><path class="cls-4" d="M1855.1,1533.87a12.77,12.77,0,0,0-7-6.27,48.85,48.85,0,0,1-6.38-2.91l-28.39-15.06c-5.32-2.61-12.92,3.46-18.44,5.28-16.65,5.47-51.14,18.36-48.3,30.46,3.06,13.06,32.7,6.88,43.23,4.25,2.4-.6,24.18,7.28,31.06,7.81,9.52.72,11.71-1.7,16.37-4.15a15.2,15.2,0,0,1,7-1.63,13,13,0,0,0,10.11-4.73l0-.08a11,11,0,0,0,1.21-11.88Z"/><path class="cls-5" d="M1824,1559.78c-1,0-2.09,0-3.28-.13-3.81-.29-11.23-2.5-18.41-4.63-4.86-1.44-10.93-3.28-12.16-3.21-11,2.77-31.19,6.61-40.7.81a10.54,10.54,0,0,1-5-6.74c-3-12.84,25.41-25.08,49.78-33.09a41,41,0,0,0,5.09-2.3c4.83-2.42,10.3-5.17,15-2.86l28.45,15.09a46.66,46.66,0,0,0,6.09,2.78,14.92,14.92,0,0,1,8.23,7.35l.56,1.1a13.24,13.24,0,0,1-1.45,14.29,15.19,15.19,0,0,1-11.88,5.64,12.72,12.72,0,0,0-6,1.38c-.71.37-1.36.74-2,1.1A21.17,21.17,0,0,1,1824,1559.78Zm-33.85-12.42c1.76,0,5,.9,13.43,3.39,6.63,2,14.14,4.2,17.47,4.46,7.32.55,9.72-.82,13-2.71.68-.39,1.38-.79,2.14-1.19a17.47,17.47,0,0,1,8.07-1.89,10.7,10.7,0,0,0,8.38-3.9,8.82,8.82,0,0,0,1-9.55l-.56-1.09a10.5,10.5,0,0,0-5.77-5.18,52.32,52.32,0,0,1-6.68-3l-28.38-15.06c-2.67-1.31-7.1.91-11,2.88a44.26,44.26,0,0,1-5.7,2.54c-30.56,10-48.51,20.71-46.83,27.84a6.16,6.16,0,0,0,3,4c5.86,3.56,19.88,3,37.52-1.36A3.65,3.65,0,0,1,1790.15,1547.36Z"/><path class="cls-4" d="M794.88,1573.68H1910.16c20.77,0,36.92,13.67,34.57,29.27l-77,510.93h-55.61l48.21-479.52c.84-8.45-8-15.66-19.22-15.66H883.75c-16.78,0-30,10.78-28.75,23.43l47.73,474.75h-55.6L768.8,1595.76C767,1584,779.21,1573.68,794.88,1573.68Z"/><path class="cls-5" d="M902.73,2119.1h-55.6a2.23,2.23,0,0,1-2.21-1.89L766.6,1596.09a18.35,18.35,0,0,1,4.57-14.82c5.29-6.15,14.16-9.81,23.71-9.81H1910.16c12.46,0,24,4.76,30.88,12.75a23.63,23.63,0,0,1,5.89,19.07l-77,510.93a2.23,2.23,0,0,1-2.2,1.89h-55.61a2.23,2.23,0,0,1-2.22-2.45l48.21-479.52a9.82,9.82,0,0,0-2.73-7.58c-3.18-3.52-8.52-5.62-14.26-5.62H883.75c-8.91,0-17.2,3.28-22.17,8.77a15.61,15.61,0,0,0-4.36,12.2L905,2116.65a2.22,2.22,0,0,1-2.22,2.45ZM849,2114.65h51.23l-47.48-472.3a20.22,20.22,0,0,1,5.49-15.64c5.8-6.41,15.32-10.24,25.47-10.24h957.36c7,0,13.55,2.65,17.56,7.09a14.19,14.19,0,0,1,3.86,11l-48,477.07h51.23l76.73-509c.83-5.48-.86-10.84-4.87-15.5-6-7-16.32-11.21-27.5-11.21H794.88c-8.28,0-15.88,3.09-20.33,8.26a13.79,13.79,0,0,0-3.55,11.25Z"/><path class="cls-4" d="M1720.59,1557.33l-59.94-176.63a19.75,19.75,0,0,0-16.58-8.89H1484.32a9.92,9.92,0,0,0-9.55,13.26c.94,2.47,2,4.91,2.78,7.42l54.17,165.16h0a17.72,17.72,0,0,0,17.71,17.43h294.81a17.74,17.74,0,0,0,17.73-17.75Z"/><path class="cls-5" d="M1844.26,1577.31H1549.45a20.06,20.06,0,0,1-19.93-19.2l-54.09-164.92c-.57-1.75-1.26-3.51-1.93-5.22l-.81-2.11a11.89,11.89,0,0,1,1.37-11,12.28,12.28,0,0,1,10.26-5.32h159.75a21.87,21.87,0,0,1,18.45,9.91,2.1,2.1,0,0,1,.24.5l59.43,175.11H1862a2.23,2.23,0,0,1,2.23,2.23A20,20,0,0,1,1844.26,1577.31Zm-310.51-20.61a2.17,2.17,0,0,1,.21.91,15.58,15.58,0,0,0,15.49,15.25h294.81a15.55,15.55,0,0,0,15.35-13.3h-139a2.24,2.24,0,0,1-2.11-1.51l-59.84-176.36a17.43,17.43,0,0,0-14.57-7.65H1484.32a7.86,7.86,0,0,0-6.59,3.39,7.42,7.42,0,0,0-.88,6.84l.8,2.08c.69,1.76,1.41,3.59,2,5.45Z"/><path class="cls-7" d="M1601.85,1462.34c2.25,7.48-1.19,15.14-7.69,17.1s-13.59-2.51-15.84-10,1.19-15.14,7.69-17.1S1599.6,1454.86,1601.85,1462.34Z"/><path class="cls-4" d="M759.31,1560.23h323.95a0,0,0,0,1,0,0V1563a14.58,14.58,0,0,1-14.58,14.58H773.89A14.58,14.58,0,0,1,759.31,1563v-2.81a0,0,0,0,1,0,0Z"/><path class="cls-5" d="M1068.67,1579.85H773.89A16.83,16.83,0,0,1,757.08,1563v-2.81a2.23,2.23,0,0,1,2.23-2.23h323.94a2.23,2.23,0,0,1,2.23,2.23V1563A16.83,16.83,0,0,1,1068.67,1579.85Zm-307.14-17.4v.59a12.37,12.37,0,0,0,12.36,12.35h294.78A12.37,12.37,0,0,0,1081,1563v-.59Z"/><path class="cls-4" d="M1083.26,1560.54H897.9l58.89-173.36a19.37,19.37,0,0,1,16.26-8.71h156.7a9.73,9.73,0,0,1,9.37,13c-.93,2.42-1.92,4.81-2.73,7.27Z"/><path class="cls-5" d="M1083.26,1562.77H897.9a2.23,2.23,0,0,1-2.11-3l58.89-173.36a2.23,2.23,0,0,1,.24-.49,21.5,21.5,0,0,1,18.13-9.73h156.7a12.09,12.09,0,0,1,10.1,5.24,11.68,11.68,0,0,1,1.35,10.77l-.81,2.07c-.65,1.67-1.32,3.4-1.88,5.11l-53.13,161.81A2.25,2.25,0,0,1,1083.26,1562.77ZM901,1558.31h180.64L1134.27,1398c.6-1.82,1.3-3.61,2-5.34l.78-2a7.17,7.17,0,0,0-.85-6.65,7.66,7.66,0,0,0-6.43-3.32H973.05a17,17,0,0,0-14.24,7.48Z"/><path class="cls-7" d="M1014.47,1467.16c-2.21,7.33,1.17,14.83,7.54,16.76s13.33-2.46,15.54-9.79-1.17-14.83-7.54-16.76S1016.68,1459.83,1014.47,1467.16Z"/><path class="cls-4" d="M2101.51,2125.15H1798a28.78,28.78,0,0,1-28.18-34.58l46-223.85a40.49,40.49,0,0,1,39.66-32.34h260.37Z"/><path class="cls-5" d="M2101.51,2127.37H1798a31,31,0,0,1-30.36-37.24l46.05-223.86a42.88,42.88,0,0,1,41.84-34.12h260.37a2.22,2.22,0,0,1,1.61.69,2.25,2.25,0,0,1,.61,1.65l-14.35,290.77A2.23,2.23,0,0,1,2101.51,2127.37Zm-246-290.76a38.41,38.41,0,0,0-37.48,30.55L1772,2091a26.55,26.55,0,0,0,26,31.9h301.42l14.14-286.31Z"/><path class="cls-6" d="M2140.37,2125.15h-58.9a28.77,28.77,0,0,1-28.18-34.58L2104,1844a12.05,12.05,0,0,1,11.81-9.63H2131a12.06,12.06,0,0,1,12,11.08l20.75,254.34A23.45,23.45,0,0,1,2140.37,2125.15Z"/><path class="cls-5" d="M2140.37,2127.37h-58.9a31,31,0,0,1-30.37-37.24l50.73-246.57a14.34,14.34,0,0,1,14-11.41H2131a14.37,14.37,0,0,1,14.24,13.13L2166,2099.62a25.65,25.65,0,0,1-25.58,27.75Zm-24.55-290.76a9.86,9.86,0,0,0-9.63,7.85L2055.47,2091a26.54,26.54,0,0,0,26,31.9h58.9a21.23,21.23,0,0,0,21.15-22.94l-20.75-254.34a9.89,9.89,0,0,0-9.8-9Z"/><path class="cls-5" d="M2060.15,1954.12H1822.49a2.23,2.23,0,0,1,0-4.46h237.66a12.94,12.94,0,0,0,12.63-10l20.95-88.44a2.23,2.23,0,0,1,4.33,1l-20.95,88.44A17.37,17.37,0,0,1,2060.15,1954.12Z"/><path class="cls-6" d="M1968.43,1951.89l-6.66,26.85a10.07,10.07,0,0,1-9.8,7.76H1904.9a7.75,7.75,0,0,1-7.47-9.83l6.9-24.78Z"/><path class="cls-5" d="M1952,1988.72H1904.9a10,10,0,0,1-9.61-12.65l6.89-24.78a2.24,2.24,0,0,1,2.15-1.63h64.1a2.23,2.23,0,0,1,1.75.86,2.25,2.25,0,0,1,.41,1.91l-6.66,26.85A12.25,12.25,0,0,1,1952,1988.72Zm-46-34.6-6.44,23.15a5.52,5.52,0,0,0,5.32,7H1952a7.81,7.81,0,0,0,7.63-6l6-24.11Z"/><path class="cls-5" d="M2038.47,2104.88H1786a2.23,2.23,0,1,1,0-4.45h252.48a2.23,2.23,0,0,1,0,4.45Z"/><path class="cls-5" d="M1915.48,1824.22h-19.71a9.65,9.65,0,0,0-9.64,9.64h39A9.65,9.65,0,0,0,1915.48,1824.22Z"/><path class="cls-7" d="M1925.12,1836.09h-39a2.23,2.23,0,0,1-2.23-2.23,11.89,11.89,0,0,1,11.87-11.87h19.71a11.89,11.89,0,0,1,11.87,11.87A2.23,2.23,0,0,1,1925.12,1836.09Zm-36.42-4.46h33.85a7.43,7.43,0,0,0-7.07-5.18h-19.71A7.43,7.43,0,0,0,1888.7,1831.63Z"/><path class="cls-5" d="M2073.43,1824.22h-19.71a9.65,9.65,0,0,0-9.64,9.64h39A9.65,9.65,0,0,0,2073.43,1824.22Z"/><path class="cls-7" d="M2083.07,1836.09h-39a2.23,2.23,0,0,1-2.23-2.23,11.89,11.89,0,0,1,11.87-11.87h19.71a11.89,11.89,0,0,1,11.87,11.87A2.23,2.23,0,0,1,2083.07,1836.09Zm-36.42-4.46h33.85a7.43,7.43,0,0,0-7.07-5.18h-19.71A7.43,7.43,0,0,0,2046.65,1831.63Z"/><path class="cls-4" d="M2068.28,1823.7l3.18-18.86c2.25-13.38-6.77-24.23-20.15-24.23H1933.13c-13.37,0-26,10.85-28.3,24.23l-3.17,18.86h9l2.47-14.68c1.76-10.41,11.62-18.85,22-18.85H2046c10.41,0,17.43,8.44,15.68,18.85l-2.47,14.68Z"/><path class="cls-5" d="M2068.28,1825.93h-9a2.24,2.24,0,0,1-2.2-2.6l2.48-14.68a14.07,14.07,0,0,0-2.86-11.62,13.63,13.63,0,0,0-10.63-4.64H1935.2c-9.36,0-18.25,7.63-19.83,17l-2.47,14.68a2.23,2.23,0,0,1-2.2,1.86h-9a2.24,2.24,0,0,1-2.2-2.6l3.18-18.86c2.42-14.38,16.1-26.08,30.49-26.08h118.18a22.46,22.46,0,0,1,17.54,7.76c4.31,5.1,6,11.86,4.81,19.06l-3.18,18.86A2.23,2.23,0,0,1,2068.28,1825.93Zm-6.41-4.46h4.53l2.86-17c1-5.88-.36-11.36-3.81-15.44a18.11,18.11,0,0,0-14.14-6.19H1933.13c-12.31,0-24,10-26.1,22.37l-2.74,16.26h4.53l2.16-12.82c1.92-11.42,12.79-20.71,24.22-20.71H2046a18,18,0,0,1,14,6.22,18.4,18.4,0,0,1,3.85,15.23Z"/><path class="cls-7" d="M2045.45,1772.8H1941.63a9.34,9.34,0,0,0-8.85,7.58l-1.52,9.07a6.23,6.23,0,0,0,6.3,7.57h103.81a9.34,9.34,0,0,0,8.85-7.57l1.52-9.07A6.23,6.23,0,0,0,2045.45,1772.8Z"/><path class="cls-7" d="M2041.37,1799.25H1937.56a8.53,8.53,0,0,1-6.65-3,8.71,8.71,0,0,1-1.85-7.2l1.53-9.07a11.5,11.5,0,0,1,11-9.44h103.81a8.54,8.54,0,0,1,6.66,3,8.69,8.69,0,0,1,1.84,7.2l-1.52,9.07A11.52,11.52,0,0,1,2041.37,1799.25ZM1941.63,1775a7.13,7.13,0,0,0-6.65,5.72l-1.53,9.07a4.32,4.32,0,0,0,.86,3.58,4.14,4.14,0,0,0,3.25,1.39h103.81a7.14,7.14,0,0,0,6.65-5.71l1.53-9.07a4.36,4.36,0,0,0-.85-3.59,4.16,4.16,0,0,0-3.26-1.39Z"/><path class="cls-5" d="M2080.91,2104.88a2.23,2.23,0,0,1-1.1-4.16l39.56-22.54V1851.76a2.23,2.23,0,0,1,4.46,0v227.71a2.24,2.24,0,0,1-1.13,1.94L2082,2104.59A2.16,2.16,0,0,1,2080.91,2104.88Z"/></g></g></svg>