<?xml version="1.0" encoding="utf-8"?>
<!-- Generator: Adobe Illustrator 26.3.1, SVG Export Plug-In . SVG Version: 6.00 Build 0)  -->
<svg version="1.1" id="Warstwa_1" xmlns="http://www.w3.org/2000/svg" xmlns:xlink="http://www.w3.org/1999/xlink" x="0px" y="0px"
	 viewBox="0 0 430 430" style="enable-background:new 0 0 430 430;" xml:space="preserve">
<style type="text/css">
	.Styl_x0020_grafiki_x0020_2200{fill:#3a3347;}
	.Styl_x0020_grafiki_x0020_2202{opacity:0.5;fill:#646e78;}
	.Styl_x0020_grafiki_x0020_2203{fill:#646e78;}
	.Styl_x0020_grafiki_x0020_2204{opacity:0.5;fill:#4bb3fd;}
	.Styl_x0020_grafiki_x0020_2205{fill:#4bb3fd;}
	.Styl_x0020_grafiki_x0020_2206{opacity:0.5;fill:#4bb3fd;}
	.Styl_x0020_grafiki_x0020_2208{opacity:0.5;fill:#b26836;}
	.Styl_x0020_grafiki_x0020_2209{opacity:0.5;fill:#f9c9c0;}
	.Styl_x0020_grafiki_x0020_2210{fill:#f9c9c0;}
	.Styl_x0020_grafiki_x0020_2211{opacity:0.5;fill:#3a3347;}
	.st0{fill:#646e78;}
	.st1{opacity:0.5;fill:#646e78;}
	.st2{fill:#121331;}
	.st3{fill:#3a3347;}
	.st4{fill:#4bb3fd;}
	.st5{opacity:0.5;fill:#4bb3fd;}
	.st6{opacity:0.5;fill:#3a3347;}
	.st7{fill:none;stroke:#121331;stroke-width:7;stroke-linecap:round;stroke-linejoin:round;stroke-miterlimit:10;}
	.st8{opacity:0.5;}
	.st9{fill:#EBE6EF;}
	.st10{opacity:0.5;fill:#EBE6EF;}
	.st11{fill:#f9c9c0;}
	.st12{fill:#2CA58D;}
	.st13{opacity:0.5;fill:#2CA58D;}
	.st14{opacity:0.5;fill:#f9c9c0;}
	.st15{fill:#F24C00;}
	.st16{opacity:0.5;fill:#F24C00;}
	.st17{fill:#b26836;}
	.st18{opacity:0.5;fill:#b26836;}
	.st19{fill:#FFFFFF;}
	.st20{fill:#F7F8F9;}
	.st21{fill:#FBFAFC;}
	.st22{fill:#FFC738;}
	.st23{opacity:0.5;fill:#FFC738;}
	.st24{fill:#FCFCFC;}
	.st25{fill:#92140C;}
	.st26{fill:#F28BA8;}
	.st27{opacity:0.5;fill:#F28BA8;}
	.st28{opacity:0.25;fill:#f9c9c0;}
	.st29{opacity:0.5;fill:#92140C;}
	.st30{opacity:0.1;fill:#3a3347;}
	.st31{fill:none;stroke:#08A88A;stroke-width:12;stroke-linecap:round;stroke-linejoin:round;stroke-miterlimit:10;}
	.st32{fill:none;stroke:#121331;stroke-width:12;stroke-linecap:round;stroke-linejoin:round;stroke-miterlimit:10;}
	.st33{fill:none;stroke:#646e78;stroke-width:7;stroke-linecap:round;stroke-linejoin:round;stroke-miterlimit:10;}
	.st34{fill:#08A88A;}
	.st35{fill:none;stroke:#EBE6EF;stroke-width:7;stroke-linecap:round;stroke-linejoin:round;stroke-miterlimit:10;}
	.st36{fill:#08A789;}
	.st37{fill:none;stroke:#F28BA8;stroke-width:7;stroke-linecap:round;stroke-linejoin:round;stroke-miterlimit:10;}
	.st38{fill:none;stroke:#FFC738;stroke-width:7;stroke-linecap:round;stroke-linejoin:round;stroke-miterlimit:10;}
	.st39{fill:none;stroke:#3a3347;stroke-width:7;stroke-linecap:round;stroke-linejoin:round;stroke-miterlimit:10;}
</style>
<path class="Styl_x0020_grafiki_x0020_2203" d="M156.18,344.06l-27.8-15.93l-18.59,25.41l52.16,20.85
	C171.49,358.32,156.18,344.06,156.18,344.06z"/>
<path class="st2" d="M234.73,364.97c-0.44,0-0.88-0.08-1.32-0.26c-1.79-0.73-2.65-2.77-1.92-4.56l93.83-230.83
	c0.73-1.79,2.77-2.65,4.56-1.92c1.79,0.73,2.65,2.77,1.92,4.56l-93.83,230.83C237.42,364.15,236.11,364.97,234.73,364.97z"/>
<path class="Styl_x0020_grafiki_x0020_2205" d="M240.62,104.65l48.05,28.1l51.95-13.56c0,0,13.45,19.09-6.36,31.81l-48.15,12.96
	l-71.82-35.87"/>
<path class="Styl_x0020_grafiki_x0020_2204" d="M240.62,104.65l48.05,28.1l51.95-13.56c0,0,13.45,19.09-6.36,31.81l-48.15,12.96
	l-71.82-35.87"/>
<path class="st2" d="M286.12,167.46c-0.54,0-1.07-0.12-1.56-0.37l-71.82-35.87c-1.73-0.86-2.43-2.97-1.57-4.69
	c0.86-1.73,2.96-2.43,4.7-1.57l70.63,35.28l46.33-12.47c4.77-3.18,7.62-7.02,8.48-11.42c1.03-5.27-0.97-10.37-2.36-13.1
	l-49.38,12.89c-0.9,0.23-1.85,0.1-2.65-0.37l-48.05-28.1c-1.67-0.98-2.23-3.12-1.25-4.79c0.98-1.67,3.12-2.23,4.79-1.25l46.8,27.37
	l50.55-13.2c1.41-0.37,2.9,0.18,3.75,1.37c0.28,0.39,6.78,9.78,4.68,20.52c-1.27,6.48-5.31,11.95-12.01,16.25
	c-0.3,0.19-0.63,0.34-0.98,0.43l-48.15,12.96C286.73,167.42,286.42,167.46,286.12,167.46z"/>
<path class="Styl_x0020_grafiki_x0020_2200" d="M241.94,288.67l-8.42,56.92h32.92l14.83-65.24c0,0,0,0,0,0l-55.15-66.42
	l-57.95-24.88C165.24,237.93,241.94,288.67,241.94,288.67z"/>
<path class="Styl_x0020_grafiki_x0020_2211" d="M241.94,288.67l-8.42,56.92h32.92l14.83-65.24c0,0,0,0,0,0l-55.15-66.42
	l-57.95-24.88C165.24,237.93,241.94,288.67,241.94,288.67z"/>
<path class="Styl_x0020_grafiki_x0020_2203" d="M229.14,375.24l55.78-2.92c8.09-14.38-18.47-26.72-18.47-26.72h-32.92L229.14,375.24
	z"/>
<path class="Styl_x0020_grafiki_x0020_2202" d="M229.14,375.24l55.78-2.92c8.09-14.38-18.47-26.72-18.47-26.72h-32.92L229.14,375.24
	z"/>
<path class="st2" d="M233.53,349.1c-0.17,0-0.34-0.01-0.52-0.04c-1.91-0.28-3.23-2.06-2.95-3.97l8.1-54.75
	c-12.11-8.36-76.27-54.93-73.48-101.49c0.07-1.14,0.69-2.17,1.66-2.77c0.97-0.6,2.17-0.69,3.22-0.24l57.95,24.88
	c0.51,0.22,0.96,0.55,1.31,0.98l55.15,66.42c0.7,0.84,0.96,1.95,0.72,3.01l-14.83,65.24l-6.83-1.55l14.44-63.55l-53.51-64.45
	l-52.3-22.46c2.57,44.77,71.49,90.92,72.21,91.39c1.13,0.75,1.73,2.09,1.53,3.43l-8.42,56.92
	C236.73,347.85,235.23,349.1,233.53,349.1z"/>
<path class="st2" d="M229.14,378.74c-0.98,0-1.92-0.41-2.59-1.14c-0.71-0.78-1.03-1.83-0.87-2.87l4.38-29.64
	c0.28-1.91,2.07-3.23,3.97-2.95c1.91,0.28,3.23,2.06,2.95,3.97l-3.76,25.41l49.38-2.59c0.48-1.51,0.46-3.01-0.06-4.62
	c-2.29-7.12-13.47-13.63-17.58-15.54c-1.75-0.81-2.51-2.9-1.7-4.65c0.81-1.75,2.9-2.51,4.65-1.7c0.72,0.33,17.6,8.29,21.29,19.75
	c1.31,4.07,0.89,8.06-1.24,11.86c-0.59,1.05-1.67,1.72-2.87,1.78l-55.78,2.92C229.26,378.73,229.2,378.74,229.14,378.74z"/>
<path class="Styl_x0020_grafiki_x0020_2210" d="M248.92,82.82l17.18,7.38c3.18,1.37,6.9-0.12,8.27-3.3l12.08-28.14
	c4.57-10.64-0.4-23.08-11.04-27.65l-3.62-1.55c-10.64-4.57-23.08,0.4-27.65,11.04l-6.26,14.58
	C233.32,65.81,238.28,78.26,248.92,82.82z"/>
<path class="Styl_x0020_grafiki_x0020_2209" d="M246.75,59.4l6.57-15.29c4.14-9.65,14.88-14.53,24.73-11.68
	c-0.73-0.43-1.48-0.83-2.27-1.17l-4.33-1.86c-10.44-4.49-22.66,0.39-27.14,10.83l-6.57,15.29c-4.49,10.44,0.39,22.66,10.83,27.14
	l9.02,3.87C247.14,82.06,242.27,69.85,246.75,59.4z"/>
<path class="st17" d="M253.77,29.9c-4.08,2.19-7.49,5.74-9.47,10.33l-0.17,0.39c1.78-0.6,3.88-1,6.09-0.78
	c6.81,0.7,7.44,6.7,14.64,9.04c7.98,2.6,12.61-2.73,17.79,0.59c1.93,1.24,3.94,3.3,5.02,5.72c0.97-3.84,0.83-7.76-0.27-11.37
	c-2.5-6.09-7.31-11.15-13.52-13.82l0,0c-1.82-0.77-9.55-3.98-18.72-0.66C254.68,29.51,254.22,29.7,253.77,29.9z"/>
<path class="Styl_x0020_grafiki_x0020_2208" d="M254.72,41.45c4.83-7.85,14.44-11.59,23.33-9.02c-0.73-0.43-1.48-0.83-2.27-1.17
	l-4.33-1.86c-1.26-0.54-2.55-0.94-3.84-1.21c-2.92-0.47-6.59-0.55-10.62,0.57c-4.81,1.55-9.03,4.82-11.65,9.42
	c-0.04,0.08-0.09,0.15-0.13,0.22c-0.33,0.59-0.63,1.21-0.9,1.84l-0.16,0.38c1.78-0.6,3.88-1,6.09-0.78
	C252.11,40.03,253.51,40.64,254.72,41.45z"/>
<path class="Styl_x0020_grafiki_x0020_2205" d="M226.14,213.95l-57.98-24.9l29.45-68.58c6.88-16.01,25.43-23.42,41.44-16.54l0,0
	c16.01,6.88,23.42,25.43,16.54,41.44L226.14,213.95z"/>
<path class="st2" d="M240.34,405.81c-5.96,0-11.98-1.13-17.79-3.44L50.2,333.53c-1.8-0.72-2.67-2.75-1.95-4.55
	c0.72-1.8,2.75-2.67,4.55-1.95l172.35,68.84c15.64,6.25,33.18,2.35,44.7-9.93c1.32-1.41,3.54-1.48,4.95-0.16
	c1.41,1.32,1.48,3.54,0.16,4.95C265.72,400.56,253.19,405.81,240.34,405.81z"/>
<path class="Styl_x0020_grafiki_x0020_2206" d="M211.08,163.01L211.08,163.01c-3.61-0.64-6.37,3.15-4.65,6.38l16.85,31.71
	c0.45,0.85,0.47,1.87,0.04,2.73l-3.71,7.55l6.54,2.56l5.34-12.44L211.08,163.01z"/>
<path class="Styl_x0020_grafiki_x0020_2204" d="M207.62,125.47c6.37-14.84,22.77-22.28,37.89-17.81c-1.96-1.46-4.11-2.72-6.45-3.73
	h0c-16.01-6.88-34.56,0.53-41.44,16.54l-29.45,68.58l10.26,4.4L207.62,125.47z"/>
<path class="st2" d="M171.48,381.72c-1.85,0-3.39-1.45-3.49-3.32c-0.1-1.93,1.38-3.58,3.31-3.68l185.34-9.68
	c16.81-0.88,31.12-11.77,36.44-27.74c0.61-1.83,2.6-2.82,4.43-2.21c1.83,0.61,2.83,2.59,2.21,4.43c-6.24,18.72-23,31.49-42.71,32.52
	l-185.34,9.68C171.61,381.72,171.55,381.72,171.48,381.72z"/>
<polygon class="Styl_x0020_grafiki_x0020_2200" points="164.6,278.63 128.38,328.13 156.18,344.06 202.15,292.24 226.13,213.95 
	168.17,189.05 "/>
<path class="Styl_x0020_grafiki_x0020_2200" d="M163.46,371.4c0.57-1.37,0.97-2.72,1.23-4.05
	C164.42,368.68,164.03,370.03,163.46,371.4z"/>
<path class="st2" d="M268.57,94.21c-1.29,0-2.59-0.26-3.85-0.79l-17.18-7.38c-6-2.58-10.65-7.36-13.09-13.47
	c-2.44-6.11-2.36-12.78,0.22-18.78l6.26-14.58c5.34-12.44,19.81-18.22,32.25-12.87l3.62,1.55c12.44,5.34,18.21,19.81,12.87,32.25
	l-12.08,28.14C275.99,91.99,272.37,94.21,268.57,94.21z M263.52,31.35c-6.81,0-13.3,3.98-16.15,10.63l-6.26,14.58
	c-1.84,4.29-1.89,9.05-0.15,13.42s5.07,7.79,9.35,9.63l0,0l17.18,7.38c1.42,0.61,3.06-0.05,3.67-1.47l12.08-28.14
	c3.82-8.89-0.31-19.24-9.2-23.05l-3.62-1.55C268.17,31.81,265.82,31.35,263.52,31.35z"/>
<path class="st2" d="M226.14,217.45c-0.47,0-0.94-0.09-1.38-0.28l-57.98-24.9c-1.78-0.76-2.6-2.82-1.83-4.6l29.45-68.58
	c7.63-17.76,28.28-26,46.04-18.37c8.6,3.69,15.25,10.52,18.72,19.21c3.47,8.7,3.35,18.22-0.35,26.82l-29.45,68.58
	c-0.37,0.85-1.06,1.53-1.92,1.87C227.02,217.37,226.58,217.45,226.14,217.45z M172.76,187.22l51.55,22.14l28.07-65.37
	c2.96-6.88,3.05-14.51,0.28-21.47s-8.1-12.42-14.98-15.38c-14.21-6.1-30.74,0.5-36.84,14.71L172.76,187.22z"/>
<path class="st2" d="M161.95,377.89c-0.43,0-0.87-0.08-1.3-0.25l-52.16-20.85c-1-0.4-1.77-1.24-2.07-2.28
	c-0.3-1.04-0.1-2.16,0.54-3.03l18.59-25.41c1.14-1.56,3.33-1.9,4.89-0.76c1.56,1.14,1.9,3.33,0.76,4.89l-15.93,21.77l44.99,17.98
	c4.92-12.07-5.55-22.45-6.43-23.29c-1.14-1.03-1.5-2.72-0.78-4.16c0.86-1.73,2.96-2.43,4.7-1.56c1.23,0.61,7.34,6.99,9.75,15.2
	c2.05,6.99,1.2,13.74-2.55,20.04C164.31,377.27,163.15,377.89,161.95,377.89z"/>
<path class="st2" d="M156.18,347.56c-0.83,0-1.66-0.29-2.32-0.88c-1.45-1.28-1.58-3.49-0.3-4.94l45.46-51.26l22.83-74.56
	l-50.4-21.65l-3.36,84.5c-0.03,0.7-0.26,1.37-0.67,1.93l-36.22,49.5c-1.14,1.56-3.33,1.9-4.89,0.76c-1.56-1.14-1.9-3.33-0.76-4.89
	l35.59-48.64l3.52-88.51c0.05-1.15,0.66-2.21,1.63-2.82c0.97-0.62,2.19-0.71,3.25-0.26l57.96,24.9c1.64,0.71,2.49,2.53,1.96,4.24
	l-23.98,78.29c-0.15,0.48-0.4,0.92-0.73,1.3l-45.97,51.83C158.11,347.16,157.15,347.56,156.18,347.56z"/>
<path class="st2" d="M33.6,278.96c-1.61,0-3.06-1.12-3.42-2.76c-0.41-1.89,0.79-3.75,2.68-4.16l259.82-56.17
	c1.89-0.41,3.75,0.79,4.16,2.68c0.41,1.89-0.79,3.75-2.68,4.16L34.34,278.88C34.09,278.93,33.84,278.96,33.6,278.96z"/>
<path class="Styl_x0020_grafiki_x0020_2205" d="M232.56,139.31l23.07,46.76l52.71,31.23c0,0-3.36,23.11-26.49,18.72
	c-0.1-0.06-46.74-27.75-46.74-27.75l-40.59-75.76"/>
<path class="st2" d="M287.46,240.08c-2,0-4.08-0.21-6.26-0.62c-0.4-0.08-0.78-0.22-1.13-0.43c-0.1-0.06-46.75-27.76-46.75-27.76
	c-0.55-0.33-1-0.79-1.3-1.36l-40.59-75.76c-0.91-1.7-0.27-3.83,1.43-4.74c1.7-0.91,3.83-0.27,4.74,1.43l40.13,74.9
	c5.86,3.48,40.59,24.1,45.36,26.93c5.6,0.95,10.27,0.13,13.9-2.44c4.46-3.16,6.51-8.31,7.36-11.24l-50.51-29.93
	c-0.58-0.35-1.05-0.85-1.35-1.46l-23.07-46.76c-0.86-1.73-0.14-3.83,1.59-4.69c1.74-0.86,3.83-0.14,4.69,1.59l22.61,45.83
	l51.82,30.7c1.22,0.72,1.88,2.11,1.68,3.51c-0.07,0.48-1.8,11.76-10.71,18.12C297.22,238.69,292.65,240.08,287.46,240.08z"/>
</svg>
