<?xml version="1.0" encoding="utf-8"?>
<!-- Generator: Adobe Illustrator 24.0.2, SVG Export Plug-In . SVG Version: 6.00 Build 0)  -->
<svg version="1.1" id="Warstwa_1" xmlns="http://www.w3.org/2000/svg" xmlns:xlink="http://www.w3.org/1999/xlink" x="0px" y="0px"
	 viewBox="0 0 430 430" style="enable-background:new 0 0 430 430;" xml:space="preserve">
<style type="text/css">
	.st0{fill:#3A3347;}
	.st1{display:none;}
	.st2{display:inline;fill:none;stroke:#121331;stroke-width:7;stroke-linecap:round;stroke-linejoin:round;}
	.st3{display:none;fill:none;stroke:#121331;stroke-width:7;stroke-linecap:round;stroke-linejoin:round;stroke-miterlimit:10;}
	.st4{fill:#EBE6EF;}
	.st5{opacity:0.5;}
	.st6{fill:#4BB3FD;}
	.st7{fill:#121331;}
	.st8{fill:#181730;}
	.st9{fill:#F9C9C0;}
	.st10{opacity:0.4;}
	.st11{fill:#646E78;}
	.st12{fill:#A3A2A2;}
	.st13{fill:#FFC738;}
	.st14{fill:#2CA58D;}
	.st15{opacity:0.6;}
	.st16{fill:#F28BA8;}
	.st17{fill:#08A88A;}
	.st18{fill:#B26836;}
	.st19{fill:#92140c;}
	.st20{fill:#F24C00;}
	.st21{fill:none;stroke:#F9C9C0;stroke-width:12;stroke-linecap:square;stroke-linejoin:round;}
	.st22{opacity:0.3;}
	.st23{opacity:0.85;}
	.st24{fill:#FFFFFF;}
	.st25{fill:none;stroke:#121331;stroke-width:7;stroke-linecap:round;stroke-linejoin:round;stroke-miterlimit:10;}
	.st26{opacity:0.8;}
</style>
<g>
	<path class="st19" d="M95.1,209.29c0-36.08,0-123.08,0-162.58c53.28-9.75,89.04,11.58,139.54,11.58
		c38.25,0,100.26-16.27,100.26-16.27l-51.75,91.29l51.25,71.79c0,0-66,19.85-98.76,19.77C188.8,224.76,122.12,192.71,95.1,209.29z"
		/>
</g>
<g class="st5">
	<g>
		<path class="st19" d="M117.68,44.27c-7.22,0.25-14.7,1-22.58,2.44c0,39.5,0,126.5,0,162.58c5.86-3.6,13.59-4.9,22.58-4.74
			C117.68,166.12,117.68,84.59,117.68,44.27z"/>
	</g>
</g>
<g>
	<g>
		<g>
			<path class="st7" d="M94.9,391.48C94.89,391.48,94.89,391.48,94.9,391.48c-1.94,0-3.5-1.57-3.5-3.5l0.21-180.64
				c0-1.93,1.57-3.5,3.5-3.5c0,0,0,0,0,0c1.93,0,3.5,1.57,3.5,3.5L98.4,387.99C98.39,389.92,96.83,391.48,94.9,391.48z"/>
		</g>
	</g>
	<g>
		<g>
			<path class="st7" d="M235.83,228.37c-0.07,0-0.13,0-0.2,0c-19.62-0.05-42.35-5.51-64.33-10.79
				c-30.68-7.37-59.66-14.33-74.37-5.31c-1.08,0.66-2.44,0.69-3.54,0.07c-1.11-0.62-1.79-1.79-1.79-3.05V46.71
				c0-1.69,1.21-3.14,2.87-3.44c31.97-5.85,58.23-0.65,83.63,4.38c17.73,3.51,36.05,7.14,56.54,7.14
				c37.35,0,98.75-15.99,99.37-16.15c1.36-0.36,2.8,0.14,3.66,1.25c0.86,1.12,0.96,2.64,0.27,3.86l-50.65,89.35l49.96,69.97
				c0.66,0.92,0.83,2.1,0.46,3.17c-0.36,1.07-1.22,1.9-2.3,2.22C332.69,209.26,268.79,228.36,235.83,228.37z M116.27,201.04
				c16.15,0,36.04,4.78,56.66,9.73c21.59,5.19,43.92,10.55,62.71,10.59c0.06,0,0.12,0,0.18,0c26.91,0,77.27-13.79,92.85-18.25
				l-48.39-67.77c-0.79-1.11-0.87-2.58-0.2-3.76l47.73-84.18c-18.07,4.38-62.66,14.39-93.18,14.39c-21.17,0-39.84-3.7-57.9-7.27
				c-25.08-4.97-48.82-9.66-78.14-4.86v154.08C103.73,201.84,109.69,201.04,116.27,201.04z"/>
		</g>
	</g>
</g>
</svg>
