<?xml version="1.0" encoding="utf-8"?>
<!-- Generator: Adobe Illustrator 24.0.2, SVG Export Plug-In . SVG Version: 6.00 Build 0)  -->
<svg version="1.1" id="Warstwa_1" xmlns="http://www.w3.org/2000/svg" xmlns:xlink="http://www.w3.org/1999/xlink" x="0px" y="0px"
	 viewBox="0 0 430 430" style="enable-background:new 0 0 430 430;" xml:space="preserve">
<style type="text/css">
	.st0{fill:#3A3347;}
	.st1{display:none;}
	.st2{display:inline;fill:none;stroke:#121331;stroke-width:7;stroke-linecap:round;stroke-linejoin:round;}
	.st3{display:none;fill:none;stroke:#121331;stroke-width:7;stroke-linecap:round;stroke-linejoin:round;stroke-miterlimit:10;}
	.st4{fill:#EBE6EF;}
	.st5{opacity:0.5;}
	.st6{fill:#4BB3FD;}
	.st7{fill:#121331;}
	.st8{fill:#181730;}
	.st9{fill:#F9C9C0;}
	.st10{opacity:0.4;}
	.st11{fill:#646E78;}
	.st12{fill:#A3A2A2;}
	.st13{fill:#ffc738;}
	.st14{fill:#2ca58d;}
	.st15{opacity:0.6;}
	.st16{fill:#F28BA8;}
	.st17{fill:#08A88A;}
	.st18{fill:#b26836;}
	.st19{fill:#92140C;}
	.st20{fill:#f24c00;}
	.st21{fill:none;stroke:#F9C9C0;stroke-width:12;stroke-linecap:square;stroke-linejoin:round;}
	.st22{opacity:0.3;}
	.st23{opacity:0.85;}
	.st24{fill:#FFFFFF;}
	.st25{fill:none;stroke:#121331;stroke-width:7;stroke-linecap:round;stroke-linejoin:round;stroke-miterlimit:10;}
	.st26{opacity:0.8;}
</style>
<g>
	<path class="st18" d="M81.42,303.18h267.17c12.2,0,22.09-9.89,22.09-22.09v0c0-12.2-9.89-22.1-22.1-22.1H81.42
		c-12.2,0-22.1,9.89-22.1,22.1v0C59.32,293.29,69.21,303.18,81.42,303.18z"/>
</g>
<g>
	<path class="st7" d="M348.58,306.68H81.42c-14.11,0-25.59-11.48-25.59-25.6s11.48-25.6,25.59-25.6h267.17
		c14.11,0,25.6,11.48,25.6,25.6S362.7,306.68,348.58,306.68z M81.42,262.49c-10.25,0-18.59,8.34-18.59,18.6s8.34,18.6,18.59,18.6
		h267.17c10.25,0,18.59-8.34,18.59-18.59c0-10.25-8.34-18.6-18.6-18.6H81.42z"/>
</g>
<g class="st5">
	<path class="st18" d="M93.79,296.71c4,4,9.53,6.47,15.63,6.47h-28c-6.1,0-11.63-2.47-15.63-6.47s-6.47-9.52-6.47-15.62
		c0-12.21,9.89-22.1,22.1-22.1h28c-12.21,0-22.1,9.89-22.1,22.1C87.32,287.19,89.79,292.71,93.79,296.71z"/>
</g>
<g>
	<path class="st13" d="M104.94,361.78h220.11c28.72,0,52-23.28,52-52v-5.93c0-1.66-1.34-3-3-3H55.94c-1.66,0-3,1.34-3,3v5.93
		C52.94,338.49,76.23,361.78,104.94,361.78z"/>
</g>
<g>
	<path class="st20" d="M81.42,230.63h267.17c12.2,0,22.09-9.89,22.09-22.09v0c0-12.2-9.89-22.1-22.1-22.1H81.42
		c-12.2,0-22.1,9.89-22.1,22.1v0C59.32,220.73,69.21,230.63,81.42,230.63z"/>
</g>
<g class="st5">
	<path class="st20" d="M93.79,224.16c4,4,9.53,6.47,15.63,6.47h-28c-6.1,0-11.63-2.47-15.63-6.47s-6.47-9.53-6.47-15.63
		c0-12.2,9.89-22.1,22.1-22.1h28c-12.21,0-22.1,9.9-22.1,22.1C87.32,214.63,89.79,220.16,93.79,224.16z"/>
</g>
<g>
	<path class="st14" d="M370.68,252.18L370.68,252.18c0,9.91-7.12,18.62-17.3,20.93c-7.96,1.8-16.08,2.64-24.25,2.19
		c-25.84-1.47-32.67-14.87-57.06-14.92c-25.3-0.04-32.45,14.92-57.68,14.84c-25.01-0.08-31.6-14.82-56.45-14.84
		c-24.28-0.02-31.22,13.46-57.07,14.92c-7.19,0.4-15.21-0.16-24.15-2.19c-10.21-2.32-17.4-11-17.4-20.94v0
		c0-11.89,10.19-21.53,22.75-21.53h265.84C360.49,230.63,370.68,240.28,370.68,252.18z"/>
</g>
<g class="st5">
	<path class="st14" d="M104.72,273.1c1.82,0.42,3.61,0.77,5.35,1.07c-2.8,0.54-5.84,0.93-9.2,1.12c-7.19,0.41-15.21-0.15-24.15-2.19
		c-10.21-2.32-17.4-10.99-17.4-20.93c0-5.95,2.55-11.33,6.66-15.23c4.12-3.9,9.81-6.31,16.09-6.31h28c-6.28,0-11.97,2.41-16.09,6.31
		c-4.11,3.9-6.66,9.28-6.66,15.23C87.32,262.11,94.51,270.78,104.72,273.1z"/>
</g>
<g class="st5">
	<path class="st13" d="M152.94,361.78h-48c-28.71,0-52-23.29-52-52v-5.93c0-1.66,1.35-3,3-3h48c-1.65,0-3,1.34-3,3v5.93
		C100.94,338.49,124.23,361.78,152.94,361.78z"/>
</g>
<g>
	<path class="st7" d="M325.06,365.28H104.94c-30.6,0-55.5-24.9-55.5-55.5v-5.93c0-3.58,2.92-6.5,6.5-6.5h318.11
		c3.58,0,6.5,2.92,6.5,6.5v5.93C380.56,340.38,355.66,365.28,325.06,365.28z M56.44,304.35v5.43c0,26.74,21.76,48.5,48.5,48.5
		h220.11c26.74,0,48.5-21.76,48.5-48.5v-5.43H56.44z"/>
</g>
<g>
	<path class="st7" d="M348.58,234.13H81.42c-14.11,0-25.59-11.48-25.59-25.6s11.48-25.6,25.59-25.6h267.17
		c14.11,0,25.6,11.48,25.6,25.6S362.7,234.13,348.58,234.13z M81.42,189.93c-10.25,0-18.59,8.34-18.59,18.6
		c0,10.25,8.34,18.6,18.59,18.6h267.17c10.25,0,18.59-8.34,18.59-18.59c0-10.25-8.34-18.6-18.6-18.6H81.42z"/>
</g>
<g>
	<path class="st7" d="M333.5,278.91c-1.54,0-3.06-0.04-4.57-0.13c-13.31-0.76-21.72-4.48-29.84-8.09c-7.89-3.5-15.34-6.8-27.03-6.82
		c-0.03,0-0.07,0-0.11,0c-11.82,0-19.33,3.45-27.29,7.11c-8.31,3.82-16.93,7.76-30.29,7.73c-13.28-0.04-21.66-3.97-29.77-7.78
		c-7.73-3.63-15.03-7.05-26.68-7.06c-0.02,0-0.04,0-0.06,0c-11.6,0-19.04,3.3-26.92,6.8c-8.15,3.62-16.57,7.36-29.89,8.11
		c-8.05,0.45-16.5-0.31-25.12-2.27c-11.85-2.7-20.12-12.71-20.12-24.35c0-13.8,11.78-25.03,26.25-25.03h265.84
		c14.48,0,26.27,11.24,26.27,25.05c0,11.66-8.24,21.67-20.03,24.34C347.12,278.11,340.19,278.91,333.5,278.91z M271.96,256.88
		c0.04,0,0.08,0,0.12,0c13.16,0.02,21.65,3.79,29.85,7.43c7.55,3.35,15.36,6.81,27.4,7.5c7.43,0.42,15.26-0.29,23.28-2.1
		c8.58-1.94,14.57-9.14,14.57-17.51c0-9.95-8.64-18.05-19.27-18.05H82.07c-10.61,0-19.25,8.09-19.25,18.03
		c0,8.35,6.03,15.56,14.67,17.52c7.98,1.82,15.78,2.52,23.18,2.11c12.04-0.68,19.87-4.15,27.45-7.52c8.2-3.64,16.69-7.41,29.76-7.41
		c0.02,0,0.04,0,0.06,0c13.2,0.01,21.56,3.93,29.65,7.73c7.76,3.64,15.08,7.08,26.82,7.11c11.87,0.02,19.37-3.42,27.34-7.09
		C250.04,260.82,258.61,256.88,271.96,256.88z"/>
</g>
<g>
	<path class="st13" d="M52.94,188.31h324.11v0c0-66.13-53.61-119.75-119.75-119.75h-84.62C106.56,68.57,52.94,122.18,52.94,188.31
		L52.94,188.31z"/>
</g>
<g>
	<g>
		<path class="st7" d="M251.94,117.76c-0.01,0-0.09,0-0.1,0c-2.76-0.01-4.99-2.26-4.98-5.01c0.01-2.77,2.22-5.02,5.08-4.99
			c2.75,0.02,5,2.27,4.98,5.02C256.91,115.54,254.7,117.76,251.94,117.76z"/>
	</g>
	<g>
		<path class="st7" d="M215.22,147.23c-0.03,0-0.05,0-0.08,0c-2.75-0.04-4.99-2.29-4.97-5.04c0.02-2.75,2.21-4.96,4.95-4.96
			c0.03,0,0.14,0,0.17,0c2.76,0.04,4.96,2.32,4.92,5.08C220.17,145.04,217.94,147.23,215.22,147.23z"/>
	</g>
	<g>
		<path class="st7" d="M142.03,147.23c-0.03,0-0.05,0-0.08,0c-2.75-0.04-4.99-2.29-4.97-5.04c0.02-2.75,2.21-4.96,4.95-4.96
			c0.03,0,0.15,0,0.17,0c2.76,0.04,4.96,2.32,4.92,5.08C146.98,145.04,144.75,147.23,142.03,147.23z"/>
	</g>
	<g>
		<path class="st7" d="M178.5,117.76c-0.01,0-0.09,0-0.1,0c-2.76-0.01-4.99-2.26-4.98-5.01c0.01-2.76,2.23-4.99,4.99-4.99
			c0.01,0,0.07,0,0.09,0c2.75,0.02,5,2.27,4.98,5.02C183.46,115.54,181.25,117.76,178.5,117.76z"/>
	</g>
	<g>
		<path class="st7" d="M288.88,147.23c-0.03,0-0.05,0-0.08,0c-2.75-0.04-4.99-2.29-4.97-5.04c0.02-2.75,2.21-4.96,4.95-4.96
			c0.03,0,0.15,0,0.17,0c2.76,0.04,4.96,2.32,4.92,5.08C293.84,145.04,291.6,147.23,288.88,147.23z"/>
	</g>
</g>
<g class="st5">
	<path class="st13" d="M220.69,68.57c-66.13,0-119.75,53.61-119.75,119.74h-48c0-66.13,53.62-119.74,119.75-119.74H220.69z"/>
</g>
<g>
	<path class="st7" d="M377.06,191.81H52.94c-1.93,0-3.5-1.57-3.5-3.5c0-67.96,55.29-123.25,123.25-123.25h84.62
		c67.96,0,123.25,55.29,123.25,123.25C380.56,190.25,378.99,191.81,377.06,191.81z M56.5,184.81H373.5
		c-1.86-62.49-53.27-112.75-116.19-112.75h-84.62C109.76,72.07,58.35,122.33,56.5,184.81z"/>
</g>
</svg>
