<?xml version="1.0" encoding="utf-8"?>
<!-- Generator: Adobe Illustrator 25.2.0, SVG Export Plug-In . SVG Version: 6.00 Build 0)  -->
<svg version="1.1" id="Warstwa_1" xmlns="http://www.w3.org/2000/svg" xmlns:xlink="http://www.w3.org/1999/xlink" x="0px" y="0px"
	 viewBox="0 0 430 430" style="enable-background:new 0 0 430 430;" xml:space="preserve">
<style type="text/css">
	.st0{fill:#121331;}
	.st1{fill:#F24C00;}
	.st2{opacity:0.5;fill:#F24C00;}
	.st3{fill:#92140C;}
	.st4{fill:#4BB3FD;}
	.st5{fill:#3A3347;}
	.st6{fill:#EBE6EF;}
	.st7{fill:#646E78;}
	.st8{opacity:0.5;fill:#EBE6EF;}
	.st9{opacity:0.5;fill:#3A3347;}
	.st10{fill:#FFC738;}
	.st11{fill:#b26836;}
	.st12{fill:#F28BA8;}
	.st13{opacity:0.5;fill:#F28BA8;}
	.st14{opacity:0.5;fill:#b26836;}
	.st15{opacity:0.5;fill:#646E78;}
	.st16{opacity:0.5;fill:#4BB3FD;}
	.st17{fill:#2ca58d;}
	.st18{opacity:0.5;fill:#2ca58d;}
	.st19{opacity:0.5;fill:#FFC738;}
	.st20{fill:#F9C9C0;}
	.st21{fill:none;stroke:#121331;stroke-width:7;stroke-linecap:round;stroke-linejoin:round;stroke-miterlimit:10;}
	.st22{opacity:0.5;}
	.st23{opacity:0.2;fill:#2ca58d;}
	.st24{fill:none;stroke:#F24C00;stroke-width:10;stroke-linecap:round;stroke-linejoin:round;stroke-miterlimit:10;}
	.st25{fill:none;stroke:#2ca58d;stroke-width:10;stroke-linecap:round;stroke-linejoin:round;stroke-miterlimit:10;}
	.st26{fill:none;stroke:#121331;stroke-width:10;stroke-linecap:round;stroke-linejoin:round;stroke-miterlimit:10;}
	.st27{fill:none;stroke:#EBE6EF;stroke-width:7;stroke-linecap:round;stroke-linejoin:round;stroke-miterlimit:10;}
</style>
<g>
	<path class="st11" d="M135.5,328.24l-0.12,53.54h-31.76l0.12-53.54"/>
	<g>
		<polygon class="st17" points="191.65,329.82 7.5,329.82 74.62,262.7 16.49,262.7 92.76,186.43 70.58,186.43 45.4,186.43 
			128.04,103.79 202,177.74 191.65,224.2 		"/>
	</g>
	<path class="st14" d="M135.5,328.24l-0.12,53.54h-31.76l0.12-53.54"/>
	<g class="st22">
		<polygon class="st17" points="191.65,329.82 7.5,329.82 74.62,262.7 16.49,262.7 92.76,186.43 70.58,186.43 45.4,186.43 
			128.04,103.79 202,177.74 191.65,224.2 		"/>
	</g>
</g>
<g>
	<path class="st11" d="M326.5,328.24l-0.12,53.54h-31.76l0.12-53.54"/>
	<path class="st14" d="M326.5,328.24l-0.12,53.54h-31.76l0.12-53.54"/>
	<g>
		<polygon class="st17" points="231.35,329.82 422.5,329.82 355.38,262.7 413.51,262.7 337.24,186.43 359.42,186.43 384.6,186.43 
			301.96,103.79 228,177.74 231.35,224.2 		"/>
	</g>
	<g class="st22">
		<polygon class="st17" points="231.35,329.82 422.5,329.82 355.38,262.7 413.51,262.7 337.24,186.43 359.42,186.43 384.6,186.43 
			301.96,103.79 228,177.74 231.35,224.2 		"/>
	</g>
</g>
<g>
	<path class="st11" d="M231.35,242.76v138.35c0,0.03-0.02,0.05-0.05,0.05H191.7c-0.03,0-0.05-0.02-0.05-0.05V242.76"/>
	<path class="st17" d="M298.09,242.76c32.89,0,60.28-26.3,60.41-59.18c0.09-24.39-14.51-45.36-35.45-54.61
		c-0.01-0.01-0.02-0.02-0.03-0.03c-7.86-45.83-47.76-80.71-95.83-80.71c-34.02,0-63.95,17.48-81.33,43.94
		c-0.01,0.02-0.03,0.02-0.05,0.02c-2.73-0.63-5.57-0.97-8.49-0.97c-20.82,0-37.7,16.88-37.7,37.7c0,1.08,0.06,2.15,0.14,3.2
		c0,0.02-0.01,0.03-0.02,0.04c-16.89,9.98-28.42,28.08-29.2,48.94c-1.26,33.9,26.44,61.66,60.36,61.66H298.09z"/>
	<path class="st18" d="M227.19,48.22c-34.03,0-63.95,17.48-81.33,43.94c-0.01,0.02-0.03,0.02-0.05,0.02
		c-2.73-0.64-5.57-0.97-8.49-0.97c-20.83,0-37.71,16.88-37.71,37.7c0,1.08,0.06,2.15,0.15,3.2c0,0.02-0.01,0.03-0.02,0.04
		c-17.5,10.34-29.24,29.39-29.24,51.19c0,32.81,26.6,59.42,59.42,59.42h14.03c0.04,0,0.07-0.08,0.03-0.08
		c-65.16-6.27-62.41-92.42-1.33-115.8c0.02-0.01,0.02-0.03,0.02-0.04c-0.08-0.94-0.13-1.88-0.13-2.84
		c0-18.46,14.97-33.42,33.42-33.42c2.59,0,5.11,0.3,7.53,0.86c0.02,0,0.04,0,0.05-0.02c15.41-23.46,41.93-38.95,72.09-38.95h0.06
		C246.68,49.7,237.11,48.22,227.19,48.22z"/>
</g>
<g>
	<g>
		<path class="st0" d="M135.38,385.27h-31.76c-0.93,0-1.82-0.37-2.48-1.03c-0.66-0.66-1.02-1.55-1.02-2.48l0.12-49.51
			c0-1.93,1.57-3.49,3.5-3.49c0,0,0.01,0,0.01,0c1.93,0,3.5,1.58,3.49,3.51l-0.11,46h24.76l0.11-46.02c0-1.93,1.57-3.49,3.5-3.49
			c0,0,0.01,0,0.01,0c1.93,0,3.5,1.58,3.49,3.51l-0.12,49.51C138.88,383.71,137.31,385.27,135.38,385.27z"/>
		<path class="st0" d="M99.56,135.77c-0.89,0-1.79-0.34-2.47-1.02c-1.37-1.37-1.37-3.58-0.01-4.95l0.19-0.19
			c1.36-1.37,3.58-1.37,4.95-0.01c1.37,1.37,1.37,3.58,0.01,4.95l-0.19,0.19C101.35,135.43,100.46,135.77,99.56,135.77z"/>
		<path class="st0" d="M70.58,189.93H45.4c-1.42,0-2.69-0.85-3.23-2.16c-0.54-1.31-0.24-2.81,0.76-3.81l33.42-33.42
			c1.37-1.37,3.58-1.37,4.95,0c1.37,1.37,1.37,3.58,0,4.95l-27.45,27.45h16.73c1.93,0,3.5,1.57,3.5,3.5S72.51,189.93,70.58,189.93z"
			/>
		<path class="st0" d="M191.65,333.32H7.5c-1.42,0-2.69-0.85-3.23-2.16c-0.54-1.31-0.24-2.81,0.76-3.81l61.15-61.15H16.49
			c-1.42,0-2.69-0.85-3.23-2.16c-0.54-1.31-0.24-2.81,0.76-3.81L72,202.25c1.37-1.37,3.58-1.37,4.95,0s1.37,3.58,0,4.95l-52.01,52
			h49.68c1.42,0,2.69,0.85,3.23,2.16c0.54,1.31,0.24,2.81-0.76,3.81l-61.15,61.15h175.7c1.93,0,3.5,1.57,3.5,3.5
			S193.58,333.32,191.65,333.32z"/>
	</g>
	<g>
		<path class="st0" d="M326.38,385.27h-31.76c-0.93,0-1.82-0.37-2.48-1.03c-0.66-0.66-1.02-1.55-1.02-2.48l0.12-49.51
			c0-1.93,1.57-3.49,3.5-3.49c0,0,0.01,0,0.01,0c1.93,0,3.5,1.58,3.49,3.51l-0.11,46h24.76l0.11-46.02c0-1.93,1.6-3.48,3.51-3.49
			c1.93,0,3.5,1.58,3.49,3.51l-0.12,49.51C329.88,383.71,328.31,385.27,326.38,385.27z"/>
		<path class="st0" d="M332.18,137.51c-0.95,0-1.89-0.38-2.58-1.14l-0.01-0.01c-1.3-1.43-1.19-3.64,0.24-4.94
			c1.43-1.3,3.64-1.2,4.94,0.24c1.3,1.43,1.2,3.65-0.23,4.95C333.87,137.21,333.02,137.51,332.18,137.51z"/>
		<path class="st0" d="M384.6,189.93h-26.18c-1.93,0-3.5-1.57-3.5-3.5s1.57-3.5,3.5-3.5h17.73l-30.19-30.19c0,0,0,0,0,0
			c-0.64-0.63-1.03-1.51-1.03-2.48c0-1.93,1.57-3.5,3.5-3.5c0.97,0,1.85,0.4,2.48,1.04l36.16,36.16c1,1,1.3,2.51,0.76,3.81
			C387.29,189.08,386.02,189.93,384.6,189.93z"/>
		<path class="st0" d="M422.5,333.32H231.35c-1.93,0-3.5-1.57-3.5-3.5s1.57-3.5,3.5-3.5h182.7l-61.15-61.15c-1-1-1.3-2.51-0.76-3.81
			c0.54-1.31,1.82-2.16,3.23-2.16h49.68l-52.73-52.73c-1.37-1.37-1.37-3.58,0-4.95c1.37-1.37,3.58-1.37,4.95,0l58.7,58.7
			c1,1,1.3,2.51,0.76,3.81c-0.54,1.31-1.82,2.16-3.23,2.16h-49.68l61.15,61.15c1,1,1.3,2.51,0.76,3.81
			C425.19,332.47,423.92,333.32,422.5,333.32z"/>
		<path class="st0" d="M231.35,384.65h-39.7c-1.93,0-3.5-1.57-3.5-3.5V242.76c0-1.93,1.57-3.5,3.5-3.5s3.5,1.57,3.5,3.5v134.89h32.7
			V242.76c0-1.93,1.57-3.5,3.5-3.5s3.5,1.57,3.5,3.5v138.39C234.85,383.08,233.28,384.65,231.35,384.65z"/>
	</g>
	<path class="st0" d="M299.08,246.26H129.92c-34.69,0-62.92-28.23-62.92-62.92c0-21.43,11.11-41.57,29.14-53.08
		c-0.02-0.46-0.02-0.91-0.02-1.35c0-22.72,18.48-41.2,41.2-41.2c2.31,0,4.62,0.2,6.92,0.59c18.86-27.33,49.69-43.58,82.95-43.58
		c48.61,0,89.93,34.3,98.96,81.82c21.84,10.42,35.85,32.51,35.85,56.8C362,218.03,333.77,246.26,299.08,246.26z M97.29,137.94
		C82.81,148.38,74,165.35,74,183.34c0,30.83,25.09,55.92,55.92,55.92h169.16c30.83,0,55.92-25.09,55.92-55.92
		c0-22.14-13.1-42.23-33.39-51.18c-0.19-0.08-0.38-0.19-0.55-0.3c-12.39-5.26-26.24-5.87-39.04-1.73c-1.84,0.59-3.81-0.41-4.41-2.25
		c-0.6-1.84,0.41-3.81,2.25-4.41c12.55-4.06,25.98-4.06,38.44-0.09c-10.06-41.88-47.43-71.66-91.12-71.66
		c-31.68,0-61,15.84-78.42,42.39c-0.01,0.02-0.02,0.03-0.03,0.05c-0.06,0.12-0.12,0.23-0.19,0.34c-2.51,3.88-4.64,8.07-6.59,12.02
		c-0.86,1.73-2.96,2.44-4.69,1.58c-1.73-0.86-2.44-2.96-1.59-4.69c1.38-2.79,2.84-5.7,4.49-8.58c-0.95-0.08-1.9-0.12-2.84-0.12
		c-18.86,0-34.2,15.34-34.2,34.2c0,0.77,0.03,1.57,0.09,2.42c0.03,0.14,0.06,0.28,0.07,0.42c0.06,0.58,0.14,1.15,0.24,1.73
		c1.43,8.73,6.15,16.39,13.3,21.59c0.73,0.53,1.68,1.09,2.76,1.63c1.73,0.86,2.44,2.96,1.58,4.69c-0.86,1.73-2.96,2.44-4.69,1.58
		c-1.44-0.72-2.7-1.47-3.76-2.23C104.97,155.12,99.58,147.11,97.29,137.94z"/>
</g>
</svg>
