<?xml version="1.0" encoding="utf-8"?>
<!-- Generator: Adobe Illustrator 26.3.1, SVG Export Plug-In . SVG Version: 6.00 Build 0)  -->
<svg version="1.1" id="Warstwa_1" xmlns="http://www.w3.org/2000/svg" xmlns:xlink="http://www.w3.org/1999/xlink" x="0px" y="0px"
	 viewBox="0 0 430 430" style="enable-background:new 0 0 430 430;" xml:space="preserve">
<style type="text/css">
	.Styl_x0020_grafiki_x0020_455{fill:#ebe6ef;}
	.Styl_x0020_grafiki_x0020_456{opacity:0.5;fill:#ffc738;}
	.Styl_x0020_grafiki_x0020_457{fill:#ffc738;}
	.st0{fill:#646E78;}
	.st1{fill:none;stroke:#646E78;stroke-width:7;stroke-linecap:round;stroke-linejoin:round;stroke-miterlimit:10;}
	.st2{fill:#ebe6ef;}
	.st3{fill:#121331;}
	.st4{fill:#3A3347;}
	.st5{fill:#92140C;}
	.st6{fill:#F24C00;}
	.st7{opacity:0.5;fill:#F24C00;}
	.st8{opacity:0.5;fill:#ebe6ef;}
	.st9{fill:#ffc738;}
	.st10{opacity:0.5;fill:#ffc738;}
	.st11{fill:#121331;stroke:#ebe6ef;stroke-width:7;stroke-linecap:round;stroke-linejoin:round;stroke-miterlimit:10;}
	.st12{fill:#4BB3FD;}
	.st13{opacity:0.5;fill:#4BB3FD;}
	.st14{fill:none;stroke:#121331;stroke-width:7;stroke-linecap:round;stroke-linejoin:round;stroke-miterlimit:10;}
	.st15{opacity:0.5;}
	.st16{fill:#121331;stroke:#4BB3FD;stroke-width:30;stroke-linecap:round;stroke-linejoin:round;stroke-miterlimit:10;}
	.st17{fill:none;stroke:#121331;stroke-width:12;stroke-linecap:round;stroke-linejoin:round;}
	.st18{fill:#2CA58D;}
	.st19{fill:none;stroke:#08A88A;stroke-width:12;stroke-linecap:round;stroke-linejoin:round;stroke-miterlimit:10;}
	.st20{opacity:0.5;fill:#2CA58D;}
	.st21{opacity:0.5;fill:#646E78;}
	.st22{fill:none;stroke:#ffc738;stroke-width:7;stroke-linecap:round;stroke-linejoin:round;stroke-miterlimit:10;}
	.st23{fill:#3A3347;stroke:#121331;stroke-width:7;stroke-linecap:round;stroke-linejoin:round;stroke-miterlimit:10;}
	.st24{opacity:0.5;fill:#3A3347;}
	.st25{fill:url(#SVGID_1_);}
	.st26{fill:url(#SVGID_00000158001694823876772370000016894645225183189660_);}
	.st27{fill:url(#SVGID_00000127764903303739726160000012047360480230617766_);}
	.st28{fill:#B26836;}
	.st29{opacity:0.5;fill:#92140C;}
	.st30{fill:#F28BA8;}
	.st31{fill:none;stroke:#ebe6ef;stroke-width:7;stroke-linecap:round;stroke-linejoin:round;stroke-miterlimit:10;}
	.st32{opacity:0.5;fill:#B26836;}
	.st33{fill:#08A789;}
	.st34{fill:#FFFFFF;}
	.st35{fill:none;stroke:#B26836;stroke-width:7;stroke-linecap:round;stroke-linejoin:round;stroke-miterlimit:10;}
	.st36{opacity:0.99;fill:#ebe6ef;}
	.st37{fill:#F9C9C0;}
	.st38{opacity:0.5;fill:#F9C9C0;}
	.st39{opacity:0.5;fill:#F28BA8;}
	.st40{fill:none;stroke:#08A284;stroke-width:12;stroke-linecap:round;stroke-linejoin:round;stroke-miterlimit:10;}
	.st41{fill:none;stroke:#92140C;stroke-width:7;stroke-linecap:round;stroke-linejoin:round;stroke-miterlimit:10;}
	.st42{fill:none;stroke:#08A688;stroke-width:12;stroke-linecap:round;stroke-linejoin:round;stroke-miterlimit:10;}
	.st43{opacity:0.96;fill:#ebe6ef;}
	.st44{fill:none;stroke:#121331;stroke-width:12;stroke-linecap:round;stroke-linejoin:round;stroke-miterlimit:10;}
	.st45{fill:#08A88A;}
	.st46{fill:none;stroke:#2CA58D;stroke-width:7;stroke-linecap:round;stroke-linejoin:round;stroke-miterlimit:10;}
	.st47{fill:#121331;stroke:#ffc738;stroke-width:7;stroke-linecap:round;stroke-linejoin:round;stroke-miterlimit:10;}
	.st48{fill:#121331;stroke:#92140C;stroke-width:7;stroke-linejoin:round;stroke-miterlimit:10;}
	.st49{fill:none;stroke:#92140C;stroke-width:7;stroke-linejoin:round;stroke-miterlimit:10;}
	.st50{opacity:0.75;fill:#ebe6ef;}
	.st51{fill:#121331;stroke:#646E78;stroke-width:12;stroke-linecap:round;stroke-linejoin:round;stroke-miterlimit:10;}
	.st52{fill:#E94E12;}
	.st53{fill:#E84F16;}
	.st54{opacity:0.5;fill:#FFFFFF;}
</style>
<rect x="95.45" y="96.91" class="Styl_x0020_grafiki_x0020_457" width="102.71" height="266.87"/>
<rect x="231.84" y="96.91" class="Styl_x0020_grafiki_x0020_455" width="102.71" height="194.08"/>
<path class="st2" d="M248.68,287.99V99.91c0-1.66,1.34-3,3-3h-19.84v194.08h19.84C250.02,290.99,248.68,289.65,248.68,287.99z"/>
<path class="Styl_x0020_grafiki_x0020_456" d="M112.29,360.78V99.91c0-1.66,1.34-3,3-3H95.45v266.87h19.84
	C113.64,363.78,112.29,362.43,112.29,360.78z"/>
<path class="st3" d="M198.16,367.28H95.45c-1.93,0-3.5-1.57-3.5-3.5V96.91c0-1.93,1.57-3.5,3.5-3.5h102.71c1.93,0,3.5,1.57,3.5,3.5
	v266.87C201.66,365.71,200.09,367.28,198.16,367.28z M98.95,360.28h95.71V100.41H98.95V360.28z"/>
<path class="st3" d="M334.55,294.49H231.84c-1.93,0-3.5-1.57-3.5-3.5V96.91c0-1.93,1.57-3.5,3.5-3.5h102.71c1.93,0,3.5,1.57,3.5,3.5
	v194.08C338.05,292.93,336.48,294.49,334.55,294.49z M235.34,287.49h95.71V100.41h-95.71V287.49z"/>
<path class="st3" d="M348.43,72.22H81.57c-3.31,0-6-2.69-6-6s2.69-6,6-6h266.87c3.31,0,6,2.69,6,6S351.75,72.22,348.43,72.22z"/>
</svg>
