<?xml version="1.0" encoding="utf-8"?>
<!-- Generator: Adobe Illustrator 26.0.3, SVG Export Plug-In . SVG Version: 6.00 Build 0)  -->
<svg version="1.1" id="Warstwa_1" xmlns="http://www.w3.org/2000/svg" xmlns:xlink="http://www.w3.org/1999/xlink" x="0px" y="0px"
	 viewBox="0 0 430 430" style="enable-background:new 0 0 430 430;" xml:space="preserve">
<style type="text/css">
	.st0{fill:#646e78;}
	.st1{fill:#92140c;}
	.st2{fill:#f9c9c0;}
	.st3{fill:#b26836;}
	.st4{fill:#ebe6ef;}
	.st5{fill:#121331;}
	.st6{fill:none;stroke:#121331;stroke-width:7;stroke-linecap:round;stroke-linejoin:round;stroke-miterlimit:10;}
	.st7{fill:#4bb3fd;}
	.st8{opacity:0.5;fill:#4bb3fd;}
	.st9{fill:#3a3347;}
	.st10{fill:#ffc738;}
	.st11{opacity:0.5;fill:#ffc738;}
	.st12{fill:#F28BA8;}
	.st13{opacity:0.5;fill:#646e78;}
	.st14{opacity:0.7;fill:#ebe6ef;}
	.st15{opacity:0.5;fill:#f9c9c0;}
	.st16{fill:#F24C00;}
	.st17{opacity:0.5;fill:#F28BA8;}
	.st18{opacity:0.5;fill:#ebe6ef;}
	.st19{opacity:0.5;}
	.st20{fill:#2CA58D;}
	.st21{opacity:0.7;}
	.st22{opacity:0.5;fill:#606060;}
	.st23{fill:none;stroke:#121331;stroke-width:7;stroke-miterlimit:10;}
	.st24{opacity:0.5;fill:#92140c;}
</style>
<g>
	<g>
		<path class="st0" d="M156.6,398.97c0,1.78-0.5,3.6-1.66,5.43c-8.86,0-54.37,0-54.37,0l-0.02-127.1v-17.29l-0.01,17.29l-0.03,127.1
			c0,0-45.5,0-54.37,0c-8.35-13.19,17.61-25.92,17.61-25.92L61.69,277.3l-1.12-55.46h79.99l-1.14,55.46l-2.08,101.18
			C137.34,378.48,156.6,387.92,156.6,398.97z"/>
		<path class="st7" d="M167.28,118.12v127.17c0,0-26.69,3.17-26.69-26.26v-67.26l-0.02,70.08H60.55l-0.04-69.97v67.15
			c0,29.43-26.69,26.26-26.69,26.26V118.12c22.1-5.11,44.42-7.66,66.73-7.65C122.86,110.46,145.18,113.01,167.28,118.12z"/>
		<path class="st8" d="M143.58,154.22v79.27c-1.39-2.74-2.39-6.12-2.8-10.26c-0.02-0.22-0.04-0.44-0.06-0.67
			c-0.09-1.13-0.14-2.32-0.14-3.56v-64.78c0-0.99,0.67-1.79,1.5-1.79C142.91,152.43,143.58,153.23,143.58,154.22z"/>
		<path class="st2" d="M124.16,52.69v30.17c0,3.71-3.03,6.74-6.75,6.74H99.49c-12.41,0-22.57-10.15-22.57-22.56V52.69
			c0-12.41,10.16-22.56,22.57-22.56h2.11C114.01,30.13,124.16,40.28,124.16,52.69z"/>
	</g>
	<g>
		<path class="st0" d="M384.93,253.94c0.11,7.76-0.3,15.46-1.25,22.67c-0.28,2.15-0.61,4.26-0.99,6.31l-1.19,6.41l-17.44,94.22
			c0,0,0.03,0.03,0.08,0.1c0.05,0.06,0.11,0.13,0.19,0.22c0.07,0.08,0.15,0.18,0.24,0.28c0.12,0.14,0.26,0.31,0.42,0.49
			c0.11,0.13,0.22,0.26,0.35,0.41c0.62,0.72,1.44,1.69,2.45,2.87c0.18,0.22,0.38,0.45,0.59,0.69c0.15,0.19,0.32,0.39,0.5,0.6
			c0.22,0.24,0.43,0.5,0.65,0.76c0.18,0.22,0.37,0.44,0.56,0.67c2.97,3.51,6.88,8.17,11.34,13.59h-43.07V276.61l-0.02-32.26
			l-0.03,24.2l-0.01,8.06v127.62h-43.07c0.02-0.02,0.03-0.04,0.05-0.06c10.12-12.29,17.32-20.62,17.32-20.62l-17.44-94.22
			l-1.19-6.41c-0.38-2.05-0.71-4.16-0.99-6.31c-3.98-30.21,1.53-69.01,14.56-85.8l-0.02-0.12h61.62l-0.02,0.12
			c0.3,0.39,0.6,0.8,0.9,1.22c1.35,1.89,2.61,4.01,3.78,6.35c0.02,0.04,0.04,0.08,0.06,0.12c0.19,0.37,0.37,0.75,0.55,1.13
			c0.13,0.26,0.25,0.53,0.37,0.8c0.13,0.28,0.26,0.57,0.39,0.86c0.21,0.48,0.42,0.97,0.63,1.46c0.62,1.48,1.2,3.02,1.76,4.62
			c0.18,0.5,0.35,1,0.52,1.52c0.19,0.57,0.37,1.15,0.55,1.73c0.18,0.56,0.35,1.12,0.51,1.68c0.15,0.52,0.3,1.04,0.45,1.56
			c0.17,0.62,0.34,1.25,0.5,1.89c0.15,0.58,0.3,1.17,0.45,1.77c0.14,0.59,0.28,1.19,0.42,1.79c0.52,2.23,0.98,4.53,1.39,6.87
			c0.15,0.8,0.29,1.62,0.42,2.43c0.02,0.11,0.03,0.22,0.05,0.33c0.17,1.05,0.33,2.11,0.47,3.18c0.15,1.04,0.29,2.09,0.41,3.15
			c0.01,0.06,0.02,0.13,0.02,0.2c0.1,0.77,0.18,1.54,0.26,2.32c0.02,0.18,0.04,0.36,0.06,0.55c0.04,0.33,0.07,0.67,0.1,1.01
			c0.08,0.83,0.16,1.67,0.22,2.51c0.07,0.81,0.13,1.62,0.18,2.43c0.03,0.28,0.04,0.55,0.06,0.83v0.03c0.01,0.12,0.02,0.24,0.02,0.36
			c0.05,0.81,0.09,1.62,0.13,2.43c0.05,0.93,0.08,1.86,0.11,2.79c0.02,0.57,0.04,1.15,0.04,1.73
			C384.92,252.95,384.93,253.44,384.93,253.94z"/>
		<path class="st1" d="M384.6,245.12v0.03c0.01,0.12,0.02,0.24,0.02,0.36c0.05,0.81,0.09,1.62,0.13,2.43
			c0.05,0.93,0.08,1.86,0.11,2.79c0.02,0.57,0.04,1.15,0.04,1.73c0.02,0.49,0.03,0.98,0.03,1.48c0.11,7.76-0.3,15.46-1.25,22.67
			c-0.28,2.15-0.61,4.26-0.99,6.31l-1.19,6.41h-0.07l1.2-6.47c0.1-0.51,0.19-1.03,0.28-1.55c0.35-2.09,0.66-4.22,0.92-6.4
			c0.13-1.09,0.25-2.19,0.35-3.3c0.55-5.73,0.78-11.7,0.69-17.71c0-0.52-0.01-1.05-0.03-1.58c0-0.55-0.02-1.1-0.04-1.65
			c-0.03-0.93-0.06-1.86-0.11-2.79c-0.03-0.78-0.08-1.57-0.13-2.35c0-0.15-0.01-0.29-0.02-0.44c-0.01-0.28-0.03-0.57-0.06-0.84
			c-0.05-0.82-0.11-1.64-0.18-2.45c-0.05-0.75-0.12-1.49-0.2-2.23c-0.03-0.43-0.07-0.85-0.12-1.28c-0.11-1.1-0.23-2.19-0.36-3.27
			c-0.11-0.87-0.22-1.74-0.34-2.61c-0.01-0.13-0.03-0.25-0.05-0.37c-0.14-1.01-0.29-2.02-0.45-3.03c-0.02-0.15-0.04-0.3-0.07-0.45
			c-0.13-0.81-0.27-1.62-0.41-2.42c-0.48-2.73-1.04-5.41-1.66-8c-0.11-0.49-0.23-0.98-0.36-1.47c-0.16-0.66-0.33-1.31-0.51-1.96
			c-0.08-0.31-0.16-0.62-0.25-0.92c-0.15-0.57-0.31-1.14-0.49-1.7c-0.15-0.52-0.3-1.03-0.46-1.53c-0.13-0.43-0.26-0.86-0.4-1.28
			c-0.11-0.34-0.22-0.67-0.34-1.01c-0.45-1.34-0.92-2.63-1.41-3.89c-0.1-0.26-0.2-0.51-0.3-0.77c-0.13-0.31-0.25-0.62-0.38-0.93
			c-0.21-0.5-0.42-0.98-0.63-1.46c-0.13-0.29-0.26-0.58-0.39-0.86c-0.12-0.27-0.24-0.53-0.37-0.8c-0.18-0.38-0.36-0.76-0.55-1.13
			v-43.55l-4.71,35.75h-61.63l-4.7-35.71v43.48c0,0.01,0,0.01,0,0.01c-5.98,11.92-9.66,29.1-10.76,46.7
			c-3.39,2.06-7.36,3.25-11.62,3.25V121.18c19.17-5.09,38.51-7.64,57.86-7.64h0.08c19.35,0.01,38.7,2.55,57.86,7.65v127.17
			C391.94,248.36,387.98,247.18,384.6,245.12z"/>
		<path class="st2" d="M313.43,69.71c0.73,8.45,1.96,15.7,3.33,20.05c0.88,2.82,3.65,4.61,6.59,4.31l18.47-2.56
			c0,0,18.7-3.46,19.66-33.78c0.05-1.58,0.05-3.24,0-4.97c-0.61-20.42-21.41-20.89-21.41-20.89S309.42,26.67,313.43,69.71z"/>
		<path class="st3" d="M383.93,39.69c-0.09-0.55-0.2-1.09-0.33-1.62c-0.13-0.54-0.3-1.06-0.49-1.57c-0.28-0.76-0.61-1.5-1-2.2
			c-0.07-0.15-0.15-0.29-0.24-0.42c-0.09-0.18-0.2-0.35-0.31-0.51c-0.13-0.22-0.27-0.42-0.41-0.63c-0.05-0.07-0.1-0.14-0.16-0.21
			c-0.12-0.18-0.25-0.36-0.39-0.53c-0.13-0.17-0.26-0.33-0.4-0.49c-0.1-0.13-0.21-0.26-0.33-0.38c-0.14-0.17-0.29-0.33-0.45-0.48
			l-0.36-0.36c-0.06-0.06-0.12-0.12-0.18-0.17c-0.26-0.25-0.53-0.49-0.81-0.72c-0.41-0.34-0.84-0.66-1.28-0.96
			c-0.22-0.15-0.45-0.29-0.68-0.43c-0.2-0.13-0.41-0.25-0.62-0.36c-0.04-0.03-0.08-0.05-0.12-0.07c-0.17-0.09-0.33-0.17-0.5-0.25
			c-0.18-0.1-0.37-0.19-0.56-0.26c-0.06-0.04-0.12-0.06-0.18-0.08c-0.28-0.13-0.57-0.24-0.86-0.35c-0.07-0.03-0.14-0.05-0.21-0.08
			c-0.21-0.08-0.42-0.15-0.63-0.21c-0.52-0.16-1.05-0.3-1.59-0.41c-1.08-0.22-2.2-0.34-3.35-0.34c-0.25,0-0.5,0.01-0.74,0.02
			c-0.18,0-0.36,0.01-0.54,0.03c-0.13,0.01-0.25,0.02-0.38,0.03c-0.16,0.01-0.32,0.03-0.48,0.05c-0.28,0.04-0.57,0.08-0.85,0.14
			c-0.15,0.02-0.29,0.05-0.43,0.08c-0.19,0.04-0.37,0.08-0.55,0.12c-0.18,0.04-0.36,0.09-0.54,0.14c-0.33,0.08-0.66,0.18-0.99,0.3
			c-0.2,0.07-0.39,0.14-0.57,0.21c-0.31,0.11-0.61,0.24-0.91,0.38c-0.21,0.1-0.43,0.2-0.64,0.31c-0.61,0.3-1.19,0.65-1.74,1.03
			c-0.24,0.16-0.47,0.32-0.7,0.51c-0.09,0.05-0.18,0.12-0.26,0.19c-0.25,0.2-0.5,0.4-0.74,0.62c-0.06,0.04-0.11,0.09-0.16,0.15
			c-0.26,0.23-0.52,0.48-0.76,0.73c-0.56,0.57-1.06,1.17-1.52,1.82c0,0,0.01,0.01,0,0.01c-0.7,0.96-1.29,2.01-1.76,3.13v0.01
			c-0.07-0.04-0.13-0.08-0.2-0.13c-0.33-0.19-0.66-0.38-0.99-0.56c-0.28-0.15-0.56-0.29-0.84-0.43c-0.34-0.17-0.68-0.32-1.01-0.46
			c-0.15-0.06-0.3-0.13-0.45-0.19c-0.22-0.09-0.43-0.17-0.64-0.25c-0.48-0.18-0.96-0.35-1.42-0.49c-0.14-0.04-0.27-0.08-0.41-0.12
			c-0.31-0.09-0.61-0.18-0.91-0.26c-0.01,0-0.01-0.01-0.02-0.01c-0.29-0.07-0.57-0.14-0.84-0.2c-0.33-0.08-0.64-0.14-0.94-0.2
			c-0.15-0.03-0.3-0.06-0.44-0.08c-0.14-0.03-0.28-0.05-0.41-0.07c-0.14-0.02-0.28-0.04-0.41-0.07c-0.55-0.08-1.02-0.13-1.39-0.16
			c-0.09-0.01-0.17-0.02-0.24-0.02c-0.39-0.04-0.6-0.04-0.6-0.04s-0.5-0.08-1.37-0.15c-0.11-0.01-0.23-0.01-0.35-0.02
			c-0.1,0-0.21,0-0.32-0.01c-0.41-0.01-0.88-0.02-1.39-0.01c-0.15,0-0.29,0-0.44,0.01c-0.1,0-0.2,0.01-0.3,0.01h-0.14
			c-0.03,0.01-0.07,0.01-0.11,0.01c-0.68,0.04-1.41,0.11-2.18,0.21c-0.17,0.03-0.34,0.05-0.52,0.08c-0.71,0.11-1.44,0.26-2.19,0.45
			c-0.56,0.15-1.14,0.32-1.72,0.51c-0.14,0.04-0.27,0.09-0.4,0.14c-0.08,0.03-0.16,0.06-0.24,0.09c-0.27,0.1-0.54,0.21-0.81,0.32
			v0.01h-0.01c-0.04,0.01-0.07,0.02-0.11,0.04c-0.06,0.03-0.12,0.05-0.19,0.08c-0.2,0.08-0.39,0.17-0.58,0.27
			c-0.15,0.07-0.3,0.14-0.44,0.21c-0.05,0.03-0.1,0.05-0.15,0.08c-0.2,0.1-0.4,0.2-0.59,0.31c-0.2,0.11-0.39,0.22-0.59,0.34
			c-0.16,0.1-0.31,0.19-0.47,0.28c-0.02,0.01-0.04,0.02-0.07,0.04c-0.01,0.01-0.02,0.02-0.03,0.02c-0.02,0.01-0.05,0.03-0.07,0.04
			c0,0,0,0.01-0.01,0.01c-0.07,0.04-0.13,0.09-0.2,0.14c-0.22,0.15-0.45,0.31-0.67,0.46h-0.01c-0.06,0.04-0.12,0.09-0.17,0.13
			l-0.01,0.01c-0.01,0-0.02,0.01-0.03,0.03c-0.19,0.14-0.38,0.29-0.57,0.44s-0.38,0.3-0.56,0.46c-0.19,0.16-0.38,0.33-0.56,0.5
			h-0.01c-0.03,0.03-0.05,0.05-0.08,0.08l-0.01,0.01c-0.16,0.16-0.33,0.32-0.49,0.48c-0.17,0.17-0.33,0.34-0.49,0.51
			c-0.17,0.19-0.35,0.39-0.52,0.59c-0.1,0.11-0.19,0.21-0.28,0.32c-0.01,0.01-0.03,0.03-0.04,0.04c-0.08,0.09-0.16,0.18-0.23,0.28
			c-0.01,0.01-0.03,0.03-0.04,0.05c-0.02,0.01-0.03,0.03-0.04,0.05c-0.08,0.09-0.15,0.19-0.22,0.29c-0.11,0.13-0.21,0.26-0.3,0.4
			c-0.03,0.04-0.06,0.08-0.09,0.13c-0.13,0.18-0.26,0.37-0.38,0.55c-0.25,0.38-0.5,0.77-0.74,1.17c-0.23,0.38-0.45,0.77-0.65,1.17
			c-0.04,0.09-0.09,0.18-0.13,0.26c-0.08,0.16-0.16,0.32-0.24,0.49c-0.01,0.01-0.01,0.02-0.02,0.03c-0.07,0.13-0.13,0.26-0.19,0.4
			l-0.01,0.01c-0.01,0.01-0.01,0.03-0.01,0.04c0,0.01-0.01,0.01-0.01,0.02c-0.03,0.06-0.06,0.12-0.08,0.19
			c2.31-0.56,4.75-1.22,7.13-1.99c4.57-1.46,8.94-3.25,11.83-5.22c0,0,1,12.5,25.81,26.35h0.01c0,0.01,0.01,0.01,0.01,0.01
			l0.03-0.31c0.04-0.33,0.08-0.67,0.11-1.01c0.04-0.32,0.07-0.64,0.1-0.98c0.02-0.19,0.04-0.38,0.05-0.57l0.03-0.36
			c0.04-0.57,0.08-1.16,0.11-1.76c0.03-0.45,0.05-0.92,0.07-1.39v-0.01c0.24,0.09,0.47,0.18,0.71,0.27
			c0.18,0.06,0.36,0.12,0.54,0.17c0.12,0.04,0.25,0.08,0.38,0.11c0.33,0.1,0.66,0.18,1,0.24c0.2,0.05,0.4,0.08,0.6,0.11
			c0.17,0.03,0.34,0.06,0.52,0.08c0.19,0.03,0.39,0.05,0.59,0.06c0.53,0.06,1.09,0.08,1.66,0.08c0.28,0,0.56-0.01,0.84-0.02h0.05
			c0.27-0.02,0.54-0.04,0.81-0.07c0.24-0.02,0.48-0.05,0.72-0.09c0.56-0.08,1.1-0.18,1.64-0.32c0.1-0.02,0.21-0.05,0.32-0.09
			c0.19-0.04,0.38-0.1,0.56-0.16c0.24-0.07,0.48-0.15,0.72-0.24c0.1-0.03,0.19-0.07,0.29-0.11c0.39-0.14,0.76-0.3,1.13-0.48
			c1.8-0.84,3.42-2,4.79-3.41c0.13-0.12,0.24-0.24,0.35-0.37c0.21-0.22,0.42-0.45,0.61-0.69c0.24-0.29,0.47-0.58,0.69-0.89
			c0.03-0.04,0.06-0.08,0.08-0.13c0.22-0.31,0.43-0.62,0.62-0.94c0.28-0.45,0.54-0.92,0.77-1.41c0.48-0.97,0.85-1.99,1.12-3.05
			c0.13-0.54,0.24-1.08,0.33-1.63c0.14-0.83,0.2-1.67,0.2-2.53C384.13,41.36,384.06,40.51,383.93,39.69z"/>
	</g>
	<g>
		<path class="st9" d="M272.59,404.01h-45.11c-1.26,0-1.98,0-1.98,0l-0.02-52.24v-19.61l-0.01-7.59l-0.02,79.44c0,0-0.71,0-1.97,0
			h-45.13c-7.24-11.43,15.25-22.45,15.25-22.45l-2.78-101.03h69.32l-2.8,101.03C257.34,381.56,279.83,392.58,272.59,404.01z"/>
		<path class="st10" d="M283.28,217.75v83.08c0,0-23.12,2.75-23.12-22.74v-58.32l-0.02,60.76h-69.32l-0.03-60.61v58.17
			c0,25.49-23.12,22.74-23.12,22.74v-83.08c0-9.11,3.8-17.45,9.98-23.35c4.86-4.66,11.19-7.8,18.32-8.64
			c9.82-1.14,19.66-1.71,29.51-1.71c9.84,0,19.68,0.57,29.5,1.71C271.15,187.65,283.28,201.47,283.28,217.75z"/>
		<path class="st11" d="M262.76,221.92v68.7c-1.2-2.37-2.07-5.3-2.43-8.89c-0.02-0.19-0.03-0.38-0.05-0.58
			c-0.08-0.98-0.12-2.01-0.12-3.09v-56.14c0-0.86,0.58-1.55,1.3-1.55C262.18,220.37,262.76,221.07,262.76,221.92z"/>
		<path class="st2" d="M245.98,132.19v24.94c0,0.19-0.01,0.37-0.03,0.55c-0.28,3.11-2.91,5.57-6.09,5.57h-14.34
			c-11.25,0-20.46-9.21-20.46-20.46v-10.6c0-5.63,2.3-10.74,6.01-14.45c1.97-1.97,4.34-3.55,6.98-4.58
			c2.31-0.92,4.84-1.43,7.47-1.43C236.78,111.73,245.98,120.93,245.98,132.19z"/>
	</g>
	<path class="st3" d="M124.92,43.04c-3.85-8.77-13-14.44-22.7-14.11l-3.3,0c-12.45-0.52-23.56,9.06-24.72,21.31
		c-0.12,1.31-0.17,2.56-0.13,3.82c0.02,0.74,0.58,1.35,1.32,1.44c0.76,0.1,1.43-0.37,1.63-1.08c0.71-2.51,2.26-4.4,4.5-5.45
		c3.24-1.53,7.57-1.19,12.5,0.98c4.91,2.16,9.28-0.41,13.13-2.67c4.06-2.38,6.72-3.71,9.4-2.1c5.68,3.42,6.71,6.67,7.39,8.83
		l0.15,0.48c0.21,0.62,0.79,1.03,1.42,1.03c0.08,0,0.16-0.01,0.24-0.02c0.73-0.12,1.26-0.74,1.26-1.48
		C127.02,49.64,126.33,46.04,124.92,43.04z"/>
	<path class="st3" d="M246.75,122.77c-3.35-7.63-11.31-12.57-19.76-12.28l-2.87,0c-10.84-0.45-20.51,7.88-21.52,18.55
		c-0.11,1.14-0.15,2.23-0.11,3.33c0.02,0.64,0.51,1.18,1.15,1.26c0.66,0.08,1.24-0.32,1.42-0.94c0.62-2.19,1.97-3.83,3.91-4.75
		c2.82-1.33,6.59-1.04,10.88,0.86c4.27,1.88,8.07-0.36,11.43-2.33c3.53-2.07,5.85-3.23,8.18-1.83c4.95,2.98,5.84,5.81,6.43,7.69
		l0.13,0.42c0.18,0.54,0.68,0.9,1.24,0.9c0.07,0,0.14-0.01,0.21-0.02c0.63-0.1,1.1-0.65,1.1-1.29
		C248.57,128.52,247.97,125.38,246.75,122.77z"/>
	<path class="st4" d="M46.14,404.4h108.8c1.16-1.83,1.66-3.65,1.66-5.43c0-11.05-19.26-20.49-19.26-20.49l0,0H63.75l0,0
		C63.75,378.48,37.79,391.21,46.14,404.4z"/>
	<path class="st4" d="M178.29,404.02h94.45c1.01-1.59,1.44-3.18,1.44-4.73c0-9.62-16.72-17.84-16.72-17.84l0,0h-63.89l0,0
		C193.58,381.45,171.04,392.53,178.29,404.02z"/>
	<path class="st4" d="M299.48,404.23h77.71c1.69,0,2.62-1.98,1.54-3.28c-8.7-10.5-14.66-17.4-14.66-17.4H312.6
		c0,0-5.96,6.9-14.66,17.4C296.86,402.25,297.78,404.23,299.48,404.23z"/>
	<g>
		<path class="st5" d="M100.52,407.9H46.14c-1.2,0-2.32-0.61-2.96-1.63c-2.17-3.42-2.74-7.24-1.67-11.06
			c2.57-9.11,13.89-16.18,18.69-18.83l-3.18-154.47c-0.04-1.93,1.49-3.53,3.43-3.57c1.98-0.04,3.53,1.49,3.57,3.43l3.23,156.63
			c0.03,1.36-0.74,2.62-1.96,3.21c-4.09,2.01-15.13,8.72-17.04,15.5c-0.37,1.33-0.36,2.56,0.05,3.78h48.71l0.02-140.89
			c0-1.93,1.57-3.5,3.5-3.5c0,0,0,0,0,0c1.93,0,3.5,1.57,3.5,3.5l-0.02,144.39C104.02,406.34,102.45,407.9,100.52,407.9z"/>
		<path class="st5" d="M154.95,407.9h-54.37c-1.93,0-3.5-1.57-3.5-3.5l-0.02-144.39c0-1.93,1.57-3.5,3.5-3.5s3.5,1.57,3.5,3.5
			l0.02,140.89h48.71c0.41-1.22,0.43-2.45,0.05-3.78c-1.92-6.8-12.95-13.49-17.04-15.5c-1.22-0.6-1.99-1.85-1.96-3.21l3.23-156.63
			c0.04-1.93,1.63-3.47,3.57-3.43c1.93,0.04,3.47,1.64,3.43,3.57l-3.18,154.47c4.8,2.65,16.12,9.72,18.69,18.83
			c1.08,3.81,0.5,7.64-1.67,11.06C157.26,407.29,156.15,407.9,154.95,407.9z"/>
		<path class="st5" d="M117.47,93.11H99.55c-14.37,0-26.07-11.69-26.07-26.07V52.7c0-14.37,11.69-26.07,26.07-26.07h2.11
			c14.37,0,26.07,11.69,26.07,26.07v30.16C127.72,88.51,123.13,93.11,117.47,93.11z M99.55,33.63c-10.51,0-19.07,8.55-19.07,19.07
			v14.34c0,10.51,8.55,19.07,19.07,19.07h17.92c1.79,0,3.25-1.46,3.25-3.25V52.7c0-10.51-8.55-19.07-19.07-19.07H99.55z"/>
		<path class="st5" d="M140.57,225.35H60.55c-1.93,0-3.5-1.57-3.5-3.5l-0.04-69.97c0-1.93,1.56-3.5,3.5-3.5c0,0,0,0,0,0
			c1.93,0,3.5,1.57,3.5,3.5l0.04,66.47h73.02l0.02-66.58c0-1.93,1.57-3.5,3.5-3.5c0,0,0,0,0,0c1.93,0,3.5,1.57,3.5,3.5l-0.02,70.08
			C144.07,223.78,142.5,225.35,140.57,225.35z"/>
		<path class="st5" d="M36.03,248.89c-1.52,0-2.49-0.11-2.63-0.12c-1.76-0.21-3.09-1.7-3.09-3.48V118.12c0-1.63,1.12-3.04,2.71-3.41
			c22.21-5.14,44.89-7.74,67.39-7.74c0.04,0,0.09,0,0.13,0c1.93,0,3.5,1.57,3.5,3.5c0,1.93-1.57,3.5-3.5,3.5c-0.01,0-0.09,0-0.13,0
			c-21.06,0-42.27,2.34-63.1,6.95v120.94c3.41-0.17,8.99-1.08,13.25-4.9c4.27-3.82,6.44-9.85,6.44-17.93v-67.15
			c0-1.93,1.57-3.5,3.5-3.5s3.5,1.57,3.5,3.5v67.15c0,10.18-2.97,17.99-8.83,23.2C48.6,248.06,40.23,248.89,36.03,248.89z"/>
		<path class="st5" d="M165.07,248.89c-4.19,0-12.57-0.82-19.14-6.66c-5.86-5.21-8.83-13.01-8.83-23.2v-67.26
			c0-1.93,1.57-3.5,3.5-3.5s3.5,1.57,3.5,3.5v67.26c0,8.1,2.18,14.14,6.48,17.96c4.3,3.82,9.82,4.72,13.21,4.87V120.91
			c-20.87-4.62-42.17-6.98-63.23-6.95c0,0,0,0,0,0c-1.93,0-3.5-1.57-3.5-3.5c0-1.93,1.57-3.5,3.5-3.5c0.04,0,0.09,0,0.13,0
			c22.5,0,45.18,2.6,67.39,7.74c1.59,0.37,2.71,1.78,2.71,3.41v127.17c0,1.77-1.33,3.27-3.09,3.48
			C167.56,248.78,166.59,248.89,165.07,248.89z"/>
	</g>
	<g>
		<path class="st5" d="M302.72,201.75c-1.93,0-3.5-1.57-3.5-3.5V154.8c0-1.93,1.57-3.5,3.5-3.5s3.5,1.57,3.5,3.5v43.45
			C306.22,200.18,304.65,201.75,302.72,201.75z"/>
		<path class="st5" d="M280.34,207.79c-1.93,0-3.5-1.57-3.5-3.5v-83.26c0-1.59,1.07-2.97,2.6-3.38c19.34-5.15,39.11-7.76,58.76-7.76
			c1.93,0,3.54,1.57,3.54,3.5s-1.53,3.5-3.46,3.5c-18.24,0-36.52,2.3-54.44,6.85v80.55C283.84,206.22,282.27,207.79,280.34,207.79z"
			/>
		<path class="st5" d="M373.76,201.79c-1.93,0-3.5-1.57-3.5-3.5V154.8c0-1.93,1.57-3.5,3.5-3.5s3.5,1.57,3.5,3.5v43.49
			C377.26,200.22,375.69,201.79,373.76,201.79z"/>
		<path class="st5" d="M396.14,251.7c-4.75,0-9.41-1.3-13.47-3.77c-1.65-1-2.18-3.16-1.17-4.81c1-1.65,3.16-2.18,4.81-1.17
			c1.96,1.19,4.1,2.01,6.33,2.43V123.73c-17.92-4.54-36.2-6.85-54.36-6.85c-1.93,0-3.54-1.57-3.54-3.5s1.53-3.5,3.46-3.5
			c19.73,0,39.5,2.61,58.84,7.76c1.53,0.41,2.6,1.8,2.6,3.38V248.2C399.64,250.13,398.07,251.7,396.14,251.7z"/>
		<path class="st5" d="M338.2,407.51h-43.07c-1.35,0-2.59-0.78-3.17-2.01c-0.58-1.23-0.4-2.67,0.46-3.72
			c7.8-9.46,13.92-16.66,16.32-19.46l-18.32-98.98c-5.52-29.84-1.12-75.09,14.24-94.9c1.19-1.53,3.38-1.81,4.91-0.62
			c1.53,1.18,1.8,3.38,0.62,4.91c-12.66,16.31-18.68,58.06-12.89,89.33l18.63,100.62c0.19,1.04-0.1,2.12-0.79,2.92
			c-0.06,0.07-5.1,5.92-12.57,14.9h32.12l0-156.29c0-1.93,1.57-3.5,3.5-3.5l0,0c1.93,0,3.5,1.57,3.5,3.5l0,159.79
			C341.7,405.94,340.13,407.51,338.2,407.51z"/>
		<path class="st5" d="M308.43,194.09c-1.73,0-3.23-1.28-3.47-3.04l-4.72-35.8c-0.25-1.92,1.1-3.67,3.01-3.93
			c1.92-0.25,3.67,1.1,3.93,3.01l4.72,35.8c0.25,1.92-1.1,3.67-3.01,3.93C308.74,194.08,308.58,194.09,308.43,194.09z"/>
		<path class="st5" d="M381.33,407.51h-43.07c-1.93,0-3.5-1.57-3.5-3.5l0-159.79c0-1.93,1.57-3.5,3.5-3.5s3.5,1.57,3.5,3.5l0,156.29
			h32.12c-7.47-8.98-12.51-14.83-12.57-14.9c-0.69-0.8-0.98-1.88-0.79-2.92l18.63-100.62c5.79-31.27-0.23-73.02-12.89-89.33
			c-1.18-1.53-0.91-3.73,0.62-4.91c1.53-1.18,3.73-0.91,4.91,0.62c15.36,19.8,19.77,65.05,14.24,94.9l-18.32,98.98
			c2.4,2.8,8.53,10.01,16.32,19.46c0.86,1.05,1.04,2.49,0.46,3.72C383.92,406.73,382.68,407.51,381.33,407.51z"/>
		<path class="st5" d="M369.03,194.09c-0.15,0-0.31-0.01-0.46-0.03c-1.92-0.25-3.27-2.01-3.01-3.93l4.72-35.8
			c0.25-1.92,2.01-3.27,3.93-3.01c1.92,0.25,3.27,2.01,3.01,3.93l-4.72,35.8C372.26,192.81,370.76,194.09,369.03,194.09z"/>
		<path class="st5" d="M369.05,193.97h-61.63c-1.93,0-3.5-1.57-3.5-3.5s1.57-3.5,3.5-3.5h61.63c1.93,0,3.5,1.57,3.5,3.5
			S370.98,193.97,369.05,193.97z"/>
		<g>
			<path class="st5" d="M322.72,97.61c-4.21,0-8.03-2.74-9.3-6.8c-1.47-4.7-2.74-12.28-3.47-20.8c-1.52-16.28,1.56-28.12,9.15-35.16
				c8.44-7.83,19.36-6.74,21.28-6.47c8.4,0.28,24.05,5.68,24.6,24.28c1.12,37.5-21.55,42.11-22.52,42.29
				c-0.05,0.01-0.1,0.02-0.15,0.02l-18.47,2.57c-0.04,0.01-0.08,0.01-0.13,0.02C323.37,97.59,323.05,97.61,322.72,97.61z
				 M341.83,91.51L341.83,91.51L341.83,91.51z M341.83,91.51L341.83,91.51L341.83,91.51z M337.12,35.18
				c-3.15,0-8.84,0.66-13.32,4.85c-5.87,5.5-8.19,15.38-6.89,29.36c0.68,7.94,1.87,15.16,3.18,19.33c0.38,1.2,1.57,1.99,2.85,1.88
				l18.28-2.54c1.37-0.31,17.67-4.66,16.76-35.19c-0.49-16.5-16.22-17.45-18.01-17.5c-0.16,0-0.33-0.02-0.49-0.05
				C339.46,35.31,338.56,35.18,337.12,35.18z"/>
			<path class="st5" d="M367.49,62.35c-2.66,0-4.99-0.44-7.32-1.37c-1.79-0.72-2.66-2.76-1.94-4.55c0.72-1.79,2.76-2.66,4.55-1.94
				c1.49,0.6,2.95,0.87,4.71,0.87c7.24,0,13.13-5.89,13.13-13.13s-5.89-13.13-13.13-13.13c-5.29,0-10.01,3.09-12.03,7.87
				c-0.75,1.78-2.81,2.61-4.59,1.86c-1.78-0.75-2.61-2.81-1.86-4.59c3.12-7.38,10.37-12.15,18.48-12.15
				c11.1,0,20.13,9.03,20.13,20.13S378.59,62.35,367.49,62.35z"/>
		</g>
	</g>
	<g>
		<path class="st5" d="M225.45,407.51h-47.1c-1.2,0-2.31-0.61-2.96-1.63c-1.95-3.08-2.47-6.52-1.5-9.96
			c2.23-7.89,11.8-14.01,16.15-16.44l-2.72-98.86c-0.05-1.93,1.47-3.54,3.4-3.59c1.93-0.04,3.54,1.47,3.59,3.4l2.78,101.03
			c0.04,1.37-0.73,2.64-1.96,3.24c-3.49,1.72-12.91,7.43-14.51,13.13c-0.26,0.94-0.29,1.81-0.06,2.68h41.38l0.02-89.57
			c0-1.93,1.57-3.5,3.5-3.5s3.5,1.57,3.5,3.5l-0.02,93.07C228.95,405.94,227.38,407.51,225.45,407.51z"/>
		<path class="st5" d="M272.59,407.51H225.5c-1.93,0-3.5-1.57-3.5-3.5l-0.03-93.07c0-1.93,1.57-3.5,3.5-3.5s3.5,1.57,3.5,3.5
			l0.03,89.57h41.37c0.23-0.86,0.21-1.74-0.06-2.68c-1.61-5.7-11.02-11.41-14.51-13.13c-1.23-0.6-1.99-1.87-1.96-3.24l2.8-101.03
			c0.05-1.93,1.67-3.45,3.6-3.4c1.93,0.05,3.46,1.66,3.4,3.6l-2.74,98.86c4.35,2.43,13.92,8.55,16.15,16.44
			c0.97,3.44,0.45,6.88-1.5,9.96C274.91,406.89,273.79,407.51,272.59,407.51z"/>
		<path class="st5" d="M239.86,166.75h-14.34c-13.21,0-23.96-10.75-23.96-23.96v-10.6c0-6.38,2.5-12.39,7.03-16.92
			c4.54-4.54,10.55-7.04,16.93-7.04c13.21,0,23.96,10.75,23.96,23.96v24.94C249.48,162.43,245.17,166.75,239.86,166.75z
			 M225.52,115.23c-4.51,0-8.76,1.77-11.98,4.99c-3.21,3.21-4.98,7.47-4.98,11.97v10.6c0,9.35,7.61,16.96,16.96,16.96h14.34
			c1.42,0,2.62-1.2,2.62-2.62v-24.94C242.48,122.83,234.87,115.23,225.52,115.23z"/>
		<path class="st5" d="M260.14,284.03h-69.32c-1.93,0-3.5-1.56-3.5-3.5l-0.03-60.61c0-1.93,1.57-3.5,3.5-3.5c0,0,0,0,0,0
			c1.93,0,3.5,1.57,3.5,3.5l0.03,57.11h62.32l0.02-57.26c0-1.93,1.57-3.5,3.5-3.5c0,0,0,0,0,0c1.93,0,3.5,1.57,3.5,3.5l-0.02,60.76
			C263.64,282.46,262.07,284.03,260.14,284.03z"/>
		<path class="st5" d="M169.58,304.41c-1.34,0-2.2-0.1-2.32-0.11c-1.76-0.21-3.09-1.7-3.09-3.48v-83.08
			c0-9.74,4.03-19.17,11.06-25.88c5.59-5.36,12.62-8.68,20.33-9.58c9.91-1.15,19.98-1.73,29.92-1.73c1.93,0,3.5,1.57,3.5,3.5
			s-1.57,3.5-3.5,3.5c-9.67,0-19.47,0.57-29.11,1.69c-6.17,0.73-11.81,3.39-16.3,7.69c-5.66,5.4-8.9,12.99-8.9,20.82v79.61
			c2.91-0.2,7.31-1.06,10.7-4.1c3.59-3.22,5.42-8.32,5.42-15.17v-58.17c0-1.93,1.57-3.5,3.5-3.5s3.5,1.57,3.5,3.5v58.17
			c0,8.96-2.63,15.84-7.81,20.44C180.67,303.69,173.28,304.41,169.58,304.41z"/>
		<path class="st5" d="M281.34,304.42c-4.16,0-11.9-0.89-17.74-6.7c-4.61-4.59-6.95-11.2-6.95-19.63v-58.32c0-1.93,1.57-3.5,3.5-3.5
			s3.5,1.57,3.5,3.5v58.32c0,6.5,1.64,11.44,4.89,14.67c3.48,3.47,8.27,4.39,11.23,4.6v-79.61c0-14.58-10.84-26.83-25.21-28.51
			c-9.64-1.12-19.43-1.69-29.09-1.69c-1.93,0-3.5-1.57-3.5-3.5s1.57-3.5,3.5-3.5c9.94,0,20,0.58,29.9,1.73
			c17.9,2.09,31.4,17.34,31.4,35.47v83.08c0,1.76-1.3,3.24-3.05,3.47C283.58,304.32,282.69,304.42,281.34,304.42z"/>
	</g>
</g>
</svg>
