<?xml version="1.0" encoding="utf-8"?>
<!-- Generator: Adobe Illustrator 26.2.1, SVG Export Plug-In . SVG Version: 6.00 Build 0)  -->
<svg version="1.1" id="Warstwa_1" xmlns="http://www.w3.org/2000/svg" xmlns:xlink="http://www.w3.org/1999/xlink" x="0px" y="0px"
	 viewBox="0 0 430 430" style="enable-background:new 0 0 430 430;" xml:space="preserve">
<style type="text/css">
	.st0{fill:#FFFFFF;}
	.st1{fill:#ebe6ef;}
	.st2{opacity:0.5;fill:#ebe6ef;}
	.st3{fill:#4BB3FD;}
	.st4{fill:#646E78;}
	.st5{opacity:0.5;fill:#646E78;}
	.st6{opacity:0.5;fill:#4BB3FD;}
	.st7{fill:#121331;}
	.st8{fill:none;stroke:#121331;stroke-width:7;stroke-linecap:round;stroke-linejoin:round;stroke-miterlimit:10;}
	.st9{fill:#f24c00;}
	.st10{fill:#F9C9C0;}
	.st11{fill:#92140c;}
	.st12{opacity:0.5;fill:#92140c;}
	.st13{fill:#3A3347;}
	.st14{fill:#2CA58D;}
	.st15{opacity:0.5;fill:#2CA58D;}
	.st16{opacity:0.5;fill:#F9C9C0;}
	.st17{fill:#ffc738;}
	.st18{opacity:0.5;fill:#ffc738;}
	.st19{fill:#b26836;}
	.st20{opacity:0.5;fill:#b26836;}
	.st21{opacity:0.5;fill:#3A3347;}
	.st22{opacity:0.5;}
	.st23{opacity:0.34;fill:#646E78;}
	.st24{opacity:0.5;fill:#f24c00;}
	.st25{fill:none;stroke:#4BB3FD;stroke-width:7;stroke-linecap:round;stroke-linejoin:round;stroke-miterlimit:10;}
	.st26{fill:#F28BA8;}
	.st27{opacity:0.5;fill:#F28BA8;}
	.st28{fill:none;}
</style>
<path class="st19" d="M375.1,167.4c-8,15-19.8,27.1-33.8,35.5c-14,8.4-30.3,13.1-47.3,13.1h-41v19.6c0,6.6-5.4,12-12,12
	c6.6,0,12,5.4,12,12v104.2c0,6.6-5.4,12-12,12h-52c-6.6,0-12-5.4-12-12V259.6c0-6.6,5.4-12,12-12c-6.6,0-12-5.4-12-12V216h-41
	c-17,0-33.2-4.7-47.3-13.1c-4.5-2.7-8.8-5.8-12.8-9.3c-8.4-7.3-15.6-16.1-21-26.3H177v-4c0-6.6,5.4-12,12-12h2.4
	c-7.9,0-14.4-6.5-14.4-14.4V55.2l22,24h32.2l21.8-24V137c0,7.9-6.5,14.4-14.4,14.4h2.4c6.6,0,12,5.4,12,12v4H375.1z"/>
<path class="st20" d="M180.1,243.6c-0.4-0.4-0.8-0.9-1.1-1.4C179.4,242.7,179.8,243.2,180.1,243.6z"/>
<path class="st20" d="M253,163.4v72.2c0,6.6-5.4,12-12,12h-37.5c-6.6,0-12,5.4-12,12v104.2c0,6.6,5.4,12,12,12H189
	c-6.6,0-12-5.4-12-12V259.6c0-6.6,5.4-12,12-12c-3.5,0-6.7-1.5-8.9-3.9c-0.4-0.4-0.7-0.9-1.1-1.4c-0.2-0.3-0.4-0.7-0.6-1
	c-0.1-0.2-0.3-0.5-0.4-0.8c-0.4-0.8-0.6-1.6-0.8-2.5c-0.2-0.8-0.2-1.6-0.2-2.4v-72.2c0-0.8,0.1-1.6,0.2-2.4c0.2-0.9,0.5-1.7,0.8-2.5
	c0.1-0.3,0.2-0.5,0.4-0.8c0.2-0.3,0.4-0.7,0.6-1c0.3-0.5,0.7-0.9,1.1-1.4c2.2-2.4,5.4-3.9,8.9-3.9h2.4c-7.9,0-14.4-6.5-14.4-14.4
	V55.2l14.5,15.9V137c0,7.9,6.5,14.4,14.4,14.4H241C247.6,151.4,253,156.8,253,163.4z"/>
<path class="st20" d="M177,235.6c0,0.8,0.1,1.6,0.2,2.4C177.1,237.2,177,236.4,177,235.6l0-19.6h0V235.6z"/>
<path class="st20" d="M177.3,238c0.2,0.9,0.5,1.7,0.8,2.5C177.7,239.7,177.4,238.8,177.3,238z"/>
<path class="st20" d="M177.3,161c-0.2,0.8-0.2,1.6-0.2,2.4v4h0v-4C177,162.6,177.1,161.8,177.3,161z"/>
<path class="st20" d="M178.1,158.5c-0.4,0.8-0.6,1.6-0.8,2.5C177.4,160.1,177.7,159.3,178.1,158.5z"/>
<path class="st20" d="M180.1,155.3c-0.4,0.4-0.7,0.9-1.1,1.4C179.4,156.2,179.7,155.8,180.1,155.3z"/>
<path class="st1" d="M177,167.4V216h-41c-13.2,0-26-2.8-37.6-8.1c-3.3-1.5-6.5-3.2-9.7-5c-4.5-2.7-8.8-5.8-12.8-9.3
	c-8.4-7.3-15.6-16.1-21-26.3H177z"/>
<path class="st2" d="M167.7,216H136c-13.2,0-26-2.8-37.6-8.1c-3.3-1.5-6.5-3.2-9.7-5c-4.5-2.7-8.8-5.8-12.8-9.3
	c-8.4-7.3-15.6-16.1-21-26.3h31.6c5.4,10.1,12.6,19,21,26.3c4,3.5,8.3,6.6,12.8,9.3c3.1,1.9,6.3,3.5,9.6,5
	C141.7,213.2,154.4,216,167.7,216z"/>
<path class="st1" d="M375.1,167.4c-8,15-19.8,27.1-33.8,35.5c-14,8.4-30.3,13.1-47.3,13.1h-41v-48.6H375.1z"/>
<path class="st11" d="M253,349.1v14.7c0,6.6-5.4,12-12,12h-52c-6.6,0-12-5.4-12-12v-14.7H253z"/>
<path class="st12" d="M203.5,375.8H189c-6.6,0-12-5.4-12-12v-14.7h14.5v14.7C191.5,370.4,196.9,375.8,203.5,375.8z"/>
<polygon class="st17" points="253,54.9 253,95.4 215,117.9 215,117.8 177,95.3 177,54.9 199,78.9 231.2,78.9 "/>
<polygon class="st18" points="189.9,69.3 189.9,103.2 177,95.6 177,55.2 "/>
<rect x="153.6" y="167.4" class="st9" width="23.4" height="48.6"/>
<rect x="253" y="167.4" class="st9" width="23.4" height="48.6"/>
<rect x="253" y="167.4" class="st24" width="13.9" height="48.6"/>
<path class="st1" d="M205.9,288.4c0,8-6.5,14.5-14.5,14.5s-14.5-6.5-14.5-14.5c0-8,6.5-14.5,14.5-14.5S205.9,280.5,205.9,288.4z"/>
<path class="st1" d="M253,288.4c0,8-6.5,14.5-14.5,14.5c-8,0-14.5-6.5-14.5-14.5c0-8,6.5-14.5,14.5-14.5
	C246.5,274,253,280.5,253,288.4z"/>
<path class="st2" d="M196,302.2c-1.4,0.5-3,0.7-4.5,0.7c-8,0-14.5-6.5-14.5-14.5c0-8,6.5-14.5,14.5-14.5c1.6,0,3.1,0.2,4.5,0.7
	c-5.8,1.9-9.9,7.3-9.9,13.7C186.1,294.8,190.2,300.3,196,302.2z"/>
<path class="st2" d="M243.1,302.2c-1.4,0.5-2.9,0.7-4.5,0.7c-8,0-14.5-6.5-14.5-14.5c0-8,6.5-14.5,14.5-14.5c1.6,0,3.1,0.2,4.5,0.7
	c-5.8,1.9-9.9,7.3-9.9,13.7C233.1,294.8,237.3,300.3,243.1,302.2z"/>
<g>
	<path class="st7" d="M177,272h-7.7c-6.2,0-12.3-2.6-16.6-7.1l-7-7.3c-1.3-1.4-1.3-3.6,0.1-4.9c1.4-1.3,3.6-1.3,4.9,0.1l7,7.3
		c3,3.1,7.2,4.9,11.5,4.9h7.7c1.9,0,3.5,1.6,3.5,3.5S178.9,272,177,272z"/>
	<path class="st7" d="M260.7,272H253c-1.9,0-3.5-1.6-3.5-3.5s1.6-3.5,3.5-3.5h7.7c4.3,0,8.5-1.8,11.5-4.9l7-7.3
		c1.3-1.4,3.5-1.5,4.9-0.1c1.4,1.3,1.5,3.5,0.1,4.9l-7,7.3C273,269.4,266.9,272,260.7,272z"/>
	<path class="st7" d="M253,352.1h-76c-1.9,0-3.5-1.6-3.5-3.5s1.6-3.5,3.5-3.5h76c1.9,0,3.5,1.6,3.5,3.5S254.9,352.1,253,352.1z"/>
	<path class="st7" d="M241,378.8h-52c-8.5,0-15.5-7-15.5-15.5V259.1c0-8.5,7-15.5,15.5-15.5h52c8.5,0,15.5,7,15.5,15.5v104.2
		C256.5,371.8,249.5,378.8,241,378.8z M189,250.6c-4.7,0-8.5,3.8-8.5,8.5v104.2c0,4.7,3.8,8.5,8.5,8.5h52c4.7,0,8.5-3.8,8.5-8.5
		V259.1c0-4.7-3.8-8.5-8.5-8.5H189z"/>
	<path class="st7" d="M215,334.2c-0.9,0-1.8-0.3-2.5-1l-9.7-9.7c-1.4-1.4-1.4-3.6,0-4.9c1.4-1.4,3.6-1.4,5,0l7.2,7.2l7.2-7.2
		c1.4-1.4,3.6-1.4,5,0c1.4,1.4,1.4,3.6,0,4.9l-9.7,9.7C216.8,333.9,215.9,334.2,215,334.2z"/>
	<g>
		<path class="st7" d="M200.3,250.6c-1.9,0-3.5-1.6-3.5-3.5v-58.6c0-1.9,1.6-3.5,3.5-3.5s3.5,1.6,3.5,3.5v58.6
			C203.8,249,202.3,250.6,200.3,250.6z"/>
		<path class="st7" d="M229.7,250.6c-1.9,0-3.5-1.6-3.5-3.5v-58.6c0-1.9,1.6-3.5,3.5-3.5s3.5,1.6,3.5,3.5v58.6
			C233.2,249,231.6,250.6,229.7,250.6z"/>
	</g>
	<path class="st7" d="M215,121.2c-0.6,0-1.2-0.2-1.8-0.5l-38-22.6c-1.7-1-2.2-3.1-1.2-4.8c1-1.7,3.1-2.2,4.8-1.2l38,22.6
		c1.7,1,2.2,3.1,1.2,4.8C217.4,120.5,216.2,121.2,215,121.2z"/>
	<path class="st7" d="M215,121.3c-1.2,0-2.4-0.6-3-1.7c-1-1.7-0.4-3.8,1.2-4.8l38-22.6c1.7-1,3.8-0.4,4.8,1.2c1,1.7,0.4,3.8-1.2,4.8
		l-38,22.6C216.2,121.1,215.6,121.3,215,121.3z"/>
	<path class="st7" d="M241,250.6h-52c-8.5,0-15.5-7-15.5-15.5v-72.2c0-8.5,7-15.5,15.5-15.5h52c8.5,0,15.5,7,15.5,15.5v72.2
		C256.5,243.6,249.5,250.6,241,250.6z M189,154.4c-4.7,0-8.5,3.8-8.5,8.5v72.2c0,4.7,3.8,8.5,8.5,8.5h52c4.7,0,8.5-3.8,8.5-8.5
		v-72.2c0-4.7-3.8-8.5-8.5-8.5H189z"/>
	<g>
		<path class="st7" d="M153.6,219c-1.9,0-3.5-1.6-3.5-3.5v-48.6c0-1.9,1.6-3.5,3.5-3.5s3.5,1.6,3.5,3.5v48.6
			C157.1,217.4,155.5,219,153.6,219z"/>
		<path class="st7" d="M276.4,219c-1.9,0-3.5-1.6-3.5-3.5v-48.6c0-1.9,1.6-3.5,3.5-3.5s3.5,1.6,3.5,3.5v48.6
			C279.9,217.4,278.4,219,276.4,219z"/>
	</g>
	<path class="st7" d="M238.6,154.4h-47.2c-9.9,0-17.9-8-17.9-17.9V54.7c0-1.4,0.9-2.7,2.2-3.3c1.3-0.5,2.9-0.2,3.8,0.9l20.9,22.9
		h29.1l20.7-22.9c1-1.1,2.5-1.4,3.9-0.9c1.4,0.5,2.2,1.8,2.2,3.3v81.8C256.5,146.4,248.5,154.4,238.6,154.4z M180.5,63.7v72.7
		c0,6,4.9,10.9,10.9,10.9h47.2c6,0,10.9-4.9,10.9-10.9V63.8l-15.7,17.3c-0.7,0.7-1.6,1.1-2.6,1.1H199c-1,0-1.9-0.4-2.6-1.1
		L180.5,63.7z"/>
	<path class="st7" d="M177,219h-41c-35.3,0-67.6-19.3-84.2-50.5c-0.6-1.1-0.5-2.4,0.1-3.5s1.8-1.7,3-1.7H177c1.9,0,3.5,1.6,3.5,3.5
		s-1.6,3.5-3.5,3.5H60.9C77.1,196.2,105.3,212,136,212h41c1.9,0,3.5,1.6,3.5,3.5S178.9,219,177,219z"/>
	<path class="st7" d="M294,219h-41c-1.9,0-3.5-1.6-3.5-3.5s1.6-3.5,3.5-3.5h41c30.7,0,59-15.8,75.1-41.6H253c-1.9,0-3.5-1.6-3.5-3.5
		s1.6-3.5,3.5-3.5h122.1c1.2,0,2.4,0.6,3,1.7c0.6,1.1,0.7,2.4,0.1,3.5C361.6,199.7,329.3,219,294,219z"/>
	<path class="st7" d="M98.4,210.9c-1.3,0-2.6-0.7-3.2-2c-0.8-1.7-0.1-3.8,1.6-4.7l23.2-11.1c1.7-0.8,3.8-0.1,4.7,1.6
		c0.8,1.7,0.1,3.8-1.6,4.7l-23.2,11.1C99.4,210.8,98.9,210.9,98.4,210.9z"/>
	<path class="st7" d="M75.8,196.7c-1.4,0-2.7-0.8-3.3-2.2c-0.7-1.8,0.2-3.8,2-4.5l17.2-6.9c1.8-0.7,3.8,0.2,4.5,2
		c0.7,1.8-0.2,3.8-2,4.5l-17.2,6.9C76.7,196.6,76.2,196.7,75.8,196.7z"/>
	<g>
		<path class="st7" d="M331.3,210.9c-0.5,0-1-0.1-1.5-0.3l-23.2-11.1c-1.7-0.8-2.5-2.9-1.6-4.7c0.8-1.7,2.9-2.5,4.7-1.6l23.2,11.1
			c1.7,0.8,2.5,2.9,1.6,4.7C333.9,210.2,332.6,210.9,331.3,210.9z"/>
		<path class="st7" d="M353.9,196.7c-0.4,0-0.9-0.1-1.3-0.3l-17.2-6.9c-1.8-0.7-2.7-2.8-2-4.5c0.7-1.8,2.8-2.7,4.5-2l17.2,6.9
			c1.8,0.7,2.7,2.8,2,4.5C356.6,195.9,355.3,196.7,353.9,196.7z"/>
	</g>
	<path class="st7" d="M191.5,305.9c-9.9,0-18-8.1-18-18s8.1-18,18-18s18,8.1,18,18S201.4,305.9,191.5,305.9z M191.5,277
		c-6,0-11,4.9-11,11s4.9,11,11,11s11-4.9,11-11S197.5,277,191.5,277z"/>
	<path class="st7" d="M238.5,305.9c-9.9,0-18-8.1-18-18s8.1-18,18-18s18,8.1,18,18S248.4,305.9,238.5,305.9z M238.5,277
		c-6,0-11,4.9-11,11s4.9,11,11,11s11-4.9,11-11S244.6,277,238.5,277z"/>
</g>
</svg>
