<?xml version="1.0" encoding="utf-8"?>
<!-- Generator: Adobe Illustrator 26.0.3, SVG Export Plug-In . SVG Version: 6.00 Build 0)  -->
<svg version="1.1" id="Warstwa_1" xmlns="http://www.w3.org/2000/svg" xmlns:xlink="http://www.w3.org/1999/xlink" x="0px" y="0px"
	 viewBox="0 0 430 430" style="enable-background:new 0 0 430 430;" xml:space="preserve">
<style type="text/css">
	.st0{fill:#4bb3fd;}
	.st1{opacity:0.5;fill:#4bb3fd;enable-background:new    ;}
	.st2{fill:#2CA58D;}
	.st3{opacity:0.5;fill:#2CA58D;enable-background:new    ;}
	.st4{fill:#121331;}
	.st5{fill:#646e78;}
</style>
<path class="st0" d="M350.1,214.7c0,63.3-36.7,117.9-89.9,144l24.7-35.2l8.7-32.8c-38.7-14.7-69.1-38.5-69.1-38.5l-30.1,27.4
	l-1.4,12c-0.8,7.2,1.8,14.3,7.1,19.3c6.6,6.2,15.2,14.8,17.6,19.9c5,10.3,7.5,26.9,8.8,39.9c-11.7,2.7-23.9,4.2-36.5,4.2
	c-88.4,0-160.1-71.7-160.1-160.1c0-45.1,18.7-85.9,48.7-115l27.8,0.4c9-4.2,13-1.3,19.5,7.2c12.2,16-12.4,41.5-12.4,41.5l12.1,68.6
	l51.5,28.1l19.6-16.9l-14.2-29.2l-20.2-14.7c-3.4-18.4,22.7-22.3,22.7-22.3l26.9,20.1l13.8-27.3l44.5-1.7c0,0,6.4-17.6,5.2-26.9
	c-0.4-3.3-9.7-15.9-9.7-15.9l-27.1,2.3l-20.1-15l36.5-23.4l-3.9-7.9C309.1,90.7,350.1,147.9,350.1,214.7z"/>
<path class="st1" d="M199.1,374.6c-3,0.2-6.1,0.3-9.1,0.3c-88.4,0-160.1-71.7-160.1-160.1c0-45.1,18.7-85.9,48.7-115l18.1,0.3
	c-29.9,29.1-48.4,69.7-48.4,114.7C48.1,300.1,114.9,369.8,199.1,374.6z"/>
<path class="st2" d="M270.2,153.5l-44.5,1.7l-13.8,27.3l-26.9-20.1c0,0-26.1,4-22.7,22.3l20.2,14.7l14.2,29.2L177,245.6l-51.5-28.1
	l-12.1-68.6c0,0,24.5-25.5,12.4-41.5c-6.5-8.6-10.5-11.4-19.5-7.2l-27.8-0.4c28.8-28,68.1-45.1,111.4-45.1
	c21.6,0,42.2,4.3,61.1,12.1l3.9,7.9L218.4,98l20.1,15l27.1-2.3c0,0,9.3,12.6,9.7,15.9C276.5,135.9,270.2,153.5,270.2,153.5z"/>
<path class="st2" d="M293.5,290.7l-8.7,32.8l-24.7,35.2c-10.6,5.2-21.9,9.2-33.7,12c-1.3-13-3.9-29.6-8.8-39.9
	c-2.4-5.1-11-13.7-17.6-19.9c-5.3-5-7.9-12.1-7.1-19.3l1.4-12l30.1-27.4C224.4,252.2,254.8,276,293.5,290.7z"/>
<path class="st3" d="M189.1,235L177,245.6l-51.5-28.1l-12.1-68.6c0,0,24.5-25.5,12.4-41.5c-6.5-8.6-10.5-11.4-19.5-7.2l-27.8-0.4
	c4.9-4.8,10.1-9.2,15.6-13.3l28.9,0.4c9.5-4.4,13.6-1.4,20.5,7.6c12.7,16.8-13,43.6-13,43.6l12.6,71.9L189.1,235z"/>
<path class="st3" d="M248.3,363.9c-7.1,2.8-14.3,5-21.8,6.8c-1.3-13-3.9-29.6-8.8-39.9c-2.4-5.1-11-13.7-17.6-19.9
	c-5.3-5-7.9-12.1-7.1-19.3l1.4-12l30.1-27.4c0,0,3.3,2.6,9,6.5l-18,16.4l-1.5,12.6c-0.9,7.5,1.9,15,7.4,20.2
	c7,6.5,15.9,15.6,18.5,20.9C244.1,337.9,246.7,351.6,248.3,363.9z"/>
<path class="st4" d="M177,249.6c-0.6,0-1.1-0.1-1.7-0.4l-51.5-28.1c-0.9-0.5-1.6-1.4-1.8-2.5L110,150.1c-0.2-1.1,0.2-2.2,0.9-3
	c0.2-0.2,22.3-23.5,12.1-37c-6.3-8.3-8.6-9.3-15.2-6.2c-0.5,0.2-1,0.3-1.5,0.3l-27.8-0.4c-1.4,0-2.7-0.9-3.2-2.2s-0.2-2.8,0.8-3.8
	c30.7-29.8,71.1-46.1,113.9-46.1c21.6,0,42.6,4.2,62.4,12.3c0.8,0.3,1.4,0.9,1.8,1.7l3.9,7.9c0.8,1.6,0.2,3.5-1.2,4.5l-32.2,20.7
	l15,11.2l25.8-2.2c1.2-0.1,2.4,0.4,3.1,1.4c3.7,5,9.9,13.9,10.4,17.6c1.2,10-5.1,27.7-5.4,28.5c-0.5,1.3-1.7,2.2-3.2,2.3l-42.5,1.6
	l-12.9,25.5c-0.5,0.9-1.3,1.6-2.3,1.8s-2.1,0-2.9-0.6L184,166.7c-3.5,0.8-12.5,3.2-16.6,9c-1.6,2.2-2.2,4.8-2,7.6l19,13.8
	c0.5,0.3,0.8,0.8,1.1,1.3l14.2,29.2c0.7,1.4,0.3,3.1-0.9,4.2l-19.6,16.9C178.6,249.3,177.8,249.6,177,249.6z M128.6,215.8l47.9,26.1
	l15.7-13.6l-12.6-26l-19.5-14.2c-0.7-0.5-1.2-1.3-1.4-2.2c-1-5.3,0-10.1,2.9-14.3c6.9-9.6,22-12.1,22.7-12.2
	c0.9-0.1,1.9,0.1,2.6,0.7l23.6,17.6l11.9-23.6c0.6-1.1,1.7-1.9,3-1.9l42.1-1.6c1.9-5.9,5-17,4.3-23c-0.4-1.5-4.2-7.5-7.9-12.7
	l-25.2,2.1c-0.9,0.1-1.7-0.2-2.4-0.7l-20.1-15c-0.9-0.7-1.4-1.8-1.4-2.9s0.6-2.2,1.6-2.8l33.9-21.7l-1.9-3.9
	c-18.6-7.5-38.3-11.3-58.5-11.3c-38,0-74.1,13.5-102.6,38.3l18.2,0.3c11.4-5,17,0.7,23,8.6c12.2,16.1-6.3,38.9-11.4,44.7
	L128.6,215.8z M270.2,154L270.2,154L270.2,154z"/>
<path class="st4" d="M189.9,378.9c-90.2,0-163.6-73.4-163.6-163.6c0-44.7,17.7-86.4,49.8-117.5c0.7-0.7,1.6-1,2.5-1l27,0.4
	c11.4-5,17,0.7,23,8.6c12.2,16.1-6.3,38.9-11.4,44.7l11.5,65.2l47.9,26.1l15.7-13.6l-12.6-26l-19.5-14.2c-0.7-0.5-1.2-1.3-1.4-2.2
	c-1-5.3,0-10.1,2.9-14.3c6.9-9.6,22-12.1,22.7-12.2c0.9-0.1,1.9,0.1,2.6,0.7l23.6,17.6l11.9-23.6c0.6-1.1,1.7-1.9,3-1.9l42.1-1.6
	c1.9-5.9,5-17,4.3-23c-0.4-1.5-4.2-7.5-7.9-12.7l-25.2,2.1c-0.9,0.1-1.7-0.2-2.4-0.7l-20.1-15c-0.9-0.7-1.4-1.8-1.4-2.9
	s0.6-2.2,1.6-2.8l33.9-21.7l-2.5-5.1c-0.6-1.3-0.4-2.9,0.6-3.9s2.5-1.4,3.9-0.8c61.5,25.4,101.2,84.8,101.2,151.3
	c0,31.2-8.8,61.6-25.5,87.8c-16.3,25.5-39.2,46-66.4,59.3c-1.4,0.7-3.2,0.3-4.2-0.9c-1-1.2-1.1-3-0.2-4.3l24.4-34.7l7.7-29.2
	c-31.7-12.5-57.1-30.4-64.8-36l-26.9,24.5l-1.2,10.7c-0.7,6,1.5,12.2,6,16.3c10.1,9.5,16.2,16.5,18.4,20.9
	c4.2,8.7,7.3,22.5,9.2,41.1c0.2,1.8-1,3.4-2.7,3.8C215.1,377.5,202.6,378.9,189.9,378.9z M79.9,103.8
	C49.8,133.5,33.3,173,33.3,215.3c0,86.4,70.3,156.6,156.6,156.6c11,0,22-1.1,32.7-3.4c-1.8-16-4.6-28.2-8.2-35.7
	c-1-2.1-4.5-7.2-16.9-18.9c-6-5.7-9.1-14-8.1-22.2l1.4-12c0.1-0.8,0.5-1.6,1.1-2.2l30.1-27.4c1.3-1.1,3.2-1.2,4.5-0.2
	c0.3,0.2,30.5,23.6,68.2,38c1.7,0.6,2.6,2.4,2.1,4.2l-8.7,32.8c-0.1,0.4-0.3,0.8-0.5,1.1L271.6,349c46.6-28.3,74.9-78.3,74.9-133.7
	c0-60.5-34.4-114.9-88.3-141c0.3,1.4-0.2,2.9-1.5,3.8l-32.2,20.7l15,11.2l25.8-2.2c1.2-0.1,2.4,0.4,3.1,1.4
	c3.7,5,9.9,13.9,10.4,17.5c1.2,10-5.1,27.7-5.4,28.5c-0.5,1.3-1.7,2.2-3.2,2.3l-42.5,1.6l-12.9,25.5c-0.5,0.9-1.3,1.6-2.3,1.8
	s-2.1,0-2.9-0.6L184,166.7c-3.5,0.8-12.5,3.2-16.6,9c-1.6,2.2-2.2,4.8-2,7.6l19,13.8c0.5,0.3,0.8,0.8,1.1,1.3l14.2,29.2
	c0.7,1.4,0.3,3.1-0.9,4.2l-19.6,16.9c-1.1,1-2.7,1.1-4,0.4l-51.5-28.1c-0.9-0.5-1.6-1.4-1.8-2.5L110,150.1c-0.2-1.1,0.2-2.2,0.9-3
	c0.2-0.2,22.3-23.5,12.1-37c-6.3-8.3-8.6-9.3-15.2-6.2c-0.5,0.2-1,0.3-1.5,0.3L79.9,103.8z"/>
<path class="st4" d="M226.4,374.7c-0.7,0-1.4-0.2-2-0.6c-0.8-0.6-1.4-1.5-1.4-2.5c-1.8-17.5-4.7-30.9-8.5-38.7
	c-1-2.1-4.5-7.2-16.9-18.9c-6-5.7-9.1-14-8.1-22.2l1.4-12c0.1-0.8,0.5-1.6,1.1-2.2l30.1-27.4c1.3-1.1,3.2-1.2,4.5-0.2
	c0.3,0.2,30.5,23.6,68.2,38c1.7,0.6,2.6,2.4,2.1,4.2l-8.7,32.8c-0.1,0.4-0.3,0.8-0.5,1.1L263,361.3c-0.3,0.5-0.8,0.9-1.3,1.1
	c-11,5.4-22.6,9.5-34.4,12.2C226.9,374.7,226.7,374.7,226.4,374.7z M197.6,281.9l-1.2,10.7c-0.7,6,1.5,12.2,6,16.3
	c10.1,9.5,16.2,16.5,18.4,20.9c3.9,8.1,6.8,20.5,8.7,37.1c9.7-2.5,19.2-6,28.3-10.4l23.9-33.9l7.7-29.2
	c-31.7-12.5-57.1-30.4-64.8-36L197.6,281.9z"/>
<path class="st5" d="M343.1,156.9l53.3,14c4.5,1.2,4.3,7.3-0.3,8.5l-45.8,5.3l8.7,33.6l21.1,5.5c2.8,0.7,4.3,10.6,1.4,11.4l-30-2.8
	l-24.9,17c-2.9,0.7-6.4-8.6-4.3-10.6l15.8-15.1l-8.7-33.6l-42.6,17.7c-4.6,1.2-7.7-4-4.4-7.3l39.7-38.2l-5.2-20.1
	c-1.5-5.8,2-11.7,7.7-13.2l0,0c5.8-1.5,11.7,2,13.2,7.7L343.1,156.9z"/>
<path class="st4" d="M326.4,253c-1.5,0-3.9-0.7-5.9-4.4c-1.6-2.9-3.8-9.1-0.5-12.3l14.3-13.7l-7.2-27.7L288.2,211
	c-0.1,0.1-0.3,0.1-0.5,0.1c-3.7,1-7.4-0.6-9.2-3.8c-1.7-3.1-1.1-6.9,1.5-9.4l38.2-36.8l-4.7-18.1c-2-7.6,2.6-15.5,10.2-17.5
	s15.5,2.6,17.5,10.2L346,154l51.3,13.4c3.5,0.9,5.9,3.9,5.9,7.5c0,3.7-2.5,6.8-6.2,7.8c-0.2,0-0.3,0.1-0.5,0.1l-41.8,4.9l7.2,27.7
	l19.1,5c4.4,1.2,5.6,7.7,5.6,11c0,5.5-2.9,6.9-4.2,7.2c-0.4,0.1-0.8,0.1-1.2,0.1l-28.8-2.6l-23.9,16.3c-0.3,0.2-0.7,0.4-1.1,0.5
	C327.3,252.9,326.9,253,326.4,253z M325.3,240.9c0,1.1,0.6,3.1,1.4,4.4l23-15.8c0.7-0.5,1.5-0.7,2.3-0.6l27.8,2.5
	c0-1.4-0.4-3.6-1-4.5l-20.5-5.4c-1.2-0.3-2.2-1.3-2.5-2.5l-8.7-33.6c-0.3-1-0.1-2,0.5-2.9s1.5-1.4,2.5-1.5l45.5-5.3
	c0.6-0.2,0.8-0.7,0.8-0.9c0-0.4-0.2-0.6-0.7-0.7l-53.3-14c-1.2-0.3-2.2-1.3-2.5-2.5l-5.2-20.1c-1-3.9-5-6.2-8.9-5.2
	c-3.9,1-6.2,5-5.2,8.9l5.2,20.1c0.3,1.2,0,2.5-1,3.4L284.9,203c-0.4,0.3-0.4,0.6-0.2,0.9c0.1,0.2,0.4,0.6,1.1,0.4l42.3-17.6
	c0.9-0.4,2-0.4,2.9,0.1c0.9,0.4,1.6,1.3,1.8,2.2l8.7,33.6c0.3,1.2,0,2.5-1,3.4L325.3,240.9z M396.2,179.3L396.2,179.3L396.2,179.3z"
	/>
</svg>
