<svg height="512" viewBox="0 0 60 60" width="512" xmlns="http://www.w3.org/2000/svg"><g id="Page-1" fill="none" fill-rule="evenodd"><g id="026---Lightening-Bolt" fill-rule="nonzero" transform="translate(-1 -1)"><path id="Shape" d="m7.473 60c-2.0950425-.016301-4.00034372-1.2170397-4.919-3.1-.91972809-1.8764108-.67971812-4.1142995.617-5.753l10.429-13.347c.2685533-.34426.2807283-.8235491.03-1.181-1.3806251-1.9856911-1.1396324-4.675372.572-6.384l6.877-6.892c.3144359-.3126056.3815388-.7966464.164-1.183-.333101-.5903287-.5442749-1.2415332-.621-1.915-.1250607-1.3875694.306641-2.7679356 1.2-3.837l9.028-11.319c2.3491025-2.9422223 6.397753-3.91070039 9.824-2.35l15.826 7.209c1.761022.76302 3.0354629 2.3416823 3.41 4.224.430266 2.3739731-.6999133 4.7582089-2.81 5.928l-7.539 4.2c-.2321707.123499-.4051774.3348752-.4803458.5868771-.0751683.2520019-.0462301.5236153.0803458.7541229.5275722.8905189.7678131 1.9220183.688 2.954-.1623955 1.6366806-1.0895169 3.1000489-2.5 3.946l-8.377 5.246c-.4190621.2687432-.5788562.8033734-.376 1.258 1.00798 2.3864355.0262724 5.1475423-2.262 6.362l-26.284 13.945c-.7935227.4223498-1.67808553.6447777-2.577.648z" fill="#02a8f3"/><path id="Shape" d="m59.913 14.172c-.3751506-1.8829627-1.6508209-3.4617589-3.413-4.224l-15.826-7.209c-1.5306587-.70697562-3.2451422-.91376332-4.9-.591.6550852.11869639 1.2931683.3171738 1.9.591l15.826 7.209c1.761022.76302 3.0354629 2.3416823 3.41 4.224.4305859 2.3740155-.6996779 4.7584298-2.81 5.928l-7.539 4.2c-.2323723.1232986-.4055601.3346733-.4807525.5867558-.0751924.2520824-.0461019.5237937.0807525.7542442.5275722.8905189.7678131 1.9220183.688 2.954-.1623955 1.6366806-1.0895169 3.1000489-2.5 3.946l-8.377 5.246c-.4190621.2687432-.5788562.8033734-.376 1.258 1.00798 2.3864355.0262724 5.1475423-2.262 6.362l-26.284 13.945c-.3461041.18036-.71007229.3241375-1.086.429.48992532.144849.99811069.2186015 1.509.219.89891447-.0032223 1.7834773-.2256502 2.577-.648l26.288-13.944c2.2882724-1.2144577 3.26998-3.9755645 2.262-6.362-.2028562-.4546266-.0430621-.9892568.376-1.258l8.377-5.246c1.4104831-.8459511 2.3376045-2.3093194 2.5-3.946.0798131-1.0319817-.1604278-2.0634811-.688-2.954-.1268544-.2304505-.1559449-.5021618-.0807525-.7542442.0751924-.2520825.2483802-.4634572.4807525-.5867558l7.535-4.201c2.1114783-1.1686834 3.2430424-3.5532947 2.813-5.928z" fill="#0377bb"/><path id="Shape" d="m18.953 35.494-1.665-.834c-.2869516-.1438571-.4874033-.4167191-.5388892-.7335555s.052253-.6391294.2788892-.8664445l10.029-10.049c.2266362-.2273151.3303751-.5496081.2788892-.8664445s-.2519376-.5896984-.5388892-.7335555l-1.653-.828c-.2696346-.1352354-.4638169-.3849577-.5284518-.6795995-.0646348-.2946418.0071849-.6027163.1954518-.8384005l9.165-11.48c1.2054568-1.50895103 3.2820784-2.00585691 5.04-1.206l16.021 7.3c.5647379.2570665.936629.810196.9615724 1.4301878.0249434.6199919-.3013108 1.2012091-.8435724 1.5028122l-13.355 7.431c-.3333239.1853933-.5321607.5442516-.5126159.9251629.0195448.3809114.2540672.7175338.6046159.8678371l3.368 1.446c.3415733.1468864.5734486.4711573.6019977.8418767.0285492.3707194-.1509421.7266698-.4659977.9241233l-12.982 8.13c-.2925226.1850929-.468515.5083065-.4652571.8544542.0032579.3461476.1853026.6659915.4812571.8455458l2.081 1.251c.3092218.1857452.4944422.5236303.4847078.8842196-.0097345.3605892-.212915.6879891-.5317078.8567804l-26.288 13.948c-.61464182.3246123-1.37250214.1760533-1.81910142-.356588-.44659929-.5326414-.46072186-1.3047959-.03389858-1.853412l12.97-16.608c.1831833-.2360952.2511823-.5417407.1853744-.8332306-.0658078-.29149-.2585255-.5382751-.5253744-.6727694z" fill="#ffdb00"/><path id="Shape" d="m55.037 13.676-16.021-7.3c-1.0284598-.46597392-2.2011056-.49876764-3.254-.091.084.032.171.053.254.091l16.021 7.3c.564847.2568655.9369448.8098796.9620999 1.429879s-.3009187 1.2013403-.8430999 1.503121l-13.356 7.434c-.3333239.1853933-.5321607.5442516-.5126159.9251629.0195448.3809114.2540672.7175338.6046159.8678371l3.368 1.446c.3415733.1468864.5734486.4711573.6019977.8418767.0285492.3707194-.1509421.7266698-.4659977.9241233l-12.982 8.13c-.2925226.1850929-.468515.5083065-.4652571.8544542.0032579.3461476.1853026.6659915.4812571.8455458l2.081 1.251c.3092218.1857452.4944422.5236303.4847078.8842196-.0097345.3605892-.212915.6879891-.5317078.8567804l-25.249 13.396c.3939712.6877113 1.26613735.9332165 1.961.552l26.287-13.944c.3187928-.1687913.5219733-.4961912.5317078-.8567804.0097344-.3605893-.175486-.6984744-.4847078-.8842196l-2.081-1.251c-.2959545-.1795543-.4779992-.4993982-.4812571-.8455458-.0032579-.3461477.1727345-.6693613.4652571-.8544542l12.987-8.134c.3150556-.1974535.4945469-.5534039.4659977-.9241233-.0285491-.3707194-.2604244-.6949903-.6019977-.8418767l-3.368-1.446c-.3505487-.1503033-.5850711-.4869257-.6046159-.8678371-.0195448-.3809113.179292-.7397696.5126159-.9251629l13.357-7.434c.5417813-.3026676.8669549-.8846273.8407412-1.5046657-.0262137-.6200383-.3993468-1.1724753-.9647412-1.4283343z" fill="#fdc008"/><g fill="#000"><path id="Shape" d="m56.917 9.038-15.829-7.209c-3.8430183-1.75411354-8.3867117-.66725548-11.02 2.636l-9.033 11.315c-1.055203 1.2795099-1.5610487 2.9246769-1.407 4.576.0892105.8017138.3417363 1.5766483.742 2.277l-6.877 6.891c-2.0518209 2.0499981-2.3387763 5.2760338-.681 7.656l-10.429 13.35c-1.53402115 1.9391722-1.81723229 4.5872742-.728 6.807 1.08645739 2.2266912 3.34045134 3.6458008 5.818 3.663 1.06240296-.0037675 2.10788873-.2663403 3.046-.765l26.288-13.944c2.7546281-1.4610157 3.9287137-4.7902008 2.7-7.656l8.378-5.246c1.6786966-1.0155731 2.7776322-2.7657847 2.963-4.719.0985715-1.2211011-.1807152-2.4429804-.8-3.5l7.539-4.2c2.4919722-1.3656752 3.8274523-4.1753027 3.313-6.97-.427802-2.2097877-1.9180604-4.06634355-3.983-4.962zm-.3 10.192-7.54 4.2c-.4676997.2554406-.8128302.6884604-.9575163 1.2013531-.1446862.5128926-.0767367 1.0624416.1885163 1.5246469.4225926.7139495.6146584 1.5408799.55 2.368-.1372129 1.3195741-.890832 2.4963621-2.032 3.173l-8.38 5.243c-.8401345.5279418-1.1661707 1.5920287-.766 2.5.8051824 1.9090695.0193037 4.1169936-1.811 5.088l-26.288 13.94c-1.07333479.577963-2.33677924.6902928-3.49524322.3107536s-2.11050227-1.2177116-2.63375678-2.3187536c-.75111603-1.5334169-.55385765-3.3620449.507-4.7l10.43-13.35c.5393568-.6889896.564532-1.6497081.062-2.366-1.1022135-1.5889885-.9098239-3.7389534.457-5.107l6.878-6.893c.6287745-.6315204.761884-1.6037094.326-2.381-.267447-.4742446-.4374412-.9971468-.5-1.538-.0929146-1.1225817.260668-2.2365108.984-3.1l9.035-11.312c2.061802-2.58678199 5.6198428-3.43784192 8.629-2.064l15.828 7.209c1.4632279.6230708 2.5255504 1.9270341 2.84 3.486.363662 1.9575988-.5697372 3.9276155-2.315 4.886z"/><path id="Shape" d="m55.451 12.766-16.02-7.3c-2.1751409-.99191148-4.7462076-.37686713-6.237 1.492l-9.166 11.482c-.3763923.4716341-.519728 1.0879939-.3900623 1.6773128.1296656.5893189.5184704 1.0885938 1.0580623 1.3586872l1.653.828-10.028 10.049c-.4533456.454489-.6609805 1.0989657-.5582093 1.7326222.1027711.6336566.5034564 1.1794713 1.0772093 1.4673778l1.665.834-12.97 16.6c-.72254549.9202418-.70198453 2.2207379.04929079 3.1176785s2.02800741 1.1452706 3.06070921.5953215l26.287-13.943c.6371725-.3380325 1.0429703-.9929642 1.062-1.714.0239737-.7217728-.3475129-1.3991895-.969-1.767l-2.082-1.251 12.984-8.125c.63052-.3950938.9895799-1.1075573.9320459-1.8494093-.0575339-.741852-.5221492-1.3904358-1.2060459-1.6835907l-3.367-1.446 13.356-7.435c.8720717-.4849775 1.396663-1.4197614 1.3562826-2.4167978s-.6388479-1.886336-1.5472826-2.2992022zm-.782 2.969-13.356 7.434c-.6666477.3707865-1.0643214 1.0885032-1.0252318 1.8503259s.5081345 1.4350675 1.2092318 1.7356741l3.368 1.445-12.982 8.13c-.589429.3689364-.9449203 1.0175498-.9388012 1.7128937.0061192.6953439.3729706 1.3376004.9688012 1.6961063l2.081 1.252-26.287 13.944c-.19808996.1101735-.44645854.0646841-.59264271-.1085441-.14618416-.1732283-.1492675-.4257094-.00735729-.6024559l12.97-16.6c.3711509-.4723261.5103468-1.0864627.3791124-1.672656-.1312344-.5861932-.5189993-1.0823561-1.0561124-1.351344l-1.665-.834 10.029-10.048c.4533456-.454489.6609805-1.0989657.5582093-1.7326222-.1027711-.6336566-.5034564-1.1794713-1.0772093-1.4673778l-1.653-.828 9.165-11.481c.9185647-1.15155204 2.5028472-1.53041117 3.843-.919l16.02 7.3c.2212327.1007318.3668948.3174515.3766189.5603429s-.1181469.470562-.3306189.5886571z"/><path id="Shape" d="m36.219 10.376-5.589 7c-.2340759.2779793-.2989225.661065-.1693755 1.0005964.129547.3395315.4330938.582058.7928456.6334644.3597519.0514065.7190749-.0963997.9385299-.3860608l5.589-7c.3274587-.4322164.2507758-1.0466634-.1728656-1.3851426-.4236414-.33847913-1.0398592-.27764291-1.3891344.1371426z"/><path id="Shape" d="m29.293 25.293-7 7c-.3789722.3923789-.3735524 1.0160848.0121814 1.4018186s1.0094397.3911536 1.4018186.0121814l7-7c.3789722-.3923789.3735524-1.0160848-.0121814-1.4018186s-1.0094397-.3911536-1.4018186-.0121814z"/><path id="Shape" d="m22.241 38.349-6 7c-.3340753.4212323-.2753078 1.0312217.133041 1.3809275.4083488.3497059 1.020119.3139582 1.384959-.0809275l6-7c.3340753-.4212323.2753078-1.0312217-.133041-1.3809275-.4083488-.3497059-1.020119-.3139582-1.384959.0809275z"/></g></g></g></svg>