<?xml version="1.0" encoding="UTF-8"?>
<svg xmlns="http://www.w3.org/2000/svg" id="artwork" width="512" height="512" viewBox="0 0 64 64"><path d="M48.5,32a6.94029,6.94029,0,0,0-2.88086-5.65625,6.958,6.958,0,0,0-7.96289-7.96289,6.99314,6.99314,0,0,0-11.3125,0,6.958,6.958,0,0,0-7.96289,7.96289,6.99314,6.99314,0,0,0,0,11.3125,6.95852,6.95852,0,0,0,7.96289,7.96289,6.99314,6.99314,0,0,0,11.3125,0,6.95852,6.95852,0,0,0,7.96289-7.96289A6.93831,6.93831,0,0,0,48.5,32ZM32,39a7,7,0,1,1,7-7A7.00818,7.00818,0,0,1,32,39Z" style="fill:#3e3ef4"/><circle cx="32" cy="32" r="4" style="fill:#3e3ef4"/><path d="M63.05865,15.93756,48.06244.94135A1.5757,1.5757,0,0,0,47,.5H8A7.5082,7.5082,0,0,0,.5,8V56A7.5082,7.5082,0,0,0,8,63.5H56A7.5082,7.5082,0,0,0,63.5,56V17A1.57339,1.57339,0,0,0,63.05865,15.93756ZM48.5,5.62109,58.37891,15.5H53A4.50491,4.50491,0,0,1,48.5,11ZM53,18.5V53H11V11H45.5A7.5082,7.5082,0,0,0,53,18.5ZM60.5,56A4.50491,4.50491,0,0,1,56,60.5H8A4.50491,4.50491,0,0,1,3.5,56V8A4.50491,4.50491,0,0,1,8,3.5H45.5V8H9.5A1.49977,1.49977,0,0,0,8,9.5v45A1.50007,1.50007,0,0,0,9.5,56h45A1.50007,1.50007,0,0,0,56,54.5v-36h4.5Z"/></svg>
