<svg id="Capa_1" enable-background="new 0 0 512.058 512.058" height="512" viewBox="0 0 512.058 512.058" width="512" xmlns="http://www.w3.org/2000/svg"><g><g><path d="m460.374 330.996-48.739-193.59c-4.717-.493-9.598-.967-14.625-1.425-43.221-100.833-71.418-128.481-102.527-128.481-31.108 0-59.305 27.647-102.526 128.48-79.455 7.234-119.634 18.873-139.343 36.064-.216.97-8.459 9.895-8.741 10.761-9.613 29.586 7.968 64.946 90.509 137.211-24.301 106.98-17.74 145.921 7.427 164.206s64.23 12.491 158.464-43.679c94.234 56.17 133.297 61.964 158.464 43.679.889-.646 9.752-9.321 10.594-10.02 10.046-24.129 8.604-65.901-8.957-143.206z" fill="#edf6ff"/><path d="m308.274 432.543c-94.234 56.17-133.297 61.964-158.464 43.679s-31.728-57.226-7.427-164.206c-82.542-72.265-100.123-107.625-90.51-137.211.281-.866.525-1.791.741-2.761-7.391 6.447-11.909 13.673-14.531 21.742-9.613 29.586 7.968 64.946 90.509 137.211-24.301 106.98-17.74 145.921 7.427 164.206s64.23 12.491 158.464-43.679c94.234 56.17 133.297 61.964 158.464 43.679 6.981-5.072 12.528-11.738 16.384-21.001-.842.699-1.705 1.374-2.594 2.02-25.166 18.285-64.229 12.491-158.463-43.679z" fill="#cde2ff"/><path d="m475.613 305.547c-1.563-4.813-26.788-66.708-30.284-77.465-3.495-10.757-19.385-75.688-21.062-80.556-1.78-5.168-6.34-9.462-12.633-10.12-4.969 4.969-9.077 8.978-10.677 10.727-49.537 54.168-59.614 87.841-50.029 117.34 9.585 29.498 37.53 50.817 109.445 65.523 3.798-3.325 7.468-6.578 10.994-9.75 4.782-4.3 5.962-10.415 4.246-15.699z" fill="#9ec8fc"/><path d="m373.972 180.821c-5.809-.282-9.256-.392-9.256-.392s-45.445-126.006-70.233-126.006-70.232 126.005-70.232 126.005-133.882 4.283-141.541 27.858c-7.66 23.575 98.135 105.733 98.135 105.733s-37.299 128.652-17.245 143.222 130.883-60.659 130.883-60.659 110.829 75.229 130.883 60.659c18.333-13.32-11.261-121.964-16.475-140.514z" fill="#f8e837"/><path d="m461.169 268.971-27.031-83.274c-23.913-2.849-47.588-4.265-60.166-4.875-26.01 35.97-30.537 61.587-23.043 84.651 6.845 21.067 23.06 37.96 57.962 51.254-.489-1.741-.769-2.708-.769-2.708s27.22-21.139 53.047-45.048z" fill="#ebb044"/><path d="m475.613 305.547c-1.591-4.896-5.434-8.93-11.272-10.123-52.305-10.696-72.629-26.201-79.6-47.655s.358-45.945 36.387-85.342c4.022-4.398 4.731-10.004 3.14-14.901z" fill="#edf6ff"/></g><g><g><path d="m417.142 149.863c-.703-2.162-2.729-4.625-6.287-4.998-4.501-.472-9.388-.947-14.525-1.416-2.743-.25-5.128-1.982-6.213-4.514-20.629-48.128-38.509-80.9-54.663-100.193-13.748-16.42-26.385-23.742-40.971-23.742s-27.222 7.322-40.97 23.742c-16.153 19.292-34.033 52.066-54.663 100.193-1.085 2.531-3.471 4.265-6.213 4.514-52.146 4.748-88.841 11.626-112.18 21.027-19.865 8.001-30.733 17.756-35.241 31.628-4.507 13.872-1.448 28.152 9.92 46.302 13.356 21.324 39 48.457 78.396 82.948 2.072 1.813 2.983 4.618 2.373 7.304-11.599 51.062-16.397 88.086-14.668 113.188 1.471 21.365 7.39 34.717 19.19 43.29 11.8 8.572 26.326 10.075 47.102 4.874 24.408-6.113 58.136-22.117 103.114-48.928 2.366-1.41 5.314-1.41 7.681 0 59.392 35.402 98.996 51.917 124.532 51.917.178 0 .352-.001.528-.003 4.107-.035 7.53 3.291 7.567 7.433.038 4.142-3.29 7.53-7.432 7.567-.219.002-.441.003-.662.003-28.148 0-67.9-16.016-128.373-51.753-59.791 35.35-99.429 51.811-128.251 51.813-13.631 0-24.84-3.681-34.622-10.788-30.464-22.132-33.619-67.729-11.314-167.578-76.734-67.671-100.983-106.413-89.347-142.224s54.026-52.902 155.88-62.546c40.645-93.889 69.999-128.923 107.653-128.923 37.655 0 67.008 35.034 107.654 128.925 3.589.34 7.032.682 10.279 1.022 8.819.922 16.271 6.913 18.985 15.261l51.345 158.022c2.771 8.53.333 17.57-6.363 23.592-2.445 2.2-5.029 4.5-7.714 6.869 22.304 99.849 19.15 145.445-11.313 167.578-3.351 2.438-8.041 1.693-10.476-1.659-2.435-3.351-1.691-8.041 1.66-10.476 11.8-8.574 17.719-21.925 19.19-43.29 1.729-25.102-3.07-62.126-14.668-113.188-.61-2.686.301-5.489 2.373-7.304 3.846-3.367 7.519-6.625 10.918-9.684 2.258-2.03 3.054-4.944 2.131-7.796-.625-1.926-2.115-4.38-5.645-5.103-51.139-10.457-76.628-26.213-85.229-52.686-6.03-18.559-2.25-37.735 12.69-60.816-15.146-.996-25.693-1.341-25.823-1.345-3.072-.099-5.772-2.061-6.815-4.951-.112-.311-11.372-31.428-25.473-62.183-26.517-57.832-37.599-58.864-37.708-58.868-.103.004-11.193 1.038-37.736 58.945-14.096 30.754-25.326 61.795-25.438 62.105-1.042 2.891-3.744 4.853-6.815 4.951-.237.008-24.031.79-51.646 3.399-4.13.391-7.783-2.638-8.172-6.762-.39-4.123 2.638-7.782 6.761-8.172 20.504-1.938 38.948-2.885 47.518-3.258 3.762-10.06 13.168-34.572 24.305-58.836 27.411-59.716 41.776-67.374 51.228-67.374 9.453 0 23.817 7.658 51.228 67.374 11.137 24.264 20.543 48.776 24.305 58.835 6.121.267 17.274.825 30.571 1.825 4.41-5.617 9.406-11.467 15.006-17.592 2.546-2.781 2.066-5.882 1.546-7.497zm6.73 20.713c-36.319 40.662-36.615 60.664-31.998 74.875 4.618 14.211 16.614 30.22 69.897 41.768zm-253.201 296.033c-5.524 0-8.961-1.471-11.479-3.301-7.647-5.556-14.768-20.195-1.843-84.618 5.251-26.175 12.05-51.536 14.92-61.886-8.405-6.686-28.812-23.207-48.446-41.296-48.323-44.522-51.167-60.551-48.246-69.54 2.671-8.222 12.667-18.631 66.716-26.213 4.104-.576 7.894 2.283 8.469 6.385.576 4.102-2.283 7.894-6.385 8.47-50.76 7.121-54.503 15.908-54.536 15.996-.028.099-2.47 10.958 44.337 54.048 24.892 22.914 51.005 43.238 51.266 43.44 2.427 1.886 3.459 5.061 2.604 8.012-.092.317-9.273 32.109-15.941 65.279-12.54 62.374-4.182 69.723-4.096 69.79.086.055 9.657 5.734 65.103-25.466 29.485-16.593 56.884-35.148 57.158-35.334 2.543-1.725 5.881-1.725 8.424 0 .273.186 27.672 18.741 57.157 35.333 55.443 31.2 65.018 25.524 65.108 25.463.081-.063 8.446-7.419-4.118-69.868-6.672-33.166-15.833-64.88-15.925-65.196-.855-2.952.176-6.128 2.604-8.013.022-.018 1.858-1.443 5.01-3.959 3.237-2.584 7.957-2.054 10.54 1.184 2.584 3.238 2.054 7.957-1.184 10.541-.419.335-.816.65-1.189.947 2.87 10.351 9.668 35.71 14.919 61.883 12.924 64.423 5.804 79.063-1.843 84.618-7.647 5.558-23.768 7.805-81.045-24.396-23.271-13.083-45.29-27.387-54.246-33.313-8.956 5.927-30.975 20.23-54.246 33.313-38.413 21.596-58.317 27.696-69.567 27.697z"/></g></g></g></svg>