<svg id="SVGRoot" height="512" viewBox="0 0 512 512" width="512" xmlns="http://www.w3.org/2000/svg" xmlns:svg="http://www.w3.org/2000/svg"><g id="g4297" clip-rule="evenodd" fill-rule="evenodd" stroke-linecap="round" stroke-linejoin="round" stroke-miterlimit="10"><path id="path3502" d="m256.00001 11.000101c-26.79466 0-33.42607 24.252043-45.69811 45.124074 12.10666 9.750265 24.91183 19.802615 42.30069 19.475536 19.58897-.367495 32.95175-13.676631 46.03304-24.882928-10.50168-19.429221-18.13906-39.716682-42.63562-39.716682zm-150.63672 61.728461c-7.895383.220501-15.440402 2.903487-22.585822 10.048913-18.94928 18.949025-6.510869 40.776795-.431209 64.216675 15.456069-1.66601 31.623381-3.64608 43.688411-16.17391 13.60043-14.12179 13.60092-32.964728 14.9298-50.148294-12.41757-3.706358-24.37087-8.269972-35.60167-7.943384zm301.27344 0c-13.04257-.379756-27.02986 5.830749-41.63088 9.618202 1.66601 15.456068 3.64609 31.623356 16.17368 43.688386 14.12203 13.60043 32.96498 13.60092 50.14854 14.9298 6.31193-21.14718 15.20371-40.87823-2.10456-58.187475-7.14542-7.145426-14.69068-9.819348-22.5858-10.048913zm49.2391 137.573328c-9.75025 12.10666-19.80261 24.91183-19.47553 42.30069.3675 19.58897 13.67663 32.95175 24.88293 46.03304 19.42922-10.50168 39.71668-18.13906 39.71668-42.63562 0-26.79466-24.25205-33.42607-45.12408-45.69811zm-405.159057 3.06249c-19.429221 10.50168-39.716682 18.13906-39.716682 42.63562 0 26.79466 24.252043 33.42607 45.124074 45.6981 9.750265-12.10665 19.802623-24.91207 19.475543-42.30069-.3675-19.58896-13.676637-32.95175-24.882935-46.03303zm378.936477 151.64146c-15.45607 1.66601-31.62337 3.64609-43.68839 16.17368-13.60043 14.12203-13.60093 32.96498-14.9298 50.14854 21.14717 6.31193 40.87824 15.2037 58.18747-2.10456 18.94929-18.94927 6.51064-40.77704.43121-64.21667zm-348.981311 6.02921c-6.31194 21.14717-15.203713 40.87824 2.10454 58.18747 18.949051 18.94929 40.776831 6.51064 64.216701.43121-1.66601-15.45607-3.64608-31.62336-16.17392-43.68839-14.12179-13.60043-32.964753-13.60092-50.148302-14.9298zm178.725481 65.36524c-19.58896.3675-32.95175 13.67663-46.03303 24.88293 10.50069 19.42825 18.14028 39.71668 42.63562 39.71668 26.79466 0 33.42607-24.25205 45.6981-45.12408-12.10665-9.75025-24.91207-19.80261-42.30069-19.47553z" fill="#ffca28" stroke-width="22"/><path id="path3502-6" d="m256 11c-4.1178 0-7.71166.630525-10.9707 1.675781 16.09435 5.193858 22.87733 21.893037 31.60547 38.041016-10.72191 9.185094-21.69097 19.666133-36.06446 23.392578 3.77462 1.013198 7.76336 1.570549 12.03321 1.490234 19.58895-.367494 32.94997-13.676526 46.03125-24.882812-10.50167-19.429202-18.13823-39.716797-42.63477-39.716797zm150.63672 61.728516c-4.28673-.124816-8.70841.597171-13.1875 1.576172 4.73164 1.474401 9.33798 4.037192 13.77344 8.472656 16.74786 16.748804 8.96267 35.797196 2.72265 56.169926 7.11858 1.10929 14.38368 1.4763 21.38281 2.01757 6.31193-21.14716 15.20279-40.87827-2.10546-58.187496-7.14542-7.145419-14.68888-9.819264-22.58399-10.048828zm49.23828 137.574214c-2.19769 2.72882-4.38612 5.5151-6.49219 8.35938 15.77002 8.35323 29.61719 17.09406 29.61719 37.33789 0 18.0645-11.05563 26.94814-24.64062 34.58594 2.3126 2.71608 4.6588 5.40483 6.92382 8.04883 19.4292-10.50167 39.7168-18.13823 39.7168-42.63477 0-26.79463-24.25299-33.42524-45.125-45.69727zm-26.22266 154.70313c-6.99621.75412-14.12165 1.62705-20.96289 3.45898 6.29014 22.1086 16.53294 42.7581-1.46679 60.75782-4.42673 4.42647-9.01354 7.12286-13.74024 8.60351 12.71935 2.79026 24.72366 2.41245 35.74024-8.60351 18.94927-18.94925 6.51106-40.77719.43164-64.2168zm-170.25586 71.39453c-3.5331.0663-6.80389.67023-9.96679 1.49023 11.59739 3.11303 21.13373 10.62832 30.26758 17.98438-10.38606 17.6644-16.77893 37.69297-34.72657 43.44922 3.27029 1.05542 6.89251 1.67578 11.0293 1.67578 26.79463 0 33.42525-24.25299 45.69727-45.125-12.10664-9.75024-24.91218-19.80169-42.30079-19.47461z" fill="#ffc107" stroke-width="22"/><path id="path3504" d="m256-.0000019c-16.71607-.0000001-29.30705 8.8113817-37.07617 19.1113279-7.76911 10.299947-12.47221 21.859905-18.10351 31.4375a11.0012 11.0012 0 0 0 2.58203 14.142578c12.18118 9.810284 27.67876 22.314938 49.40625 21.90625 24.47497-.459157 40.36022-16.712662 52.98437-27.527343a11.0012 11.0012 0 0 0 2.51953-13.583985c-5.0197-9.286981-9.63424-19.811675-17.31445-28.978515-7.68021-9.1668402-19.71311-16.5078129-34.99805-16.5078129zm0 21.9999999c9.2116 0 13.24675 2.802538 18.13477 8.636719 3.54443 4.230513 6.98136 10.580128 10.62695 17.464844-10.59861 9.03123-20.19471 16.271677-32.36523 16.5-10.3528.194733-18.88869-4.628824-27.96875-11.435547 4.29096-8.032054 8.13925-15.610547 12.05859-20.806641 5.31325-7.044065 9.43511-10.359375 19.51367-10.359375zm-150.63671 39.728516v.02344c-.10502.0024-.20145-.02256-.30664-.01953-.001.000039-.003-.000038-.004 0-.003.000097-.006-.000097-.01 0a11.0012 11.0012 0 0 0 -.006.002c-10.183543.289141-21.13309 4.3616-30.037108 13.265625-11.818912 11.818752-14.501596 26.946661-12.71875 39.722651 1.782846 12.776 6.627521 24.27475 9.417969 35.03321a11.0012 11.0012 0 0 0 11.826173 8.17578c15.566754-1.67794 35.362436-3.83322 50.431646-19.48047 16.9918-17.64317 16.69338-40.364238 17.97461-56.93164a11.0012 11.0012 0 0 0 -7.81986-11.388722c-11.79075-3.519267-24.41157-8.687937-38.68164-8.375a11.0012 11.0012 0 0 0 -.0664-.02734zm301.59375.0039c-16.75878-.487959-31.28814 6.484462-44.71289 9.966797a11.0012 11.0012 0 0 0 -8.17579 11.826172c1.67795 15.566749 3.83351 35.364357 19.48047 50.433587 17.64338 16.99172 40.36425 16.69143 56.93164 17.97266a11.0012 11.0012 0 0 0 11.38868-7.82032c3.01924-10.11552 7.1855-20.81793 8.22265-32.7246 1.03715-11.906678-2.29204-25.588304-13.08984-36.386718-8.913-8.913006-19.87281-12.971805-30.04492-13.267578zm-301.27539 21.986334v.0059c6.11877-.177932 14.45875 2.210319 23.61914 4.976562-1.10228 13.86171-2.75117 25.72651-11.18946 34.48828-7.18677 7.46245-16.63958 10.1063-27.867186 11.7207-2.642106-8.7101-5.274865-16.78647-6.173829-23.22851-1.218951-8.7351-.644022-13.994748 6.486329-21.125001a11.0012 11.0012 0 0 0 0-.002c5.381204-5.381208 9.511526-6.673633 15.113286-6.830078a11.0012 11.0012 0 0 0 .0117-.0059zm300.63476.0059a11.0012 11.0012 0 0 0 .002 0c5.61811.163356 9.74913 1.452246 15.12696 6.830078 6.51044 6.510816 7.39012 11.348934 6.73047 18.921874-.47819 5.48961-2.52896 12.39931-4.8125 19.83203-13.88936-1.10223-25.77738-2.74602-34.55274-11.19727-7.45135-7.17622-10.09968-16.60872-11.71484-27.814447 11.53305-3.413833 21.89955-6.785433 29.2207-6.572265zm47.58399 115.755852a11.0012 11.0012 0 0 0 -6.5918 3.92188c-9.81026 12.18118-22.31494 27.67876-21.90625 49.40625.45916 24.47497 16.71266 40.35827 27.52734 52.98242a11.0012 11.0012 0 0 0 13.58399 2.52149c9.28698-5.01971 19.81167-9.63424 28.97851-17.31446 9.16684-7.68021 16.50781-19.71311 16.50781-34.99804 0-16.71608-8.81138-29.30706-19.11132-37.07618-10.29995-7.76911-21.85991-12.47417-31.4375-18.10546a11.0012 11.0012 0 0 0 -7.55078-1.3379zm-401.177741 3.06836a11.0012 11.0012 0 0 0 -7.236328 1.13868c-9.286981 5.0197-19.811675 9.63424-28.978516 17.31445-9.1668405 7.68021-16.5078125 19.71311-16.5078125 34.99805 0 16.71607 8.811381 29.30705 19.1113285 37.07617 10.299947 7.76912 21.859904 12.47222 31.4375 18.10351a11.0012 11.0012 0 0 0 14.142578-2.58203c9.810025-12.18089 22.314129-27.68003 21.906249-49.40629-.459163-24.47496-16.712659-40.36023-27.527343-52.98437a11.0012 11.0012 0 0 0 -6.347656-3.65821zm406.111331 21.87891c8.03205 4.29096 15.61055 8.13925 20.80664 12.05859 7.04407 5.31325 10.35937 9.43511 10.35937 19.51368 0 9.21159-2.80253 13.24674-8.63671 18.13476-4.23052 3.54443-10.58013 6.98136-17.46485 10.62695-9.03123-10.59861-16.27167-20.19471-16.5-32.36523-.19473-10.35279 4.62883-18.88869 11.43555-27.96875zm-410.732425 2.81055c9.03123 10.59861 16.271675 20.19472 16.5 32.36523.194739 10.35295-4.626465 18.89021-11.433593 27.9707-8.032964-4.2915-15.611997-8.14082-20.808594-12.06054-7.044065-5.31325-10.359375-9.43511-10.359375-19.51367 0-9.2116 2.802538-13.24674 8.636719-18.13477 4.230513-3.54443 10.580127-6.98135 17.464843-10.62695zm380.373045 126.83004c-15.56676 1.67794-35.36437 3.83349-50.43359 19.48046-16.99172 17.64338-16.69144 40.36424-17.97266 56.93164a11.0012 11.0012 0 0 0 7.82032 11.38868c10.11552 3.01924 20.81793 7.1855 32.72461 8.22265 11.90667 1.03715 25.58831-2.29204 36.38671-13.08984 11.8189-11.81889 14.50163-26.94668 12.71875-39.72266-1.78287-12.77598-6.62764-24.27689-9.41796-35.03515a11.0012 11.0012 0 0 0 -.78907-2.11719 11.0012 11.0012 0 0 0 -11.03711-6.05859zm-347.789061 5.96679a11.0012 11.0012 0 0 0 -4.933594 1.16016v.002a11.0012 11.0012 0 0 0 -5.220703 7.02735l-.400391-.33594c-3.019249 10.11552-7.185504 20.81793-8.222656 32.72461-1.037152 11.90667 2.292044 25.58831 13.089844 36.38672 11.81878 11.81893 26.946681 14.50162 39.722661 12.71875 12.77598-1.78288 24.27482-6.62765 35.0332-9.41797a11.0012 11.0012 0 0 0 8.17578-11.82617c-1.67794-15.56676-3.83321-35.36244-19.48047-50.43165-17.64317-16.99181-40.362303-16.69337-56.929687-17.9746l.0332.17382a11.0012 11.0012 0 0 0 -.867187-.20703zm341.070311 17.05274c2.64226 8.71079 5.27479 16.78797 6.17383 23.23047 1.21898 8.7351.646 13.99658-6.48437 21.12695-6.51081 6.51044-11.34894 7.38817-18.92188 6.72851-5.48961-.47818-12.39932-2.527-19.83203-4.81054 1.10223-13.88935 2.74602-25.77737 11.19727-34.55274 7.18713-7.46268 16.63877-10.10827 27.86718-11.72265zm-333.119139 5.60547c13.888489 1.10223 25.778019 2.74454 34.552739 11.19531 7.46285 7.18716 10.10828 16.6388 11.72265 27.86719-8.71086 2.64225-16.78992 5.27478-23.23242 6.17382-8.73512 1.21898-13.994753.64402-21.125001-6.48632-6.509337-6.5102-7.388129-11.34746-6.728515-18.91993.478144-5.48917 2.52724-12.39808 4.810547-19.83007zm170.554689 42.70898c-24.47496.45916-40.36023 16.71265-52.98437 27.52734a11.0012 11.0012 0 0 0 -2.51954 13.58399c5.01935 9.28674 9.63403 19.81167 17.31446 28.97851 7.68043 9.16685 19.71342 16.50782 34.99804 16.50782 16.71608 0 29.30706-8.81138 37.07618-19.11133 7.76911-10.29995 12.47222-21.85991 18.10351-31.4375a11.0012 11.0012 0 0 0 -2.58203-14.14258c-12.18122-9.81031-27.67893-22.31494-49.40625-21.90625zm.41211 21.99609c10.35295-.19474 18.8902 4.62647 27.9707 11.4336-4.2915 8.03296-8.14082 15.61199-12.06054 20.80859-5.31325 7.04407-9.43511 10.35938-19.51368 10.35938-9.21069 0-13.2464-2.8023-18.13476-8.63672-3.54453-4.23052-6.9817-10.58079-10.62695-17.46485 10.59861-9.03122 20.19472-16.27167 32.36523-16.5z" fill="#212121"/><path id="path3496" d="m341.54003 37.975693c35.97077 14.112823 11.72456 61.32639 39.55648 88.130347 27.83191 26.80397 74.10004.79896 89.55593 36.21341 15.4559 35.41444-35.07377 51.65483-34.34699 90.2882.72688 38.63339 51.83168 52.96156 37.71886 88.93234-14.11282 35.97077-61.32639 11.72456-88.13036 39.55648-26.80396 27.83191-.79894 74.10002-36.21331 89.55597-35.41446 15.45588-51.65484-35.0738-90.28821-34.347-38.6334.72687-52.96158 51.83169-88.93236 37.71887-35.97077-14.11281-11.72457-61.32638-39.55648-88.13035-27.83192-26.80396-74.100038-.79894-89.555971-36.21331-15.455877-35.41445 35.073804-51.65483 34.346931-90.28823-.726862-38.63342-51.831683-52.96158-37.718861-88.93235 14.112823-35.97077 61.326384-11.72457 88.130351-39.55649 26.80396-27.83191.79895-74.100027 36.2134-89.555929s51.65483 35.073778 90.28823 34.346907c38.63342-.726866 52.96158-51.831687 88.93236-37.718865z" fill="#5c6bc0" stroke-width="21.987"/><path id="path3496-9" d="m328.97656 35.515625c-3.71833.04582-7.20073.848197-10.54687 2.134766.37874.135812.72576.175665 1.10937.326171 35.97074 14.112809 11.72475 61.324975 39.55664 88.128908 27.83189 26.80394 74.10077.80043 89.55664 36.21484 15.45589 35.41441-35.07443 51.65378-34.34765 90.28711.72688 38.63335 51.83155 52.9609 37.71875 88.93164-14.11281 35.97074-61.32497 11.72475-88.12891 39.55664-26.80393 27.83189-.80051 74.10071-36.21484 89.55664-.78206.34132-1.50573.48351-2.26953.76172 7.294 2.77837 15.13877 3.22321 24.26953-.76172 35.41433-15.45593 9.41091-61.72475 36.21484-89.55664 26.80394-27.83189 74.0161-3.5859 88.12891-39.55664 14.1128-35.97074-36.99187-50.29829-37.71875-88.93164-.72678-38.63333 49.80354-54.8727 34.34765-90.28711-15.45587-35.41441-61.72475-9.4109-89.55664-36.21484-27.83189-26.803933-3.5859-74.016099-39.55664-88.128908-4.49634-1.7641-8.65274-2.509113-12.5625-2.460937z" fill="#3f51b5" stroke-width="21.987"/><path id="path3498" d="m345.60327 27.619117c-11.33031-4.445349-22.64328-3.789775-31.7636-.121215-9.12031 3.668561-16.26381 9.576178-22.91548 15.297879-13.30334 11.443406-24.03992 21.528587-38.5456 21.801504-14.50568.27292-25.59318-9.407728-39.31756-20.342617-6.86219-5.467444-14.18358-11.132677-23.43543-14.455576-9.25185-3.322896-20.59873-3.510759-31.75381 1.357641-11.15506 4.868402-18.73328 13.315735-22.58826 22.358833-3.85496 9.043102-4.69652 18.306195-5.3541 27.055487-1.31517 17.4986-1.74014 32.168307-11.80422 42.618347-10.06409 10.45005-24.759546 11.46415-42.196284 13.43662-8.718368.98623-17.907499 2.20666-26.799193 6.39907-8.891696 4.19241-17.065271 12.04134-21.510619 23.37165-4.44535 11.33031-3.789776 22.64328-.121216 31.76359 3.668561 9.12032 9.576178 16.26383 15.297879 22.9155 11.443403 13.30333 21.528591 24.0399 21.801505 38.54558.272918 14.50569-9.390997 25.55057-20.325898 39.27495-5.467449 6.8622-11.149395 14.22619-14.472292 23.47804-3.322901 9.25188-3.510765 20.59874 1.357635 31.75381 4.868402 11.15507 13.332453 18.69069 22.37555 22.54566 9.043057 3.85509 18.246853 4.72245 26.996169 5.37998 17.498598 1.31517 32.210914 1.75686 42.660954 11.82095 10.45006 10.06408 11.46416 24.75955 13.43662 42.19628.98624 8.71836 2.20667 17.90749 6.39907 26.7992 4.19242 8.89167 12.04134 17.06526 23.37166 21.51061 11.3303 4.44534 22.64327 3.78976 31.76358.12122 9.12033-3.66857 16.26383-9.57619 22.9155-15.29788 13.30334-11.4434 24.0399-21.5286 38.54559-21.80152 14.50568-.27292 25.55059 9.39094 39.27495 20.32589 6.8622 5.46746 14.2429 11.10681 23.49475 14.4297 9.25183 3.32302 20.58202 3.55338 31.7371-1.31502 11.15507-4.8684 18.69068-13.33245 22.54566-22.37557 3.85508-9.04305 4.73915-18.28944 5.39669-27.03877 1.31518-17.49859 1.74015-32.1683 11.80424-42.61834 10.06408-10.45006 24.75954-11.46415 42.19627-13.43662 8.71837-.98623 17.9075-2.20666 26.7992-6.39907 8.89168-4.19242 17.06526-12.04134 21.51061-23.37164 4.44535-11.33032 3.78977-22.64329.12123-31.7636-3.66857-9.12031-9.57619-16.26382-15.29789-22.91549-11.4434-13.30333-21.52859-24.03992-21.80151-38.5456s9.39101-25.55057 20.32589-39.27495c5.46746-6.86219 11.10681-14.2429 14.4297-23.49475 3.3229-9.25185 3.55337-20.58201-1.31503-31.73709-4.8684-11.15507-13.31573-18.73328-22.35885-22.58827-9.04309-3.85496-18.30618-4.69651-27.05548-5.3541-17.49859-1.31517-32.1683-1.74013-42.61835-11.80422-10.45006-10.06409-11.46415-24.759537-13.43661-42.19627-.98624-8.718368-2.20666-17.907499-6.39907-26.799193-4.19242-8.891696-12.04134-17.065271-23.37165-21.51062zm-8.02418 20.452019c6.66546 2.615136 9.24914 5.636714 11.50082 10.412306 2.25168 4.775598 3.49554 11.718244 4.42419 19.927638 1.85731 16.418783 2.64625 38.80094 20.0442 55.55631 17.39795 16.75536 39.76417 16.6973 56.24121 17.9357 8.23852.61921 15.20061 1.57058 20.05754 3.64103 4.85688 2.07044 7.96158 4.56835 10.82558 11.13073 2.86402 6.56238 2.5843 10.53734.79962 15.50638-1.78576 4.96861-5.82128 10.72065-10.96966 17.18218-10.29653 12.92316-25.54829 29.28272-25.09393 53.43275.45438 24.15005 16.32861 39.94855 27.10395 52.47525 5.38768 6.26334 9.63223 11.89641 11.60256 16.79477 1.97032 4.89839 2.38623 8.83073-.2289 15.49619-2.61514 6.66546-5.59413 9.26585-10.36971 11.51754-4.77558 2.25168-11.71823 3.49554-19.92763 4.42419-16.41878 1.8573-38.80094 2.64624-55.55632 20.04419-16.75535 17.39795-16.69742 39.76412-17.9357 56.24122-.61919 8.23852-1.57059 15.2006-3.64102 20.05753-2.07154 4.85646-4.56836 7.96157-11.13073 10.82558-6.56238 2.86402-10.53735 2.5843-15.50637.79963-4.96861-1.78576-10.72066-5.82129-17.1822-10.96966-12.92316-10.29654-29.28271-25.5483-53.43275-25.09394-24.15004.45439-39.94855 16.32861-52.47524 27.10396-6.26334 5.38768-11.89641 9.63223-16.79478 11.60255-4.89839 1.97033-8.84744 2.42884-15.5129-.18629-6.66546-2.61514-9.29177-5.65339-11.54343-10.42903-2.25168-4.77558-3.45292-11.70151-4.38158-19.91091-1.85731-16.41879-2.64625-38.80095-20.04419-55.55633-17.39796-16.75535-39.764187-16.69731-56.241227-17.93569-8.238518-.61919-15.200604-1.57059-20.057525-3.64102-4.856912-2.07045-7.961585-4.56837-10.825602-11.13074-2.864016-6.56238-2.584288-10.53735-.799616-15.50637 1.784681-4.96903 5.821405-10.72061 10.969665-17.18219 10.29652-12.92317 25.548289-29.28271 25.093918-53.43276-.454372-24.15003-16.328589-39.94854-27.103936-52.47524-5.387676-6.26333-9.632224-11.89641-11.602561-16.79477-1.970328-4.89839-2.42884-8.84745.186296-15.51291 2.615135-6.66546 5.636713-9.24914 10.412305-11.50082 4.775599-2.25168 11.718244-3.49552 19.927638-4.42419 16.418778-1.8573 38.800945-2.64625 55.556315-20.04419 16.75536-17.39795 16.69731-39.764177 17.93571-56.241212.6192-8.238517 1.57058-15.200608 3.64102-20.057523 2.07045-4.856915 4.56836-7.961592 11.13074-10.825606s10.53733-2.584289 15.50637-.799611c4.96904 1.78468 10.72061 5.821403 17.18219 10.969662 12.92316 10.296516 29.28272 25.54829 53.43275 25.093917 24.15005-.454371 39.94855-16.328589 52.47524-27.103935 6.26335-5.387676 11.85378-9.648948 16.75217-11.619277s8.89005-2.412124 15.55551.203011z" fill="#212121" stroke-width="23.434"/><path id="path3490" d="m255.99999 133.5c22.36451 0 28.68168 44.91701 46.77495 58.0668 18.09329 13.14981 62.75013 5.27963 69.66114 26.55644 6.91101 21.27683-33.84163 41.16688-40.75263 62.44371-6.91101 21.27683 14.37127 61.3298-3.72199 74.47958-18.09327 13.14982-49.59696-19.47446-71.96147-19.47446s-53.86818 32.62428-71.96145 19.47446c-18.09328-13.1498 3.18901-53.20275-3.72201-74.47958-6.911-21.27683-47.66363-41.16688-40.75262-62.44371 6.91101-21.27682 51.56787-13.40663 69.66114-26.55644 18.09326-13.14979 24.41043-58.0668 46.77494-58.0668z" fill="#ffca28" stroke-width="21.99"/><path id="path3490-2" d="m256 133.5c-4.1636 0-7.76924 1.56091-11 4.17969 14.123 11.4478 21.05057 43.18504 35.77539 53.88672 18.09327 13.14979 62.74915 5.27985 69.66016 26.55664 6.911 21.27681-33.84096 41.16655-40.75196 62.44336-6.911 21.2768 14.37059 61.3307-3.72265 74.48047-.21218.1542-.43457.27232-.65039.41406 8.52597 3.15395 16.39718 4.13064 22.65039-.41406 18.09324-13.14977-3.18835-53.20367 3.72265-74.48047 6.911-21.27681 47.66296-41.16655 40.75196-62.44336-6.91101-21.27679-51.56689-13.40685-69.66016-26.55664-18.09325-13.14978-24.4109-58.06641-46.77539-58.06641z" fill="#ffc107" stroke-width="21.99"/><path id="path3492" d="m255.99997 122.5c-9.27522 0-17.08122 5.03141-22.3464 10.81367-5.26517 5.78225-8.97857 12.52086-12.44126 19.23493-6.92538 13.42813-13.74431 26.71074-18.47047 30.14429-4.72617 3.43355-19.44525 5.84121-34.357 8.27772-7.45587 1.21825-15.02838 2.66494-22.155 5.88532-7.12661 3.22036-14.3123 9.07445-17.17849 17.89517-2.86621 8.82073-.523 17.79992 3.34956 24.59393 3.87255 6.79399 9.18303 12.38385 14.49885 17.75163 10.63162 10.73557 21.11538 21.33501 22.92061 26.89062s-.48478 20.33007-2.77536 35.26404c-1.14529 7.46701-2.10482 15.09884-1.24412 22.87139s4.21967 16.41505 11.72349 21.86657 16.7933 5.98536 24.45185 4.40204c7.65856-1.58334 14.59349-4.88112 21.34154-8.27774 13.49607-6.79318 26.84035-13.49314 32.6822-13.49314s19.13829 6.69996 32.63436 13.49314c6.74805 3.39662 13.73083 6.6944 21.38939 8.27774 7.65856 1.58332 16.94803 1.0495 24.45185-4.40204 7.50381-5.45152 10.86279-14.09402 11.72349-21.86657.86068-7.77255-.098-15.40438-1.2441-22.87139-2.29047-14.93397-4.58058-29.70843-2.77534-35.26404 1.80514-5.55561 12.28899-16.15505 22.92062-26.89062 5.31582-5.36778 10.6263-10.95764 14.49885-17.75163 3.87254-6.79401 6.21576-15.7732 3.34957-24.59393-2.86627-8.82072-10.05193-14.67481-17.17855-17.89517-7.12663-3.22038-14.69914-4.66707-22.15501-5.88532-14.91173-2.43651-29.63084-4.84417-34.35701-8.27772-4.72615-3.43355-11.54508-16.71616-18.47046-30.14429-3.46269-6.71407-7.17608-13.45268-12.44126-19.23493-5.26519-5.78226-13.07118-10.81367-22.3464-10.81367zm0 22.01012c1.91367 0 3.29763.58405 6.07708 3.63645 2.77942 3.05238 5.96183 8.33649 9.13953 14.49797 6.35543 12.32298 11.74405 28.12896 25.12175 37.84784 13.37772 9.71888 30.0513 9.96528 43.73581 12.20126 6.84222 1.1181 12.89007 2.51063 16.65213 4.21063 3.76204 1.69994 4.72013 2.82146 5.31145 4.64126.59143 1.81973.46526 3.30366-1.579 6.89013-2.04425 3.58647-6.07958 8.28008-10.95788 13.20609-9.75661 9.85198-23.12226 19.82562-28.23206 35.5511-5.10983 15.72547-.18864 31.6551 1.91416 45.35999 1.05104 6.85245 1.60277 13.02659 1.14831 17.12962-.45448 4.10304-1.2272 5.38264-2.77538 6.50734-1.54813 1.12472-3.03909 1.45789-7.08194.62201-4.04286-.83587-9.74171-3.24674-15.93438-6.36377-12.3854-6.23412-26.00382-15.83774-42.53958-15.83774-16.53575 0-30.15417 9.60362-42.53951 15.83774-6.19267 3.11703-11.89152 5.52797-15.93438 6.36377-4.04285.83588-5.53383.50271-7.08194-.62201-1.54811-1.1247-2.321-2.40425-2.77535-6.50734-.45436-4.10303.0975-10.27717 1.14841-17.12962 2.10208-13.70489 7.02387-29.63452 1.91405-45.35999-5.10983-15.72548-18.47545-25.69912-28.23208-35.5511-4.87831-4.92601-8.91359-9.61962-10.95787-13.20609s-2.17041-5.07033-1.57908-6.89013c.59132-1.81972 1.54941-2.94127 5.31146-4.64126 3.76205-1.69993 9.80989-3.09263 16.65213-4.21063 13.68449-2.23595 30.35809-2.48238 43.7358-12.20126 13.37769-9.71888 18.76633-25.52486 25.12174-37.84784 3.17771-6.16148 6.36013-11.44559 9.13954-14.49797 2.77945-3.05239 4.1635-3.63645 6.07708-3.63645z" fill="#212121" stroke-width="24.499"/></g></svg>