<svg height="512pt" viewBox="0 -10 512.00005 512" width="512pt" xmlns="http://www.w3.org/2000/svg"><path d="m504.429688 256.023438c0 87.558593-44.953126 141.742187-49.9375 149.332031-.28125.417969-.613282.761719-.992188 1.011719-.332031.230468-.679688.390624-1.070312.488281-313.960938 82.664062-291.679688 77.199219-294.386719 77.199219-.539063.007812-1.050781-.03125-1.652344-.300782-94.0625-41.160156-157.71875-138.898437-147.949219-250.171875 12.441406-141.886719 142.980469-245.265625 285.96875-223.085937 118.96875 18.480468 210.019532 121.382812 210.019532 245.527344zm0 0" fill="#0a66ea"/><path d="m504.429688 256.023438c0 87.558593-44.953126 141.742187-49.9375 149.332031-.28125.417969-.613282.761719-.992188 1.011719-.4375.308593-.800781.410156-1.070312.488281-57.449219 15.125-256.015626 67.449219-262.945313 69.300781-6.355469-4.335938-12.503906-8.949219-18.429687-13.824219-57.207032-47.058593-93.683594-118.398437-93.683594-198.257812 0-128.269531 94.105468-234.558594 217.039062-253.578125 118.96875 18.480468 210.019532 121.382812 210.019532 245.527344zm0 0" fill="#2476ed"/><path d="m355.871094 260.777344c-4.171875 4.066406-6.074219 9.933594-5.09375 15.667968l8.1875 47.738282 6.195312 36.117187c2.484375 14.453125-12.691406 25.484375-25.683594 18.65625l-75.296874-39.589843c-5.15625-2.710938-11.320313-2.710938-16.476563 0l-75.296875 39.589843c-12.992188 6.828125-28.167969-4.203125-25.683594-18.65625l14.382813-83.855469c.980469-5.734374-.921875-11.601562-5.09375-15.667968l-60.921875-59.378906c-10.5-10.238282-4.703125-28.085938 9.808594-30.191407l56.199218-8.167969 27.996094-4.0625c5.765625-.839843 10.742188-4.464843 13.324219-9.691406l37.648437-76.285156c6.496094-13.152344 25.253906-13.152344 31.75 0l37.648438 76.285156c2.582031 5.226563 7.558594 8.851563 13.324218 9.691406l84.195313 12.230469c14.511719 2.105469 20.308594 19.953125 9.808594 30.191407zm0 0" fill="#f29500"/><path d="m355.871094 260.777344c-4.171875 4.066406-6.074219 9.933594-5.09375 15.667968l8.1875 47.738282c-2.792969.121094-5.59375.179687-8.410156.179687-95.574219 0-174.832032-69.878906-189.457032-161.324219l27.996094-4.0625c5.765625-.839843 10.742188-4.464843 13.324219-9.691406l37.648437-76.285156c6.496094-13.152344 25.253906-13.152344 31.75 0l37.648438 76.285156c2.582031 5.226563 7.558594 8.851563 13.324218 9.691406l84.195313 12.230469c14.511719 2.105469 20.308594 19.953125 9.808594 30.191407zm0 0" fill="#ffb52d"/><path d="m453.5 406.367188c-.4375.308593-.800781.410156-1.070312.488281-313.960938 82.664062-291.796876 77.199219-294.386719 77.199219 3.902343-7.527344 8.25-14.777344 13.011719-21.722657 63.746093-93.125 188.542968-117.507812 282.445312-55.964843zm0 0" fill="#b9d3fd"/><path d="m189.484375 476.15625c-33.179687 8.695312-29.601563 7.898438-31.441406 7.898438 3.394531-6.546876 7.117187-12.875 11.160156-18.980469.632813-.949219 1.253906-1.871094 1.851563-2.742188 5.925781 4.875 12.074218 9.488281 18.429687 13.824219zm0 0" fill="#97bffd"/><path d="m436.960938 75.007812c-85.984376-85.984374-216.566407-97.453124-314.546876-37.441406-3.535156 2.167969-4.648437 6.789063-2.480468 10.324219 2.164062 3.539063 6.789062 4.648437 10.324218 2.480469 37.734376-23.113282 81.195313-35.328125 125.683594-35.328125 132.878906 0 240.984375 108.105469 240.984375 240.980469 0 50.964843-15.589843 99.367187-45.140625 140.433593-24.300781-14.980469-51.148437-24.828125-79.167968-29.070312 1.1875-7.277344.140624-4.433594-14.433594-92.210938-.574219-3.234375.515625-6.664062 2.933594-9.019531l60.910156-59.378906c14.847656-14.457032 6.90625-39.96875-13.960938-43.003906l-84.195312-12.234376c-3.324219-.480468-6.1875-2.5625-7.667969-5.574218l-37.660156-76.285156c-9.238281-18.738282-35.972657-18.726563-45.203125 0l-37.660156 76.285156c-1.480469 3.011718-4.34375 5.09375-7.667969 5.574218l-84.191407 12.234376c-20.855468 3.035156-28.820312 28.539062-13.964843 43.003906l19.027343 18.546875c2.964844 2.894531 7.71875 2.832031 10.613282-.128907 2.890625-2.972656 2.832031-7.730468-.132813-10.621093l-19.027343-18.550781c-6.125-5.976563-2.636719-16.1875 5.644531-17.386719l84.183593-12.230469c8.21875-1.191406 15.316407-6.359375 18.992188-13.796875l37.644531-76.285156c3.734375-7.59375 14.546875-7.59375 18.28125 0l37.644531 76.285156c3.675782 7.4375 10.773438 12.605469 18.992188 13.796875l84.183594 12.230469c8.265625 1.195312 11.777344 11.402343 5.644531 17.386719l-60.910156 59.382812c-4.84375 4.714844-7.617188 11.289062-7.617188 18.046875 0 8.324219 15.824219 87.273437 14.644531 92.203125-9.269531-.753906-18.734374-.902344-28.109374-.390625l-61.882813-32.542969c-7.335937-3.851562-16.113281-3.859375-23.460937 0l-75.296876 39.589844c-7.09375 3.707031-14.957031-1.726562-14.957031-8.898438 0-3.949218 14.90625-84.363281 14.90625-89.960937 0-6.757813-2.773437-13.332031-7.605469-18.046875l-20.390624-19.871094c-2.972657-2.894531-7.730469-2.832031-10.621094.128906-2.894532 2.972657-2.832032 7.726563.140625 10.621094l20.390625 19.871094c2.375 2.324219 3.5 5.722656 2.921875 9.027344-14.804688 87.0625-14.753907 84.238281-14.753907 88.230468 0 18.65625 19.929688 31.09375 36.957032 22.191407l75.292968-39.589844c2.925782-1.53125 6.566407-1.53125 9.492188 0l42.421875 22.300781c-21.851563 3.925782-43.042969 11.253906-62.59375 21.753906-3.652344 1.960938-5.023437 6.507813-3.0625 10.160157 1.960937 3.652343 6.507813 5.023437 10.160156 3.0625 56.734375-30.441407 127.332031-31.886719 186.925781.507812-66.542968 17.527344-196.628906 51.796875-261.308593 68.890625 13.191406-20.832031 30.238281-39.25 49.988281-53.902344 3.324219-2.472656 4.023438-7.179687 1.550781-10.5-2.472656-3.335937-7.175781-4.027343-10.5-1.5625-24.347656 18.070313-44.871093 41.472657-59.699219 67.984376-162.230468-75.238282-189.214843-295.917969-48.164062-407.675782 3.253906-2.574218 3.800781-7.296875 1.226562-10.546875-2.578124-3.253906-7.300781-3.800781-10.546874-1.222656-151.703126 120.195313-120.484376 359.375 57.808593 436.035156 3.984375 1.726563-14.550781 5.519531 300.554688-77.480469 1.628906-.398437 3.300781-1.578124 4.191406-2.738281 77.03125-100.992187 68.730469-244.664062-22.679687-336.074219zm0 0"/></svg>