<svg id="Capa_1" enable-background="new 0 0 512 512" height="512" viewBox="0 0 512 512" width="512" xmlns="http://www.w3.org/2000/svg"><g><g><path d="m500.289 246.732-66.775-58.346c-2.894-2.528-4.44-6.263-4.182-10.096l5.96-88.474c.501-7.437-5.671-13.609-13.108-13.108l-88.474 5.96c-3.834.258-7.568-1.289-10.096-4.182l-58.346-66.775c-4.905-5.613-13.633-5.613-18.538 0l-58.346 66.775c-2.528 2.894-6.263 4.44-10.096 4.182l-88.474-5.96c-7.437-.501-13.609 5.671-13.108 13.108l5.96 88.474c.093 1.375-.056 2.736-.407 4.034-.614 2.342-1.965 4.467-3.78 6.067l-66.77 58.34c-5.61 4.91-5.61 13.63 0 18.54l66.77 58.34c2.9 2.53 4.44 6.27 4.19 10.1l-5.96 88.47c-.5 7.44 5.67 13.61 13.11 13.11l88.47-5.96c3.83-.25 7.57 1.29 10.1 4.19l58.34 66.77c4.91 5.61 13.63 5.61 18.54 0l58.34-66.77c2.53-2.9 6.27-4.44 10.1-4.19l88.47 5.96c7.44.5 13.61-5.67 13.11-13.11l-2.739-40.65.003-.01-3.221-47.808c-.258-3.834 1.289-7.568 4.182-10.096l66.775-58.346c5.613-4.906 5.613-13.634 0-18.539z" fill="#df646e"/><g><g><path d="m461.233 168.398c-3.233-7.615.321-16.41 7.936-19.642l14.493-6.152c7.615-3.233 16.41.321 19.642 7.936 3.233 7.615-.321 16.41-7.936 19.642l-14.493 6.152c-7.616 3.233-16.41-.32-19.642-7.936z" fill="#df646e"/></g><g><path d="m343.601 50.767c-7.615-3.233-11.168-12.027-7.936-19.642l6.152-14.493c3.233-7.615 12.027-11.168 19.642-7.936s11.168 12.027 7.936 19.642l-6.152 14.493c-3.232 7.615-12.026 11.168-19.642 7.936z" fill="#df646e"/></g><g><path d="m459.687 345.469c3.365-7.558 12.22-10.957 19.778-7.592l14.384 6.404c7.558 3.365 10.957 12.22 7.592 19.778s-12.22 10.957-19.778 7.592l-14.384-6.404c-7.557-3.365-10.956-12.22-7.592-19.778z" fill="#df646e"/></g><g><path d="m343.601 459.547c7.615-3.233 16.41.321 19.642 7.936l6.152 14.493c3.233 7.615-.321 16.41-7.936 19.642-7.615 3.233-16.41-.321-19.642-7.936l-6.152-14.493c-3.232-7.616.321-16.41 7.936-19.642z" fill="#df646e"/></g><g><path d="m173.665 461.03c7.671 3.099 11.377 11.83 8.277 19.501l-5.898 14.598c-3.099 7.671-11.83 11.377-19.501 8.278s-11.377-11.83-8.278-19.501l5.898-14.598c3.1-7.671 11.831-11.377 19.502-8.278z" fill="#df646e"/></g><g><path d="m52.453 341.915c3.233 7.615-.321 16.41-7.936 19.642l-14.493 6.152c-7.615 3.233-16.41-.321-19.642-7.936s.321-16.41 7.936-19.642l14.493-6.152c7.615-3.232 16.409.321 19.642 7.936z" fill="#df646e"/></g><g><path d="m50.97 171.979c-3.099 7.671-11.83 11.377-19.501 8.278l-14.598-5.898c-7.671-3.099-11.377-11.83-8.278-19.501s11.83-11.377 19.501-8.277l14.598 5.898c7.671 3.098 11.377 11.829 8.278 19.5z" fill="#df646e"/></g><g><path d="m170.084 50.767c-7.615 3.233-16.41-.321-19.642-7.936l-6.152-14.493c-3.233-7.615.321-16.41 7.936-19.642 7.615-3.233 16.41.321 19.642 7.936l6.152 14.493c3.233 7.615-.32 16.409-7.936 19.642z" fill="#df646e"/></g></g><path d="m54.917 208.978-43.208 37.753c-5.61 4.91-5.61 13.63 0 18.54l66.77 58.34c2.9 2.53 4.44 6.27 4.19 10.1l-5.96 88.47c-.5 7.44 5.67 13.61 13.11 13.11l88.47-5.96c3.83-.25 7.57 1.29 10.1 4.19l58.34 66.77c4.91 5.61 13.63 5.61 18.54 0l58.34-66.77c.394-.452.826-.858 1.275-1.242-128.69-12.464-234.563-102.805-269.967-223.301z" fill="#dc4955"/><path d="m267.584 254.505h.003c5.277-.325 31.326-3.408 39.159-31.784 3.596-13.027 3.594-29.173-3.844-46.832-1.806-4.288-3.409-3.64-6.147-8.083-.718-1.165-2.51-.833-2.755.513-1.844 10.146-5.477 14.731-18.859 19.492-1.003.357-2.053-.432-2.003-1.495 1.011-21.386-6.131-23.704-8.985-40.935-.562-3.391-2.672-1.971-2.807-6.776-.039-1.376-1.76-1.979-2.643-.924-5.141 6.143-11.544 16.086-14.681 21.574-15.114 26.449-17.617 58.085-17.617 58.085s25.102 37.364 40.3 37.202c.01 0 .026-.001.038-.001.136-.002.424-.01.841-.036z" fill="#f9af38"/><path d="m302.899 175.891c-.85 1.375-2.497 3.044-4.365 4.692-5.487 4.843-12.599 7.445-19.917 7.391-1.3-.01-2.642-.032-3.977-.073.16 0 .33-.03.5-.09 13.38-4.76 16.38-14.37 18.22-24.52.25-1.34 2.04-1.67 2.76-.51 2.739 4.44 4.979 8.82 6.779 13.11z" fill="#f48931"/><path d="m272.809 253.821c-2.34.45-4.18.62-5.22.68-.42.03-.71.04-.85.04h-.03c-15.2.16-39.89-9.69-43.36-37.35-2.34-18.69 2.55-32.24 17.66-58.69 3.14-5.49 14.27-20.07 19.41-26.21.88-1.05 2.6-.45 2.64.92.14 4.81.53 8.78 1.09 12.17-3.88 5.19-7.54 10.33-9.14 13.12-15.11 26.45-20 40-17.66 58.69 2.91 23.24 20.81 33.9 35.46 36.63z" fill="#f48931"/><g fill="#f5fcff"><path d="m190.411 155.638c-4.142 0-7.5 3.358-7.5 7.5v33.576h-43.869v-33.576c0-4.142-3.358-7.5-7.5-7.5s-7.5 3.358-7.5 7.5v85.069c0 4.142 3.358 7.5 7.5 7.5s7.5-3.358 7.5-7.5v-36.493h43.869v36.493c0 4.142 3.358 7.5 7.5 7.5s7.5-3.358 7.5-7.5v-85.069c0-4.142-3.358-7.5-7.5-7.5z"/><path d="m380.455 155.638h-46.979c-4.143 0-7.5 3.358-7.5 7.5s3.357 7.5 7.5 7.5h15.895v77.569c0 4.142 3.357 7.5 7.5 7.5s7.5-3.358 7.5-7.5v-77.569h16.085c4.143 0 7.5-3.358 7.5-7.5s-3.359-7.5-7.501-7.5z"/><path d="m299.802 283.603c-.026-.07-.054-.139-.082-.208-1.379-3.348-4.606-5.509-8.227-5.509-.003 0-.007 0-.011 0-3.624.004-6.852 2.175-8.224 5.529-.022.056-.045.113-.066.169l-23.135 60.743c-1.475 3.871.469 8.204 4.34 9.678.878.335 1.78.493 2.668.493 3.021 0 5.87-1.84 7.01-4.833l3.922-10.297h26.817l3.878 10.276c1.462 3.875 5.792 5.832 9.665 4.369 3.875-1.462 5.831-5.79 4.368-9.665zm-16.091 40.765 7.757-20.367 7.686 20.367z"/><path d="m362.838 339.444c-.015 0-.028 0-.043 0-4.829.027-10.007.047-14.032.051v-54.11c0-4.142-3.357-7.5-7.5-7.5s-7.5 3.358-7.5 7.5v61.559c0 3.653 2.632 6.775 6.232 7.392.54.093.954.164 7.75.164 3.296 0 8.095-.017 15.134-.056 4.142-.023 7.481-3.4 7.458-7.542-.023-4.128-3.375-7.458-7.499-7.458z"/><path d="m241.514 293.167c4.142 0 7.5-3.358 7.5-7.5s-3.358-7.5-7.5-7.5h-25.723c-4.142 0-7.5 3.358-7.5 7.5v61.048c0 4.142 3.358 7.5 7.5 7.5h25.723c4.142 0 7.5-3.358 7.5-7.5s-3.358-7.5-7.5-7.5h-18.223v-15.524h16.327c4.142 0 7.5-3.358 7.5-7.5s-3.358-7.5-7.5-7.5h-16.327v-15.524z"/><path d="m166.093 278.797h-16.933c-1.992 0-3.901.792-5.308 2.202s-2.196 3.321-2.192 5.313v.046.002 58.755c0 .504.052.995.146 1.471.122 1.816.892 3.533 2.191 4.823 1.405 1.395 3.305 2.177 5.284 2.177h.028c.512-.002 12.586-.049 17.41-.133 17.973-.314 31.018-15.985 31.018-37.261 0-22.368-12.716-37.395-31.644-37.395zm.364 59.657c-2.229.039-6.16.07-9.702.092-.022-7.062-.052-17.292-.052-22.421 0-4.29-.017-14.98-.03-22.328h9.419c12.272 0 16.645 11.568 16.645 22.394 0 10.94-5.033 22.067-16.28 22.263z"/></g><g><g><path d="m367.249 13.051c-5.38.15-10.49 3.21-13.02 8.4l-6.9 14.15c-2.71 5.55-1.67 11.96 2.12 16.36-1.95 0-3.94-.38-5.85-1.19-7.61-3.24-11.17-12.03-7.93-19.65l6.15-14.49c3.23-7.61 12.03-11.17 19.64-7.94 2.34 1 4.3 2.51 5.79 4.36z" fill="#dc4955"/></g><g><path d="m504.449 157.621c-3.99-3.59-9.77-4.91-15.16-2.95l-14.8 5.39c-5.82 2.12-9.53 7.47-9.84 13.3-1.42-1.36-2.6-3.03-3.42-4.96-3.23-7.62.32-16.41 7.94-19.64l14.49-6.16c7.62-3.23 16.41.32 19.65 7.94.98 2.31 1.34 4.73 1.14 7.08z" fill="#dc4955"/></g><g><path d="m501.439 364.061c-1.01 2.28-2.53 4.18-4.36 5.62-.09-5.35-3.07-10.48-8.18-13.07l-14.02-7.15c-5.55-2.83-12.02-1.87-16.49 1.92.02-1.98.45-3.99 1.3-5.91 3.36-7.56 12.22-10.96 19.78-7.59l14.38 6.4c7.56 3.37 10.96 12.22 7.59 19.78z" fill="#dc4955"/></g><g><path d="m361.459 501.621c-2.29.97-4.68 1.33-7 1.14 3.59-3.99 4.91-9.77 2.95-15.16l-5.38-14.8c-2.13-5.85-7.52-9.57-13.38-9.84 1.36-1.42 3.03-2.59 4.95-3.41 7.62-3.24 16.41.32 19.64 7.93l6.16 14.49c3.23 7.62-.32 16.41-7.94 19.65z" fill="#dc4955"/></g><g><path d="m181.939 480.531-5.89 14.6c-3.1 7.67-11.83 11.37-19.51 8.28-2.32-.94-4.27-2.39-5.78-4.17 5.38-.25 10.45-3.41 12.88-8.62l6.65-14.27c2.63-5.64 1.45-12.07-2.49-16.41 1.95-.04 3.95.31 5.87 1.09 7.67 3.1 11.37 11.83 8.27 19.5z" fill="#dc4955"/></g><g><path d="m44.519 361.561-14.49 6.15c-7.62 3.23-16.41-.32-19.65-7.94-.98-2.31-1.34-4.73-1.14-7.07 3.99 3.65 9.82 5.01 15.25 3.03l14.79-5.39c5.83-2.11 9.54-7.47 9.85-13.29 1.38 1.35 2.52 2.98 3.32 4.86 3.24 7.62-.32 16.41-7.93 19.65z" fill="#dc4955"/></g><g><path d="m52.059 166.191c.03 1.92-.32 3.89-1.09 5.79-3.1 7.67-11.83 11.37-19.5 8.28l-14.6-5.9c-7.67-3.1-11.37-11.83-8.28-19.5.95-2.35 2.43-4.33 4.25-5.86.22 5.41 3.38 10.51 8.63 12.95l14.27 6.66c5.6 2.61 11.98 1.46 16.32-2.42z" fill="#dc4955"/></g><g><path d="m174.959 47.431c-1.34 1.39-2.98 2.53-4.87 3.34-7.62 3.23-16.41-.32-19.65-7.94l-6.15-14.49c-3.23-7.62.32-16.41 7.94-19.65 2.34-.99 4.78-1.34 7.15-1.13-3.64 3.99-4.99 9.82-3.02 15.24l5.38 14.8c2.11 5.79 7.43 9.5 13.22 9.83z" fill="#dc4955"/></g></g></g><g><path d="m267.167 247.016c-.013 0-.025.001-.038.002-.238.015-.406.021-.492.023-.021 0-.042 0-.063.001-10.551.105-28.348-6.074-34.142-23.467-1.309-3.931-5.557-6.054-9.485-4.746-3.93 1.309-6.055 5.555-4.746 9.485 7.738 23.236 30.251 33.728 48.025 33.728.16 0 .32-.001.479-.002.058 0 .127-.001.194-.002.203-.004.573-.015 1.089-.045.021-.001.04-.002.061-.003 6.054-.373 36.721-3.92 45.928-37.273 4.346-15.739 5.491-40.551-13.725-69.374-1.706-2.561-4.802-3.82-7.814-3.173-3.009.646-5.317 3.064-5.823 6.1-1.339 8.029-2.494 13.7-6.164 17.674-.729-7.862-2.75-12.915-4.725-17.852-2.563-6.408-5.214-13.033-5.214-28.588 0-2.269-1.027-4.416-2.795-5.84-1.766-1.424-4.081-1.971-6.301-1.488-2.697.587-3.512.764-14.227 14.716-2.897 3.772-9.932 13.065-12.689 17.89-8.517 14.903-13.133 24.595-15.933 33.453-1.249 3.949.941 8.163 4.891 9.411 3.948 1.249 8.163-.941 9.412-4.891 2.424-7.669 6.807-16.8 14.653-30.531 1.587-2.778 5.549-8.272 9.582-13.606 1.242 6.419 3.03 10.888 4.692 15.045 2.578 6.443 4.613 11.533 3.731 24.322-.169 2.449.871 4.826 2.785 6.363 1.913 1.537 4.458 2.042 6.813 1.349 11.382-3.348 17.514-9.559 21.063-16.456 7.152 17.217 6.053 31.611 3.327 41.484-6.473 23.456-27.986 26.016-32.349 26.291z"/><path d="m139.044 211.714h43.869v36.492c0 4.142 3.358 7.5 7.5 7.5s7.5-3.358 7.5-7.5v-85.066c0-4.142-3.358-7.5-7.5-7.5s-7.5 3.358-7.5 7.5v33.575h-43.869v-33.575c0-4.142-3.358-7.5-7.5-7.5s-7.5 3.358-7.5 7.5v85.066c0 4.142 3.358 7.5 7.5 7.5s7.5-3.358 7.5-7.5z"/><path d="m387.956 163.14c0-4.142-3.357-7.5-7.5-7.5h-46.979c-4.143 0-7.5 3.358-7.5 7.5s3.357 7.5 7.5 7.5h15.895v77.566c0 4.142 3.357 7.5 7.5 7.5s7.5-3.358 7.5-7.5v-77.566h16.085c4.142 0 7.499-3.358 7.499-7.5z"/><path d="m264.399 354.001c.878.335 1.78.493 2.668.493 3.021 0 5.87-1.84 7.01-4.832l3.922-10.297h26.817l3.878 10.276c1.462 3.875 5.792 5.831 9.665 4.369 3.875-1.462 5.831-5.789 4.368-9.665l-22.924-60.743c-.026-.07-.054-.139-.082-.208-1.379-3.348-4.606-5.509-8.227-5.509-.003 0-.007 0-.011 0-3.624.004-6.852 2.175-8.224 5.529-.022.056-.045.113-.066.169l-23.135 60.741c-1.473 3.87.47 8.203 4.341 9.677zm27.071-50.002 7.686 20.367h-15.443z"/><path d="m341.265 277.884c-4.143 0-7.5 3.358-7.5 7.5v61.557c0 3.653 2.632 6.775 6.232 7.392.54.093.954.164 7.75.164 3.296 0 8.095-.017 15.134-.056 4.142-.023 7.481-3.4 7.458-7.542-.023-4.128-3.376-7.458-7.499-7.458-.015 0-.028 0-.043 0-4.829.027-10.007.047-14.032.051v-54.108c0-4.142-3.358-7.5-7.5-7.5z"/><path d="m208.292 346.711c0 4.142 3.358 7.5 7.5 7.5h25.723c4.142 0 7.5-3.358 7.5-7.5s-3.358-7.5-7.5-7.5h-18.223v-15.523h16.327c4.142 0 7.5-3.358 7.5-7.5s-3.358-7.5-7.5-7.5h-16.327v-15.523h18.223c4.142 0 7.5-3.358 7.5-7.5s-3.358-7.5-7.5-7.5h-25.723c-4.142 0-7.5 3.358-7.5 7.5z"/><path d="m141.661 345.11c0 .504.052.995.146 1.471.122 1.816.892 3.533 2.191 4.822 1.405 1.395 3.305 2.177 5.284 2.177h.028c.512-.002 12.586-.049 17.41-.133 17.973-.314 31.018-15.984 31.018-37.26 0-22.366-12.717-37.393-31.645-37.393h-16.933c-1.992 0-3.901.792-5.308 2.202s-2.196 3.321-2.192 5.312v.046.002 58.754zm24.433-51.315c12.272 0 16.645 11.568 16.645 22.393 0 10.94-5.034 22.066-16.28 22.262-2.229.039-6.16.07-9.702.092-.022-7.061-.052-17.291-.052-22.421 0-4.289-.017-14.979-.03-22.327h9.419z"/><path d="m219.958 42.358c3.119 2.725 7.857 2.406 10.583-.713l21.838-24.992c1.25-1.431 2.805-1.645 3.621-1.645s2.371.214 3.622 1.645l58.346 66.772c4.043 4.628 10.121 7.151 16.247 6.73l88.474-5.96c1.894-.127 3.146.821 3.724 1.398.577.577 1.525 1.827 1.397 3.724l-5.96 88.472c-.412 6.131 2.104 12.205 6.731 16.247l66.774 58.344c1.431 1.25 1.645 2.805 1.645 3.621 0 .815-.214 2.371-1.645 3.621l-24.666 21.552c-3.119 2.725-3.438 7.464-.713 10.583 1.482 1.697 3.562 2.565 5.65 2.565 1.751 0 3.51-.61 4.932-1.852l24.666-21.552c4.306-3.764 6.776-9.2 6.776-14.918s-2.47-11.154-6.775-14.917l-66.774-58.345c-1.123-.981-1.734-2.455-1.634-3.944l5.96-88.471c.384-5.704-1.715-11.295-5.758-15.338-4.044-4.043-9.647-6.146-15.338-5.757l-88.474 5.96c-1.494.094-2.962-.511-3.944-1.634l-58.346-66.771c-3.763-4.306-9.2-6.775-14.917-6.775s-11.154 2.47-14.917 6.775l-21.838 24.992c-2.725 3.119-2.406 7.857.713 10.583z"/><path d="m109.073 426.474-19.762 1.331c-1.901.128-3.147-.821-3.724-1.398s-1.525-1.828-1.398-3.724l5.96-88.471c.413-6.131-2.103-12.205-6.73-16.247l-66.774-58.344c-1.431-1.25-1.645-2.806-1.645-3.621s.214-2.371 1.645-3.621l66.773-58.344c4.628-4.043 7.144-10.117 6.731-16.248l-5.96-88.471c-.127-1.896.821-3.147 1.398-3.724s1.823-1.521 3.724-1.398l88.473 5.96c6.134.424 12.206-2.102 16.248-6.73l13.33-15.254c2.726-3.119 2.407-7.857-.712-10.582s-7.857-2.407-10.583.712l-13.331 15.255c-.981 1.123-2.442 1.734-3.944 1.633l-88.474-5.96c-5.707-.391-11.295 1.714-15.338 5.757s-6.141 9.633-5.757 15.338l5.96 88.471c.1 1.488-.51 2.962-1.634 3.944l-66.774 58.346c-4.306 3.762-6.775 9.198-6.775 14.916s2.469 11.154 6.775 14.917l66.775 58.345c1.123.981 1.733 2.455 1.633 3.944l-5.96 88.471c-.384 5.704 1.714 11.295 5.757 15.337 3.728 3.728 8.77 5.802 14.005 5.802 1.011.046 19.464-1.299 21.096-1.376 4.133-.278 7.257-3.854 6.979-7.987-.277-4.133-3.835-7.267-7.987-6.979z"/><path d="m436.816 333.206c-.101-1.489.511-2.963 1.634-3.945l15.749-13.761c3.119-2.725 3.438-7.463.713-10.582s-7.464-3.437-10.582-.712l-15.749 13.76c-4.627 4.042-7.144 10.116-6.731 16.248l5.96 88.471c.128 1.896-.82 3.147-1.397 3.724s-1.829 1.527-3.724 1.398l-88.474-5.96c-6.14-.413-12.204 2.104-16.247 6.73l-58.346 66.772c-1.251 1.431-2.806 1.645-3.622 1.645-.816 0-2.371-.214-3.621-1.645l-58.346-66.771c-4.043-4.628-10.116-7.142-16.249-6.731l-32.807 2.21c-4.133.278-7.257 3.854-6.979 7.987s3.857 7.26 7.987 6.979l32.807-2.21c1.49-.095 2.962.51 3.944 1.634l58.346 66.772c3.762 4.305 9.199 6.775 14.917 6.775 5.718 0 11.154-2.469 14.917-6.775l58.346-66.772c.982-1.123 2.449-1.733 3.944-1.634l88.474 5.96c5.708.39 11.296-1.714 15.338-5.757 4.043-4.043 6.142-9.633 5.758-15.338z"/><path d="m340.672 57.676c2.857 1.213 5.828 1.787 8.753 1.787 8.754 0 17.093-5.144 20.723-13.696l6.153-14.493c4.843-11.41-.5-24.632-11.909-29.475-5.527-2.346-11.636-2.4-17.205-.15-5.567 2.249-9.926 6.532-12.272 12.059l-6.15 14.493c-4.845 11.409.498 24.632 11.907 29.475zm1.899-23.614 6.151-14.493c.78-1.839 2.23-3.264 4.083-4.013 1.852-.748 3.886-.73 5.725.05 3.797 1.611 5.574 6.011 3.963 9.807l-6.153 14.493c-1.61 3.796-6.011 5.573-9.807 3.963-3.796-1.611-5.574-6.011-3.962-9.807z"/><path d="m475.054 185.026c2.924 0 5.896-.574 8.753-1.787l14.493-6.152c11.41-4.843 16.753-18.065 11.909-29.476-2.346-5.527-6.704-9.809-12.271-12.059-5.568-2.25-11.679-2.196-17.205.15l-14.493 6.152c-11.409 4.843-16.752 18.065-11.908 29.476 3.629 8.554 11.967 13.696 20.722 13.696zm-2.953-29.363 14.493-6.152c.94-.399 1.931-.599 2.922-.599.948 0 1.897.183 2.803.548 1.853.749 3.303 2.173 4.083 4.012 1.612 3.797-.166 8.197-3.963 9.808l-14.493 6.152c-1.838.781-3.872.799-5.724.05-1.853-.749-3.303-2.173-4.084-4.013-1.612-3.795.166-8.195 3.963-9.806z"/><path d="m496.9 337.426-14.384-6.404c-11.323-5.042-24.639.07-29.68 11.393-5.041 11.324.07 24.637 11.393 29.678l14.385 6.404c2.962 1.319 6.059 1.942 9.109 1.942 8.612 0 16.848-4.974 20.57-13.336 5.042-11.323-.069-24.637-11.393-29.677zm-2.309 23.577c-1.679 3.769-6.11 5.467-9.876 3.791l-14.384-6.404c-3.768-1.677-5.468-6.107-3.791-9.875s6.106-5.47 9.876-3.791l14.384 6.404c3.767 1.678 5.468 6.108 3.791 9.875z"/><path d="m370.148 464.544c-4.844-11.409-18.067-16.751-29.477-11.908-11.409 4.843-16.752 18.065-11.909 29.475l6.151 14.493c3.631 8.552 11.97 13.696 20.724 13.696 2.925 0 5.896-.574 8.754-1.787 11.409-4.844 16.752-18.066 11.908-29.476zm-11.618 30.162c-3.801 1.612-8.198-.167-9.808-3.962l-6.151-14.493c-1.612-3.797.165-8.197 3.962-9.808.951-.404 1.938-.595 2.912-.595 2.912 0 5.688 1.711 6.896 4.557l6.151 14.493c1.612 3.797-.166 8.196-3.962 9.808z"/><path d="m176.476 454.068c-5.566-2.248-11.677-2.196-17.205.15-5.527 2.346-9.81 6.704-12.06 12.271l-5.898 14.598c-2.249 5.567-2.196 11.677.15 17.204s6.704 9.81 12.271 12.059c2.722 1.1 5.574 1.649 8.424 1.649 2.979 0 5.956-.6 8.781-1.799 5.527-2.346 9.81-6.704 12.06-12.271l5.897-14.598c2.25-5.567 2.197-11.677-.149-17.205s-6.704-9.808-12.271-12.058zm-1.487 23.645-5.898 14.598c-.748 1.852-2.173 3.302-4.012 4.083s-3.872.799-5.725.05c-1.853-.748-3.303-2.173-4.083-4.012-.781-1.839-.798-3.872-.05-5.724l5.898-14.598c1.175-2.909 3.984-4.678 6.944-4.678.931 0 1.877.175 2.792.545 1.853.748 3.303 2.173 4.083 4.012.782 1.838.8 3.871.051 5.724z"/><path d="m59.358 338.981c-4.255-10.536-17.605-16.792-29.477-11.908l-14.493 6.152c-11.409 4.842-16.752 18.065-11.909 29.475 5.066 10.877 17.176 16.82 29.477 11.909l14.494-6.152c11.408-4.843 16.751-18.066 11.908-29.476zm-17.77 15.668-14.494 6.152c-3.796 1.61-8.196-.167-9.808-3.963s.166-8.196 3.963-9.807l14.493-6.152c.94-.399 1.931-.599 2.922-.599.948 0 1.897.183 2.803.548 1.852.749 3.302 2.173 4.083 4.012 1.612 3.798-.166 8.198-3.962 9.809z"/><path d="m14.062 181.313 14.599 5.898c9.227 4.293 24.373-.294 29.264-12.421 4.25-9.875-.451-24.74-12.422-29.263l-14.599-5.898c-9.874-4.25-24.741.451-29.264 12.421-4.642 11.493.93 24.62 12.422 29.263zm1.486-23.644c.749-1.852 2.174-3.302 4.013-4.083.94-.399 1.931-.599 2.922-.599.948 0 1.897.183 2.803.549l14.599 5.898c3.824 1.545 5.678 5.912 4.133 9.737-.748 1.852-2.173 3.303-4.013 4.083-1.839.781-3.871.799-5.724.05l-14.599-5.899c-3.824-1.544-5.678-5.912-4.134-9.736z"/><path d="m143.54 45.768c3.63 8.552 11.969 13.695 20.724 13.695 2.924 0 5.896-.574 8.752-1.787 5.527-2.347 9.81-6.704 12.059-12.272s2.196-11.677-.15-17.204l-6.152-14.494c-2.346-5.527-6.705-9.809-12.272-12.059-5.567-2.248-11.677-2.196-17.205.15-11.41 4.843-16.752 18.065-11.909 29.476zm11.618-30.161c.94-.399 1.931-.599 2.922-.599.948 0 1.897.183 2.803.548 1.853.749 3.302 2.173 4.083 4.012l6.152 14.494c.781 1.839.799 3.872.05 5.724s-2.174 3.303-4.013 4.083c-3.796 1.611-8.196-.166-9.808-3.963l-6.152-14.492c-1.611-3.796.166-8.196 3.963-9.807z"/></g></g></svg>