<svg id="Capa_1" enable-background="new 0 0 512 512" height="512" viewBox="0 0 512 512" width="512" xmlns="http://www.w3.org/2000/svg"><g><g clip-rule="evenodd" fill-rule="evenodd"><path d="m504.5 312.25v-112.5c0-8.249-6.75-15-15-15h-467c-8.25 0-15 6.75-15 15v112.5c0 8.25 6.751 15 15 15h467c8.249 0 15-6.75 15-15z" fill="#ffc277"/><path d="m421.336 327.25h-330.672c27.605 63.97 91.237 108.75 165.336 108.75s137.732-44.78 165.336-108.75zm0-142.5h-330.672c27.605-63.97 91.237-108.75 165.336-108.75s137.732 44.78 165.336 108.75z" fill="#fff"/><path d="m421.336 327.25h-330.672c3.367 7.801 7.273 15.315 11.665 22.5h307.343c4.392-7.185 8.297-14.698 11.664-22.5zm-319.007-165h307.343c4.392 7.184 8.298 14.698 11.665 22.5h-330.673c3.367-7.802 7.273-15.315 11.665-22.5z" fill="#9ce4f8"/><path d="m256 436c-74.099 0-137.731-44.78-165.336-108.75h-46.453l-1.471 51.875 58.522 31.611 31.611 58.522 66.488-1.885 56.639 34.877 56.638-34.876 66.488 1.885 31.611-58.522 58.522-31.611-1.471-51.875h-46.453c-27.603 63.969-91.236 108.749-165.335 108.749zm0-360c-74.099 0-137.732 44.78-165.336 108.75h-46.452l-1.471-51.875 58.522-31.611 31.611-58.522 66.488 1.885 56.638-34.877 56.638 34.876 66.488-1.885 31.611 58.522 58.522 31.611-1.471 51.875h-46.453c-27.603-63.969-91.235-108.749-165.335-108.749z" fill="#ffc277"/><g fill="#f69500"><path d="m102.328 349.75c-4.392-7.184-8.298-14.698-11.665-22.5h-46.452l-.638 22.5zm366.098 0-.638-22.5h-46.453c-3.367 7.801-7.273 15.315-11.665 22.5zm-424.852-187.5h58.755c-4.392 7.184-8.298 14.698-11.665 22.5h-46.452zm366.098 0h58.755l-.638 22.5h-46.453c-3.366-7.802-7.272-15.315-11.664-22.5z"/><path d="m45 184.75h-22.5c-8.25 0-15 6.75-15 15v112.5c0 8.25 6.751 15 15 15h22.5c-8.249 0-15-6.75-15-15v-112.5c0-8.25 6.75-15 15-15z"/></g></g><g><path d="m248.5 319.75h15v15h-15z"/><path d="m489.5 177.25h-13.995l1.382-48.779-60.615-32.742-32.742-60.615-68.865 1.951-58.665-36.123-58.664 36.122-68.866-1.951-32.741 60.616-60.616 32.742 1.383 48.779h-13.996c-12.407 0-22.5 10.093-22.5 22.499v112.501c0 12.406 10.093 22.5 22.5 22.5h13.996l-1.383 48.779 60.616 32.741 32.742 60.616 68.866-1.952 58.663 36.124 58.663-36.123 68.866 1.952 32.741-60.616 60.616-32.741-1.382-48.779h13.996c12.406 0 22.5-10.094 22.5-22.5v-112.502c0-12.406-10.094-22.499-22.5-22.499zm-439.131-39.971 56.429-30.482 30.48-56.428 64.11 1.816 54.612-33.627 54.612 33.628 64.108-1.816 30.481 56.428 56.429 30.482-1.132 39.971h-34.309c-30.664-66.228-96.92-108.751-170.189-108.751-34.036 0-67.372 9.219-96.405 26.661l7.725 12.857c26.7-16.039 57.365-24.518 88.68-24.518 65.054 0 124.099 36.437 153.503 93.75h-307.007c12.448-24.221 30.523-45.254 52.776-61.292l-8.771-12.17c-26.252 18.921-47.14 44.25-60.678 73.462h-34.321zm411.262 237.442-56.429 30.481-30.481 56.429-64.108-1.817-54.613 33.628-54.612-33.629-64.11 1.817-30.48-56.429-56.429-30.481 1.133-39.971h34.309c30.664 66.228 96.921 108.751 170.189 108.751s139.525-42.523 170.189-108.75h34.309zm35.369-62.471c0 4.136-3.364 7.5-7.5 7.5h-211v15h131.004c-29.405 57.313-88.451 93.75-153.504 93.75s-124.099-36.437-153.503-93.75h131.003v-15h-211c-4.135 0-7.5-3.364-7.5-7.5v-112.501c0-4.135 3.365-7.499 7.5-7.499h467c4.136 0 7.5 3.364 7.5 7.499z"/><path d="m300.999 113.499h15v15h-15z"/><path d="m330.999 128.5h15v15h-15z"/><path d="m242.371 218.194-27.314 71.717 14.018 5.339 6.51-17.092h26.292l6.445 17.078 14.034-5.296-27.082-71.761zm-1.074 44.964 7.493-19.675 7.425 19.675z"/><path d="m354.905 263.584-28.525-45.398h-14.31v75.626h15v-46.333l28.525 45.397h14.31v-74.804h-15z"/><path d="m423.301 218.071h-24.193v73.942h24.747l.065-.001c17.779-.311 30.684-15.858 30.684-36.97 0-22.113-12.58-36.971-31.303-36.971zm.415 58.943h-9.608v-43.942h9.193c7.881 0 16.303 5.772 16.303 21.972 0 14.866-8.225 21.802-15.888 21.97z"/><path d="m100.524 251.401c2.207-3.377 3.491-7.409 3.491-11.736 0-11.842-9.634-21.476-21.477-21.476h-25.142v75.738h28.225c13.15 0 23.849-10.73 23.849-23.921 0-7.516-3.495-14.231-8.946-18.605zm-28.128-18.212h10.143c3.571 0 6.477 2.905 6.477 6.476 0 3.58-2.905 6.493-6.476 6.493h-7.5-2.644zm13.225 45.739h-13.225v-17.77h13.225c4.879 0 8.849 3.97 8.849 8.849 0 4.919-3.97 8.921-8.849 8.921z"/><path d="m186.511 241.475c0-12.84-10.846-23.285-24.178-23.285h-23.649l-.013 75.737 15 .002.005-25.156 22.609 26.727 11.452-9.688-18.606-21.995c10.031-2.836 17.38-11.775 17.38-22.342zm-32.83-8.286h8.651c4.975 0 9.178 3.794 9.178 8.285s-4.203 8.285-9.219 8.285l-8.614.047z"/></g></g></svg>